{"accessors":[{"bufferView":0,"byteOffset":0,"componentType":5123,"count":408,"type":"SCALAR"},{"bufferView":1,"byteOffset":0,"componentType":5126,"count":79,"max":[0.100000008940697,0,0.00000000000000000000000000000022],"min":[-0,-0.03999999910593,-0.09999999403954],"type":"VEC3"},{"bufferView":2,"byteOffset":0,"componentType":5126,"count":79,"type":"VEC3"},{"bufferView":3,"byteOffset":0,"componentType":5126,"count":79,"type":"VEC2"}],"asset":{"generator":"FBX2glTF v0.13.0","version":"2.0"},"bufferViews":[{"buffer":0,"byteLength":816,"byteOffset":0,"target":34963},{"buffer":0,"byteLength":948,"byteOffset":816,"target":34962},{"buffer":0,"byteLength":948,"byteOffset":1764,"target":34962},{"buffer":0,"byteLength":632,"byteOffset":2712,"target":34962}],"buffers":[{"byteLength":3344,"uri":"rpgpp_av_terrain_hill_02b_10x10m_2-2m.bin"}],"images":[{"name":"rpgpp_ag_tex_a","uri":"rpgpp_ag_tex_a.png"}],"materials":[{"alphaMode":"OPAQUE","doubleSided":false,"extras":{"fromFBX":{"isTruePBR":false,"shadingModel":"Phong"}},"name":"rpgpp_ag_mat_a","pbrMetallicRoughness":{"baseColorFactor":[1,1,1,1],"baseColorTexture":{"index":0,"texCoord":0},"metallicFactor":0.400000005960464,"roughnessFactor":0.284101665019989}}],"meshes":[{"name":"rpgpp_av_terrain_hill_02b_10x10m_2-2m","primitives":[{"attributes":{"NORMAL":2,"POSITION":1,"TEXCOORD_0":3},"indices":0,"material":0,"mode":4}]}],"nodes":[{"mesh":0,"name":"rpgpp_av_terrain_hill_02b_10x10m_2-2m","rotation":[0,0,0,1],"scale":[1,1,1],"translation":[0,0,0]}],"samplers":[{}],"scene":0,"scenes":[{"name":"Root Scene","nodes":[0]}],"textures":[{"name":"base_color_texture","sampler":0,"source":0}]}