{"accessors":[{"bufferView":0,"byteOffset":0,"componentType":5123,"count":540,"type":"SCALAR"},{"bufferView":1,"byteOffset":0,"componentType":5126,"count":135,"max":[0.00767561281099916,0.011755058541894,0.0074237291701138],"min":[-0.00707033090293,0.000000000146683304391715,-0.00595024321228],"type":"VEC3"},{"bufferView":2,"byteOffset":0,"componentType":5126,"count":135,"type":"VEC3"},{"bufferView":3,"byteOffset":0,"componentType":5126,"count":135,"type":"VEC2"}],"asset":{"generator":"FBX2glTF v0.13.1","version":"2.0"},"bufferViews":[{"buffer":0,"byteLength":1080,"byteOffset":0,"target":34963},{"buffer":0,"byteLength":1620,"byteOffset":1080,"target":34962},{"buffer":0,"byteLength":1620,"byteOffset":2700,"target":34962},{"buffer":0,"byteLength":1080,"byteOffset":4320,"target":34962}],"buffers":[{"byteLength":5400,"uri":"rpgpp_av_grass_small_01a.bin"}],"images":[{"name":"rpgpp_av_tex_a","uri":"../../../Textures/rpgpp_av_tex_a.png"}],"materials":[{"alphaMode":"OPAQUE","doubleSided":false,"extras":{"fromFBX":{"isTruePBR":false,"shadingModel":"Phong"}},"name":"rpgpp_av_mat_a","pbrMetallicRoughness":{"baseColorFactor":[1,1,1,1],"baseColorTexture":{"index":0,"texCoord":0},"metallicFactor":0.400000005960464,"roughnessFactor":0.284101665019989}}],"meshes":[{"name":"rpgpp_av_grass_small_01a","primitives":[{"attributes":{"NORMAL":2,"POSITION":1,"TEXCOORD_0":3},"indices":0,"material":0,"mode":4}]}],"nodes":[{"mesh":0,"name":"rpgpp_av_grass_small_01a","rotation":[0,0,0,1],"scale":[1,1,1],"translation":[0,0,0]}],"samplers":[{}],"scene":0,"scenes":[{"name":"Root Scene","nodes":[0]}],"textures":[{"name":"base_color_texture","sampler":0,"source":0}]}