{"accessors":[{"bufferView":0,"byteOffset":0,"componentType":5123,"count":432,"type":"SCALAR"},{"bufferView":1,"byteOffset":0,"componentType":5126,"count":76,"max":[0.00598081527277827,0.0188824385404587,0.00259807263500988],"min":[-0.00101790810004,-0.00000185246915,-0.00304970238358],"type":"VEC3"},{"bufferView":2,"byteOffset":0,"componentType":5126,"count":76,"type":"VEC3"},{"bufferView":3,"byteOffset":0,"componentType":5126,"count":76,"type":"VEC2"}],"asset":{"generator":"FBX2glTF v0.13.1","version":"2.0"},"bufferViews":[{"buffer":0,"byteLength":864,"byteOffset":0,"target":34963},{"buffer":0,"byteLength":912,"byteOffset":864,"target":34962},{"buffer":0,"byteLength":912,"byteOffset":1776,"target":34962},{"buffer":0,"byteLength":608,"byteOffset":2688,"target":34962}],"buffers":[{"byteLength":3296,"uri":"rpgpp_av_tree_dead_small_02.bin"}],"images":[{"name":"rpgpp_ag_tex_a","uri":"rpgpp_ag_tex_a.png"}],"materials":[{"alphaMode":"OPAQUE","doubleSided":false,"extras":{"fromFBX":{"isTruePBR":false,"shadingModel":"Phong"}},"name":"rpgpp_ag_mat_a","pbrMetallicRoughness":{"baseColorFactor":[1,1,1,1],"baseColorTexture":{"index":0,"texCoord":0},"metallicFactor":0.400000005960464,"roughnessFactor":0.284101665019989}}],"meshes":[{"name":"rpgpp_av_tree_dead_small_02","primitives":[{"attributes":{"NORMAL":2,"POSITION":1,"TEXCOORD_0":3},"indices":0,"material":0,"mode":4}]}],"nodes":[{"mesh":0,"name":"rpgpp_av_tree_dead_small_02","rotation":[0,0,0,1],"scale":[1,1,1],"translation":[0,0,0]}],"samplers":[{}],"scene":0,"scenes":[{"name":"Root Scene","nodes":[0]}],"textures":[{"name":"base_color_texture","sampler":0,"source":0}]}