{"accessors":[{"bufferView":0,"byteOffset":0,"componentType":5123,"count":417,"type":"SCALAR"},{"bufferView":1,"byteOffset":0,"componentType":5126,"count":92,"max":[0.00201737647876143,0.0149149987846613,0.00220181094482541],"min":[-0.00264915730804,0.0000163984168466413,-0.0026561957784],"type":"VEC3"},{"bufferView":2,"byteOffset":0,"componentType":5126,"count":92,"type":"VEC3"},{"bufferView":3,"byteOffset":0,"componentType":5126,"count":92,"type":"VEC2"}],"asset":{"generator":"FBX2glTF v0.13.1","version":"2.0"},"bufferViews":[{"buffer":0,"byteLength":834,"byteOffset":0,"target":34963},{"buffer":0,"byteLength":1104,"byteOffset":836,"target":34962},{"buffer":0,"byteLength":1104,"byteOffset":1940,"target":34962},{"buffer":0,"byteLength":736,"byteOffset":3044,"target":34962}],"buffers":[{"byteLength":3780,"uri":"rpgpp_av_tree_chopped_01.bin"}],"images":[{"name":"rpgpp_ag_tex_a","uri":"rpgpp_ag_tex_a.png"}],"materials":[{"alphaMode":"OPAQUE","doubleSided":false,"extras":{"fromFBX":{"isTruePBR":false,"shadingModel":"Phong"}},"name":"rpgpp_ag_mat_a","pbrMetallicRoughness":{"baseColorFactor":[1,1,1,1],"baseColorTexture":{"index":0,"texCoord":0},"metallicFactor":0.400000005960464,"roughnessFactor":0.284101665019989}}],"meshes":[{"name":"rpgpp_av_tree_chopped_01","primitives":[{"attributes":{"NORMAL":2,"POSITION":1,"TEXCOORD_0":3},"indices":0,"material":0,"mode":4}]}],"nodes":[{"mesh":0,"name":"rpgpp_av_tree_chopped_01","rotation":[0,0,0,1],"scale":[1,1,1],"translation":[0,0,0]}],"samplers":[{}],"scene":0,"scenes":[{"name":"Root Scene","nodes":[0]}],"textures":[{"name":"base_color_texture","sampler":0,"source":0}]}