{"accessors":[{"bufferView":0,"byteOffset":0,"componentType":5123,"count":2220,"type":"SCALAR"},{"bufferView":1,"byteOffset":0,"componentType":5126,"count":330,"max":[0.0253646206110716,0.0786340236663818,0.0250290744006634],"min":[-0.02576081641018,0,-0.01549618970603],"type":"VEC3"},{"bufferView":2,"byteOffset":0,"componentType":5126,"count":330,"type":"VEC3"},{"bufferView":3,"byteOffset":0,"componentType":5126,"count":330,"type":"VEC2"}],"asset":{"generator":"FBX2glTF v0.13.1","version":"2.0"},"bufferViews":[{"buffer":0,"byteLength":4440,"byteOffset":0,"target":34963},{"buffer":0,"byteLength":3960,"byteOffset":4440,"target":34962},{"buffer":0,"byteLength":3960,"byteOffset":8400,"target":34962},{"buffer":0,"byteLength":2640,"byteOffset":12360,"target":34962}],"buffers":[{"byteLength":15000,"uri":"rpgpp_av_tree_dead_03.bin"}],"images":[{"name":"rpgpp_ag_tex_a","uri":"rpgpp_ag_tex_a.png"}],"materials":[{"alphaMode":"OPAQUE","doubleSided":false,"extras":{"fromFBX":{"isTruePBR":false,"shadingModel":"Phong"}},"name":"rpgpp_ag_mat_a","pbrMetallicRoughness":{"baseColorFactor":[1,1,1,1],"baseColorTexture":{"index":0,"texCoord":0},"metallicFactor":0.400000005960464,"roughnessFactor":0.284101665019989}}],"meshes":[{"name":"rpgpp_av_tree_dead_03","primitives":[{"attributes":{"NORMAL":2,"POSITION":1,"TEXCOORD_0":3},"indices":0,"material":0,"mode":4}]}],"nodes":[{"mesh":0,"name":"rpgpp_av_tree_dead_03","rotation":[0,0,0,1],"scale":[1,1,1],"translation":[0,0,0]}],"samplers":[{}],"scene":0,"scenes":[{"name":"Root Scene","nodes":[0]}],"textures":[{"name":"base_color_texture","sampler":0,"source":0}]}