{"accessors":[{"bufferView":0,"byteOffset":0,"componentType":5123,"count":612,"type":"SCALAR"},{"bufferView":1,"byteOffset":0,"componentType":5126,"count":142,"max":[0.00735743204131722,0.0626634657382965,0.0081569105386734],"min":[-0.00983734615147,-0.00000000069904,-0.00772205973044],"type":"VEC3"},{"bufferView":2,"byteOffset":0,"componentType":5126,"count":142,"type":"VEC3"},{"bufferView":3,"byteOffset":0,"componentType":5126,"count":142,"type":"VEC2"}],"asset":{"generator":"FBX2glTF v0.13.1","version":"2.0"},"bufferViews":[{"buffer":0,"byteLength":1224,"byteOffset":0,"target":34963},{"buffer":0,"byteLength":1704,"byteOffset":1224,"target":34962},{"buffer":0,"byteLength":1704,"byteOffset":2928,"target":34962},{"buffer":0,"byteLength":1136,"byteOffset":4632,"target":34962}],"buffers":[{"byteLength":5768,"uri":"rpgpp_av_tree_pine_dead_01b.bin"}],"images":[{"name":"rpgpp_av_tex_a","uri":"../../../Textures/rpgpp_av_tex_a.png"}],"materials":[{"alphaMode":"OPAQUE","doubleSided":false,"extras":{"fromFBX":{"isTruePBR":false,"shadingModel":"Phong"}},"name":"rpgpp_av_mat_a","pbrMetallicRoughness":{"baseColorFactor":[1,1,1,1],"baseColorTexture":{"index":0,"texCoord":0},"metallicFactor":0.400000005960464,"roughnessFactor":0.284101665019989}}],"meshes":[{"name":"rpgpp_av_tree_pine_dead_01b","primitives":[{"attributes":{"NORMAL":2,"POSITION":1,"TEXCOORD_0":3},"indices":0,"material":0,"mode":4}]}],"nodes":[{"mesh":0,"name":"rpgpp_av_tree_pine_dead_01b","rotation":[0,0,0,1],"scale":[1,1,1],"translation":[0,0,0]}],"samplers":[{}],"scene":0,"scenes":[{"name":"Root Scene","nodes":[0]}],"textures":[{"name":"base_color_texture","sampler":0,"source":0}]}