{"accessors":[{"bufferView":0,"byteOffset":0,"componentType":5123,"count":897,"type":"SCALAR"},{"bufferView":1,"byteOffset":0,"componentType":5126,"count":180,"max":[0.00504198437556624,0.00812898296862841,0.00517465593293309],"min":[-0.00372122763656,-0.00006540220784,-0.00398191250861],"type":"VEC3"},{"bufferView":2,"byteOffset":0,"componentType":5126,"count":180,"type":"VEC3"},{"bufferView":3,"byteOffset":0,"componentType":5126,"count":180,"type":"VEC2"}],"asset":{"generator":"FBX2glTF v0.13.1","version":"2.0"},"bufferViews":[{"buffer":0,"byteLength":1794,"byteOffset":0,"target":34963},{"buffer":0,"byteLength":2160,"byteOffset":1796,"target":34962},{"buffer":0,"byteLength":2160,"byteOffset":3956,"target":34962},{"buffer":0,"byteLength":1440,"byteOffset":6116,"target":34962}],"buffers":[{"byteLength":7556,"uri":"rpgpp_av_stump_02.bin"}],"images":[{"name":"rpgpp_ne_tex_a","uri":"rpgpp_ne_tex_a.png"}],"materials":[{"alphaMode":"OPAQUE","doubleSided":false,"extras":{"fromFBX":{"isTruePBR":false,"shadingModel":"Phong"}},"name":"rpgpp_ne_mat_a.013","pbrMetallicRoughness":{"baseColorFactor":[1,1,1,1],"baseColorTexture":{"index":0,"texCoord":0},"metallicFactor":0.400000005960464,"roughnessFactor":0.272165536880493}}],"meshes":[{"name":"rpgpp_av_stump_02","primitives":[{"attributes":{"NORMAL":2,"POSITION":1,"TEXCOORD_0":3},"indices":0,"material":0,"mode":4}]}],"nodes":[{"mesh":0,"name":"rpgpp_av_stump_02","rotation":[0,0,0,1],"scale":[1,1,1],"translation":[0,0,0]}],"samplers":[{}],"scene":0,"scenes":[{"name":"Root Scene","nodes":[0]}],"textures":[{"name":"base_color_texture","sampler":0,"source":0}]}