{"accessors":[{"bufferView":0,"byteOffset":0,"componentType":5123,"count":2886,"type":"SCALAR"},{"bufferView":1,"byteOffset":0,"componentType":5126,"count":502,"max":[0.0281580872833729,0.0943935886025429,0.0308915078639984],"min":[-0.01964314095676,0,-0.02181753888726],"type":"VEC3"},{"bufferView":2,"byteOffset":0,"componentType":5126,"count":502,"type":"VEC3"},{"bufferView":3,"byteOffset":0,"componentType":5126,"count":502,"type":"VEC2"}],"asset":{"generator":"FBX2glTF v0.13.1","version":"2.0"},"bufferViews":[{"buffer":0,"byteLength":5772,"byteOffset":0,"target":34963},{"buffer":0,"byteLength":6024,"byteOffset":5772,"target":34962},{"buffer":0,"byteLength":6024,"byteOffset":11796,"target":34962},{"buffer":0,"byteLength":4016,"byteOffset":17820,"target":34962}],"buffers":[{"byteLength":21836,"uri":"rpgpp_av_tree_dead_04.bin"}],"images":[{"name":"rpgpp_ag_tex_a","uri":"rpgpp_ag_tex_a.png"}],"materials":[{"alphaMode":"OPAQUE","doubleSided":false,"extras":{"fromFBX":{"isTruePBR":false,"shadingModel":"Phong"}},"name":"rpgpp_ag_mat_a","pbrMetallicRoughness":{"baseColorFactor":[1,1,1,1],"baseColorTexture":{"index":0,"texCoord":0},"metallicFactor":0.400000005960464,"roughnessFactor":0.284101665019989}}],"meshes":[{"name":"rpgpp_av_tree_dead_04","primitives":[{"attributes":{"NORMAL":2,"POSITION":1,"TEXCOORD_0":3},"indices":0,"material":0,"mode":4}]}],"nodes":[{"mesh":0,"name":"rpgpp_av_tree_dead_04","rotation":[0,0,0,1],"scale":[1,1,1],"translation":[0,0,0]}],"samplers":[{}],"scene":0,"scenes":[{"name":"Root Scene","nodes":[0]}],"textures":[{"name":"base_color_texture","sampler":0,"source":0}]}