{"accessors":[{"bufferView":0,"byteOffset":0,"componentType":5123,"count":1440,"type":"SCALAR"},{"bufferView":1,"byteOffset":0,"componentType":5126,"count":252,"max":[0.0139144463464618,0.0813333988189697,0.0181914865970612],"min":[-0.01944393664598,-0.0000000005206,-0.02045026794076],"type":"VEC3"},{"bufferView":2,"byteOffset":0,"componentType":5126,"count":252,"type":"VEC3"},{"bufferView":3,"byteOffset":0,"componentType":5126,"count":252,"type":"VEC2"}],"asset":{"generator":"FBX2glTF v0.13.1","version":"2.0"},"bufferViews":[{"buffer":0,"byteLength":2880,"byteOffset":0,"target":34963},{"buffer":0,"byteLength":3024,"byteOffset":2880,"target":34962},{"buffer":0,"byteLength":3024,"byteOffset":5904,"target":34962},{"buffer":0,"byteLength":2016,"byteOffset":8928,"target":34962}],"buffers":[{"byteLength":10944,"uri":"rpgpp_av_tree_pine_01a.bin"}],"images":[{"name":"rpgpp_av_tex_a","uri":"../../../Textures/rpgpp_av_tex_a.png"}],"materials":[{"alphaMode":"OPAQUE","doubleSided":false,"extras":{"fromFBX":{"isTruePBR":false,"shadingModel":"Phong"}},"name":"rpgpp_av_mat_a","pbrMetallicRoughness":{"baseColorFactor":[1,1,1,1],"baseColorTexture":{"index":0,"texCoord":0},"metallicFactor":0.400000005960464,"roughnessFactor":0.284101665019989}}],"meshes":[{"name":"rpgpp_av_tree_pine_01a","primitives":[{"attributes":{"NORMAL":2,"POSITION":1,"TEXCOORD_0":3},"indices":0,"material":0,"mode":4}]}],"nodes":[{"mesh":0,"name":"rpgpp_av_tree_pine_01a","rotation":[0,0,0,1],"scale":[1,1,1],"translation":[0,0,0]}],"samplers":[{}],"scene":0,"scenes":[{"name":"Root Scene","nodes":[0]}],"textures":[{"name":"base_color_texture","sampler":0,"source":0}]}