{"accessors":[{"bufferView":0,"byteOffset":0,"componentType":5123,"count":645,"type":"SCALAR"},{"bufferView":1,"byteOffset":0,"componentType":5126,"count":140,"max":[0.0106657911092043,0.0210974551737309,0.00707661267369986],"min":[-0.00273247831501,0.0000016576051393713,-0.00098551122937],"type":"VEC3"},{"bufferView":2,"byteOffset":0,"componentType":5126,"count":140,"type":"VEC3"},{"bufferView":3,"byteOffset":0,"componentType":5126,"count":140,"type":"VEC2"}],"asset":{"generator":"FBX2glTF v0.13.0","version":"2.0"},"bufferViews":[{"buffer":0,"byteLength":1290,"byteOffset":0,"target":34963},{"buffer":0,"byteLength":1680,"byteOffset":1292,"target":34962},{"buffer":0,"byteLength":1680,"byteOffset":2972,"target":34962},{"buffer":0,"byteLength":1120,"byteOffset":4652,"target":34962}],"buffers":[{"byteLength":5772,"uri":"rpgpp_av_road_sign_01b.bin"}],"images":[{"name":"rpgpp_av_tex_a","uri":"../../Textures/rpgpp_av_tex_a.png"}],"materials":[{"alphaMode":"OPAQUE","doubleSided":false,"extras":{"fromFBX":{"isTruePBR":false,"shadingModel":"Phong"}},"name":"rpgpp_av_mat_a","pbrMetallicRoughness":{"baseColorFactor":[1,1,1,1],"baseColorTexture":{"index":0,"texCoord":0},"metallicFactor":0.400000005960464,"roughnessFactor":0.284101665019989}}],"meshes":[{"name":"rpgpp_av_road_sign_01b","primitives":[{"attributes":{"NORMAL":2,"POSITION":1,"TEXCOORD_0":3},"indices":0,"material":0,"mode":4}]}],"nodes":[{"mesh":0,"name":"rpgpp_av_road_sign_01b","rotation":[0,0,0,1],"scale":[1,1,1],"translation":[0,0,0]}],"samplers":[{}],"scene":0,"scenes":[{"name":"Root Scene","nodes":[0]}],"textures":[{"name":"base_color_texture","sampler":0,"source":0}]}