{"accessors":[{"bufferView":0,"byteOffset":0,"componentType":5123,"count":1572,"type":"SCALAR"},{"bufferView":1,"byteOffset":0,"componentType":5126,"count":395,"max":[0.00363995274528861,0.00467619160190225,0.0058901971206069],"min":[-0.00347695988603,-0.00000023022294,-0.00582622503862],"type":"VEC3"},{"bufferView":2,"byteOffset":0,"componentType":5126,"count":395,"type":"VEC3"},{"bufferView":3,"byteOffset":0,"componentType":5126,"count":395,"type":"VEC2"}],"asset":{"generator":"FBX2glTF v0.13.0","version":"2.0"},"bufferViews":[{"buffer":0,"byteLength":3144,"byteOffset":0,"target":34963},{"buffer":0,"byteLength":4740,"byteOffset":3144,"target":34962},{"buffer":0,"byteLength":4740,"byteOffset":7884,"target":34962},{"buffer":0,"byteLength":3160,"byteOffset":12624,"target":34962}],"buffers":[{"byteLength":15784,"uri":"rpgpp_av_crate_04.bin"}],"images":[{"name":"rpgpp_av_tex_a","uri":"../../Textures/rpgpp_av_tex_a.png"}],"materials":[{"alphaMode":"OPAQUE","doubleSided":false,"extras":{"fromFBX":{"isTruePBR":false,"shadingModel":"Phong"}},"name":"rpgpp_av_mat_a","pbrMetallicRoughness":{"baseColorFactor":[1,1,1,1],"baseColorTexture":{"index":0,"texCoord":0},"metallicFactor":0.400000005960464,"roughnessFactor":0.284101665019989}}],"meshes":[{"name":"rpgpp_av_crate_04","primitives":[{"attributes":{"NORMAL":2,"POSITION":1,"TEXCOORD_0":3},"indices":0,"material":0,"mode":4}]}],"nodes":[{"mesh":0,"name":"rpgpp_av_crate_04","rotation":[0,0,0,1],"scale":[1,1,1],"translation":[0,0,0]}],"samplers":[{}],"scene":0,"scenes":[{"name":"Root Scene","nodes":[0]}],"textures":[{"name":"base_color_texture","sampler":0,"source":0}]}