{"accessors":[{"bufferView":0,"byteOffset":0,"componentType":5123,"count":222,"type":"SCALAR"},{"bufferView":1,"byteOffset":0,"componentType":5126,"count":39,"max":[0.00186024769209325,0.00137930701021105,0.00148222001735121],"min":[-0.00186024839059,-0.00000000037054,-0.00186024734285],"type":"VEC3"},{"bufferView":2,"byteOffset":0,"componentType":5126,"count":39,"type":"VEC3"},{"bufferView":3,"byteOffset":0,"componentType":5126,"count":39,"type":"VEC2"}],"asset":{"generator":"FBX2glTF v0.13.0","version":"2.0"},"bufferViews":[{"buffer":0,"byteLength":444,"byteOffset":0,"target":34963},{"buffer":0,"byteLength":468,"byteOffset":444,"target":34962},{"buffer":0,"byteLength":468,"byteOffset":912,"target":34962},{"buffer":0,"byteLength":312,"byteOffset":1380,"target":34962}],"buffers":[{"byteLength":1692,"uri":"rpgpp_av_bowl_wood_01.bin"}],"images":[{"name":"rpgpp_av_tex_a","uri":"../../Textures/rpgpp_av_tex_a.png"}],"materials":[{"alphaMode":"OPAQUE","doubleSided":false,"extras":{"fromFBX":{"isTruePBR":false,"shadingModel":"Phong"}},"name":"rpgpp_av_mat_a","pbrMetallicRoughness":{"baseColorFactor":[1,1,1,1],"baseColorTexture":{"index":0,"texCoord":0},"metallicFactor":0.400000005960464,"roughnessFactor":0.284101665019989}}],"meshes":[{"name":"rpgpp_av_bowl_wood_01","primitives":[{"attributes":{"NORMAL":2,"POSITION":1,"TEXCOORD_0":3},"indices":0,"material":0,"mode":4}]}],"nodes":[{"mesh":0,"name":"rpgpp_av_bowl_wood_01","rotation":[0,0,0,1],"scale":[1,1,1],"translation":[-0.00000000106684,0,0.000000000127257246407275]}],"samplers":[{}],"scene":0,"scenes":[{"name":"Root Scene","nodes":[0]}],"textures":[{"name":"base_color_texture","sampler":0,"source":0}]}