{"accessors":[{"bufferView":0,"byteOffset":0,"componentType":5123,"count":525,"type":"SCALAR"},{"bufferView":1,"byteOffset":0,"componentType":5126,"count":118,"max":[0.00866590440273285,0.023600434884429,0.00557499611750245],"min":[-0.00664159888402,-0.00049462495372,-0.00481523666531],"type":"VEC3"},{"bufferView":2,"byteOffset":0,"componentType":5126,"count":118,"type":"VEC3"},{"bufferView":3,"byteOffset":0,"componentType":5126,"count":118,"type":"VEC2"}],"asset":{"generator":"FBX2glTF v0.13.0","version":"2.0"},"bufferViews":[{"buffer":0,"byteLength":1050,"byteOffset":0,"target":34963},{"buffer":0,"byteLength":1416,"byteOffset":1052,"target":34962},{"buffer":0,"byteLength":1416,"byteOffset":2468,"target":34962},{"buffer":0,"byteLength":944,"byteOffset":3884,"target":34962}],"buffers":[{"byteLength":4828,"uri":"rpgpp_av_planks_01d.bin"}],"images":[{"name":"rpgpp_av_tex_a","uri":"../../Textures/rpgpp_av_tex_a.png"}],"materials":[{"alphaMode":"OPAQUE","doubleSided":false,"extras":{"fromFBX":{"isTruePBR":false,"shadingModel":"Phong"}},"name":"rpgpp_av_mat_a","pbrMetallicRoughness":{"baseColorFactor":[1,1,1,1],"baseColorTexture":{"index":0,"texCoord":0},"metallicFactor":0.400000005960464,"roughnessFactor":0.284101665019989}}],"meshes":[{"name":"rpgpp_av_planks_01d","primitives":[{"attributes":{"NORMAL":2,"POSITION":1,"TEXCOORD_0":3},"indices":0,"material":0,"mode":4}]}],"nodes":[{"mesh":0,"name":"rpgpp_av_planks_01d","rotation":[0,0,0,1],"scale":[1,1,1],"translation":[0,0,0]}],"samplers":[{}],"scene":0,"scenes":[{"name":"Root Scene","nodes":[0]}],"textures":[{"name":"base_color_texture","sampler":0,"source":0}]}