{"accessors":[{"bufferView":0,"byteOffset":0,"componentType":5123,"count":1446,"type":"SCALAR"},{"bufferView":1,"byteOffset":0,"componentType":5126,"count":256,"max":[0.004196188878268,0.0098562128841877,0.00480436952784657],"min":[-0.00483885873109,-0.00006997241144,-0.00568027421832],"type":"VEC3"},{"bufferView":2,"byteOffset":0,"componentType":5126,"count":256,"type":"VEC3"},{"bufferView":3,"byteOffset":0,"componentType":5126,"count":256,"type":"VEC2"}],"asset":{"generator":"FBX2glTF v0.13.0","version":"2.0"},"bufferViews":[{"buffer":0,"byteLength":2892,"byteOffset":0,"target":34963},{"buffer":0,"byteLength":3072,"byteOffset":2892,"target":34962},{"buffer":0,"byteLength":3072,"byteOffset":5964,"target":34962},{"buffer":0,"byteLength":2048,"byteOffset":9036,"target":34962}],"buffers":[{"byteLength":11084,"uri":"rpgpp_av_barrel_03c.bin"}],"images":[{"name":"rpgpp_av_tex_a","uri":"../../Textures/rpgpp_av_tex_a.png"}],"materials":[{"alphaMode":"OPAQUE","doubleSided":false,"extras":{"fromFBX":{"isTruePBR":false,"shadingModel":"Phong"}},"name":"rpgpp_av_mat_a","pbrMetallicRoughness":{"baseColorFactor":[1,1,1,1],"baseColorTexture":{"index":0,"texCoord":0},"metallicFactor":0.400000005960464,"roughnessFactor":0.284101665019989}}],"meshes":[{"name":"rpgpp_av_barrel_03c","primitives":[{"attributes":{"NORMAL":2,"POSITION":1,"TEXCOORD_0":3},"indices":0,"material":0,"mode":4}]}],"nodes":[{"mesh":0,"name":"rpgpp_av_barrel_03c","rotation":[0,0,0,1],"scale":[1,1,1],"translation":[0,0,0]}],"samplers":[{}],"scene":0,"scenes":[{"name":"Root Scene","nodes":[0]}],"textures":[{"name":"base_color_texture","sampler":0,"source":0}]}