{"accessors":[{"bufferView":0,"byteOffset":0,"componentType":5123,"count":1230,"type":"SCALAR"},{"bufferView":1,"byteOffset":0,"componentType":5126,"count":287,"max":[0.00340247177518904,0.0408514775335789,0.00061707792337983],"min":[-0.0035218053963,-0.00005308331311,-0.00590389873832],"type":"VEC3"},{"bufferView":2,"byteOffset":0,"componentType":5126,"count":287,"type":"VEC3"},{"bufferView":3,"byteOffset":0,"componentType":5126,"count":287,"type":"VEC2"}],"asset":{"generator":"FBX2glTF v0.13.0","version":"2.0"},"bufferViews":[{"buffer":0,"byteLength":2460,"byteOffset":0,"target":34963},{"buffer":0,"byteLength":3444,"byteOffset":2460,"target":34962},{"buffer":0,"byteLength":3444,"byteOffset":5904,"target":34962},{"buffer":0,"byteLength":2296,"byteOffset":9348,"target":34962}],"buffers":[{"byteLength":11644,"uri":"rpgpp_av_ladder_tall_01a.bin"}],"images":[{"name":"rpgpp_av_tex_a","uri":"../../Textures/rpgpp_av_tex_a.png"}],"materials":[{"alphaMode":"OPAQUE","doubleSided":false,"extras":{"fromFBX":{"isTruePBR":false,"shadingModel":"Phong"}},"name":"rpgpp_av_mat_a","pbrMetallicRoughness":{"baseColorFactor":[1,1,1,1],"baseColorTexture":{"index":0,"texCoord":0},"metallicFactor":0.400000005960464,"roughnessFactor":0.284101665019989}}],"meshes":[{"name":"rpgpp_av_ladder_tall_01a","primitives":[{"attributes":{"NORMAL":2,"POSITION":1,"TEXCOORD_0":3},"indices":0,"material":0,"mode":4}]}],"nodes":[{"mesh":0,"name":"rpgpp_av_ladder_tall_01a","rotation":[0,0,0,1],"scale":[1,1,1],"translation":[0,0,0]}],"samplers":[{}],"scene":0,"scenes":[{"name":"Root Scene","nodes":[0]}],"textures":[{"name":"base_color_texture","sampler":0,"source":0}]}