{"accessors":[{"bufferView":0,"byteOffset":0,"componentType":5123,"count":1746,"type":"SCALAR"},{"bufferView":1,"byteOffset":0,"componentType":5126,"count":434,"max":[0.00630996702238917,0.00799088645726442,0.00994296744465828],"min":[-0.00567503459752,0,-0.01031080447137],"type":"VEC3"},{"bufferView":2,"byteOffset":0,"componentType":5126,"count":434,"type":"VEC3"},{"bufferView":3,"byteOffset":0,"componentType":5126,"count":434,"type":"VEC2"}],"asset":{"generator":"FBX2glTF v0.13.0","version":"2.0"},"bufferViews":[{"buffer":0,"byteLength":3492,"byteOffset":0,"target":34963},{"buffer":0,"byteLength":5208,"byteOffset":3492,"target":34962},{"buffer":0,"byteLength":5208,"byteOffset":8700,"target":34962},{"buffer":0,"byteLength":3472,"byteOffset":13908,"target":34962}],"buffers":[{"byteLength":17380,"uri":"rpgpp_av_table_04b.bin"}],"images":[{"name":"rpgpp_av_tex_a","uri":"../../Textures/rpgpp_av_tex_a.png"}],"materials":[{"alphaMode":"OPAQUE","doubleSided":false,"extras":{"fromFBX":{"isTruePBR":false,"shadingModel":"Phong"}},"name":"rpgpp_av_mat_a","pbrMetallicRoughness":{"baseColorFactor":[1,1,1,1],"baseColorTexture":{"index":0,"texCoord":0},"metallicFactor":0.400000005960464,"roughnessFactor":0.284101665019989}}],"meshes":[{"name":"rpgpp_av_table_04b","primitives":[{"attributes":{"NORMAL":2,"POSITION":1,"TEXCOORD_0":3},"indices":0,"material":0,"mode":4}]}],"nodes":[{"mesh":0,"name":"rpgpp_av_table_04b","rotation":[0,0,0,1],"scale":[1,1,1],"translation":[0,0,0]}],"samplers":[{}],"scene":0,"scenes":[{"name":"Root Scene","nodes":[0]}],"textures":[{"name":"base_color_texture","sampler":0,"source":0}]}