{
  "accessors": [
    {
      "bufferView": 2,
      "componentType": 5126,
      "count": 265,
      "max": [
        0.13862375915050507,
        0.4655609130859375,
        0.1542474776506424
      ],
      "min": [
        -0.13862375915050507,
        0.0,
        -0.1542474776506424
      ],
      "type": "VEC3"
    },
    {
      "bufferView": 2,
      "byteOffset": 3180,
      "componentType": 5126,
      "count": 265,
      "max": [
        1.0,
        1.0,
        1.0
      ],
      "min": [
        -1.0,
        -1.0,
        -1.0
      ],
      "type": "VEC3"
    },
    {
      "bufferView": 1,
      "componentType": 5126,
      "count": 265,
      "max": [
        0.6815099716186523,
        0.9911748766899109
      ],
      "min": [
        0.2831544578075409,
        0.4564274549484253
      ],
      "type": "VEC2"
    },
    {
      "bufferView": 0,
      "componentType": 5125,
      "count": 996,
      "type": "SCALAR"
    },
    {
      "bufferView": 2,
      "byteOffset": 6360,
      "componentType": 5126,
      "count": 932,
      "max": [
        0.6371808052062988,
        0.8029766082763672,
        1.1160626411437988
      ],
      "min": [
        -0.6371808052062988,
        -0.002202630043029785,
        -1.1160626411437988
      ],
      "type": "VEC3"
    },
    {
      "bufferView": 2,
      "byteOffset": 17544,
      "componentType": 5126,
      "count": 932,
      "max": [
        1.0,
        1.0,
        1.0
      ],
      "min": [
        -1.0,
        -1.0,
        -1.0
      ],
      "type": "VEC3"
    },
    {
      "bufferView": 1,
      "byteOffset": 2120,
      "componentType": 5126,
      "count": 932,
      "max": [
        0.3642176389694214,
        0.9876196980476379
      ],
      "min": [
        0.011775597929954529,
        0.45116710662841797
      ],
      "type": "VEC2"
    },
    {
      "bufferView": 0,
      "byteOffset": 3984,
      "componentType": 5125,
      "count": 1716,
      "type": "SCALAR"
    },
    {
      "bufferView": 2,
      "byteOffset": 28728,
      "componentType": 5126,
      "count": 361,
      "max": [
        0.207497701048851,
        0.4058115482330322,
        0.30471694469451904
      ],
      "min": [
        -0.2074977159500122,
        -0.020439505577087402,
        -0.4072064161300659
      ],
      "type": "VEC3"
    },
    {
      "bufferView": 2,
      "byteOffset": 33060,
      "componentType": 5126,
      "count": 361,
      "max": [
        1.0,
        1.0,
        1.0
      ],
      "min": [
        -1.0,
        -0.9999493360519409,
        -0.9991204738616943
      ],
      "type": "VEC3"
    },
    {
      "bufferView": 1,
      "byteOffset": 9576,
      "componentType": 5126,
      "count": 361,
      "max": [
        0.1848461925983429,
        0.4276309609413147
      ],
      "min": [
        0.018943719565868378,
        0.2970319986343384
      ],
      "type": "VEC2"
    },
    {
      "bufferView": 0,
      "byteOffset": 10848,
      "componentType": 5125,
      "count": 1194,
      "type": "SCALAR"
    },
    {
      "bufferView": 2,
      "byteOffset": 37392,
      "componentType": 5126,
      "count": 1153,
      "max": [
        0.4253288805484772,
        1.0814265012741089,
        0.4243254065513611
      ],
      "min": [
        -0.4232029914855957,
        0.0014959073159843683,
        -0.4242064654827118
      ],
      "type": "VEC3"
    },
    {
      "bufferView": 2,
      "byteOffset": 51228,
      "componentType": 5126,
      "count": 1153,
      "max": [
        1.0,
        1.0,
        1.0
      ],
      "min": [
        -1.0,
        -0.9860911965370178,
        -1.0
      ],
      "type": "VEC3"
    },
    {
      "bufferView": 1,
      "byteOffset": 12464,
      "componentType": 5126,
      "count": 1153,
      "max": [
        0.844929575920105,
        0.4927000105381012
      ],
      "min": [
        0.31286707520484924,
        0.008912473917007446
      ],
      "type": "VEC2"
    },
    {
      "bufferView": 0,
      "byteOffset": 15624,
      "componentType": 5125,
      "count": 4452,
      "type": "SCALAR"
    },
    {
      "bufferView": 2,
      "byteOffset": 65064,
      "componentType": 5126,
      "count": 449,
      "max": [
        0.7442042231559753,
        0.8230734467506409,
        1.5144824981689453
      ],
      "min": [
        -0.7442042231559753,
        0.0,
        -1.5144824981689453
      ],
      "type": "VEC3"
    },
    {
      "bufferView": 2,
      "byteOffset": 70452,
      "componentType": 5126,
      "count": 449,
      "max": [
        1.0,
        1.0,
        1.0
      ],
      "min": [
        -1.0,
        -1.0,
        -1.0
      ],
      "type": "VEC3"
    },
    {
      "bufferView": 1,
      "byteOffset": 21688,
      "componentType": 5126,
      "count": 449,
      "max": [
        0.995262086391449,
        0.9715708494186401
      ],
      "min": [
        0.5085073709487915,
        0.1067582368850708
      ],
      "type": "VEC2"
    },
    {
      "bufferView": 0,
      "byteOffset": 33432,
      "componentType": 5125,
      "count": 1260,
      "type": "SCALAR"
    },
    {
      "bufferView": 2,
      "byteOffset": 75840,
      "componentType": 5126,
      "count": 398,
      "max": [
        1.0,
        0.8375696539878845,
        1.0
      ],
      "min": [
        -1.0,
        0.015090972185134888,
        -1.0
      ],
      "type": "VEC3"
    },
    {
      "bufferView": 2,
      "byteOffset": 80616,
      "componentType": 5126,
      "count": 398,
      "max": [
        1.0,
        1.0,
        1.0
      ],
      "min": [
        -1.0,
        -1.0,
        -1.0
      ],
      "type": "VEC3"
    },
    {
      "bufferView": 1,
      "byteOffset": 25280,
      "componentType": 5126,
      "count": 398,
      "max": [
        0.9945821762084961,
        0.41255277395248413
      ],
      "min": [
        0.5864404439926147,
        0.005564664024859667
      ],
      "type": "VEC2"
    },
    {
      "bufferView": 0,
      "byteOffset": 38472,
      "componentType": 5125,
      "count": 1152,
      "type": "SCALAR"
    },
    {
      "bufferView": 2,
      "byteOffset": 85392,
      "componentType": 5126,
      "count": 271,
      "max": [
        0.5392083525657654,
        0.7981793880462646,
        0.5392083525657654
      ],
      "min": [
        -0.5392083525657654,
        -0.035408325493335724,
        -0.5392083525657654
      ],
      "type": "VEC3"
    },
    {
      "bufferView": 2,
      "byteOffset": 88644,
      "componentType": 5126,
      "count": 271,
      "max": [
        1.0,
        1.0,
        1.0
      ],
      "min": [
        -1.0,
        -1.0,
        -1.0
      ],
      "type": "VEC3"
    },
    {
      "bufferView": 1,
      "byteOffset": 28464,
      "componentType": 5126,
      "count": 271,
      "max": [
        0.3579614460468292,
        0.30091598629951477
      ],
      "min": [
        0.008256517350673676,
        0.01418286096304655
      ],
      "type": "VEC2"
    },
    {
      "bufferView": 0,
      "byteOffset": 43080,
      "componentType": 5125,
      "count": 996,
      "type": "SCALAR"
    },
    {
      "bufferView": 2,
      "byteOffset": 91896,
      "componentType": 5126,
      "count": 265,
      "max": [
        0.28214529156684875,
        0.9475707411766052,
        0.3139447271823883
      ],
      "min": [
        -0.28214529156684875,
        0.0,
        -0.3139447271823883
      ],
      "type": "VEC3"
    },
    {
      "bufferView": 2,
      "byteOffset": 95076,
      "componentType": 5126,
      "count": 265,
      "max": [
        1.0,
        1.0,
        1.0
      ],
      "min": [
        -1.0,
        -1.0,
        -1.0
      ],
      "type": "VEC3"
    },
    {
      "bufferView": 1,
      "byteOffset": 30632,
      "componentType": 5126,
      "count": 265,
      "max": [
        0.6815099716186523,
        0.9911748766899109
      ],
      "min": [
        0.2831544578075409,
        0.4564274549484253
      ],
      "type": "VEC2"
    },
    {
      "bufferView": 0,
      "byteOffset": 47064,
      "componentType": 5125,
      "count": 996,
      "type": "SCALAR"
    },
    {
      "bufferView": 2,
      "byteOffset": 98256,
      "componentType": 5126,
      "count": 90,
      "max": [
        0.21333466470241547,
        0.09194587916135788,
        0.22431336343288422
      ],
      "min": [
        -0.21333472430706024,
        0.0,
        -0.22431336343288422
      ],
      "type": "VEC3"
    },
    {
      "bufferView": 2,
      "byteOffset": 99336,
      "componentType": 5126,
      "count": 90,
      "max": [
        0.9506306052207947,
        0.9944255352020264,
        0.9995435476303101
      ],
      "min": [
        -0.9506306052207947,
        -0.9648966789245605,
        -0.9995435476303101
      ],
      "type": "VEC3"
    },
    {
      "bufferView": 1,
      "byteOffset": 32752,
      "componentType": 5126,
      "count": 90,
      "max": [
        0.613964319229126,
        0.6579160690307617
      ],
      "min": [
        0.39145001769065857,
        0.49870622158050537
      ],
      "type": "VEC2"
    },
    {
      "bufferView": 0,
      "byteOffset": 51048,
      "componentType": 5125,
      "count": 468,
      "type": "SCALAR"
    },
    {
      "bufferView": 2,
      "byteOffset": 100416,
      "componentType": 5126,
      "count": 166,
      "max": [
        0.2558303773403168,
        0.5828312635421753,
        0.2558303773403168
      ],
      "min": [
        -0.2558303773403168,
        0.0034892114344984293,
        -0.2558303773403168
      ],
      "type": "VEC3"
    },
    {
      "bufferView": 2,
      "byteOffset": 102408,
      "componentType": 5126,
      "count": 166,
      "max": [
        1.0,
        1.0,
        1.0
      ],
      "min": [
        -1.0,
        -1.0,
        -1.0
      ],
      "type": "VEC3"
    },
    {
      "bufferView": 1,
      "byteOffset": 33472,
      "componentType": 5126,
      "count": 166,
      "max": [
        0.30730944871902466,
        0.5446879863739014
      ],
      "min": [
        0.14975231885910034,
        0.2961158752441406
      ],
      "type": "VEC2"
    },
    {
      "bufferView": 0,
      "byteOffset": 52920,
      "componentType": 5125,
      "count": 618,
      "type": "SCALAR"
    }
  ],
  "asset": {
    "extras": {
      "author": "Lucas Philippe (https://sketchfab.com/lucasphilippe)",
      "license": "CC-BY-4.0 (http://creativecommons.org/licenses/by/4.0/)",
      "source": "https://sketchfab.com/3d-models/desert-village-props-f679f690deba4af3a9ce7de4137dd1b0",
      "title": "Desert Village Props"
    },
    "generator": "Sketchfab-12.67.0",
    "version": "2.0"
  },
  "bufferViews": [
    {
      "buffer": 0,
      "byteLength": 55392,
      "name": "floatBufferViews",
      "target": 34963
    },
    {
      "buffer": 0,
      "byteLength": 34800,
      "byteOffset": 55392,
      "byteStride": 8,
      "name": "floatBufferViews",
      "target": 34962
    },
    {
      "buffer": 0,
      "byteLength": 104400,
      "byteOffset": 90192,
      "byteStride": 12,
      "name": "floatBufferViews",
      "target": 34962
    }
  ],
  "buffers": [
    {
      "byteLength": 194592,
      "uri": "scene.bin"
    }
  ],
  "images": [
    {
      "uri": "textures/material_0_baseColor.png"
    },
    {
      "uri": "textures/jarras_baseColor.png"
    },
    {
      "uri": "textures/Atlas_texture_2_baseColor.png"
    }
  ],
  "materials": [
    {
      "doubleSided": true,
      "name": "material_0",
      "pbrMetallicRoughness": {
        "baseColorTexture": {
          "index": 0
        },
        "metallicFactor": 0.0,
        "roughnessFactor": 0.6
      }
    },
    {
      "doubleSided": true,
      "name": "jarras",
      "pbrMetallicRoughness": {
        "baseColorTexture": {
          "index": 1
        }
      }
    },
    {
      "doubleSided": true,
      "name": "text_props",
      "pbrMetallicRoughness": {
        "baseColorTexture": {
          "index": 0
        }
      }
    },
    {
      "doubleSided": true,
      "name": "Atlas_texture_2",
      "pbrMetallicRoughness": {
        "baseColorTexture": {
          "index": 2
        }
      }
    }
  ],
  "meshes": [
    {
      "name": "Object_0",
      "primitives": [
        {
          "attributes": {
            "NORMAL": 1,
            "POSITION": 0,
            "TEXCOORD_0": 2
          },
          "indices": 3,
          "material": 1,
          "mode": 4
        }
      ]
    },
    {
      "name": "Object_1",
      "primitives": [
        {
          "attributes": {
            "NORMAL": 5,
            "POSITION": 4,
            "TEXCOORD_0": 6
          },
          "indices": 7,
          "material": 2,
          "mode": 4
        }
      ]
    },
    {
      "name": "Object_2",
      "primitives": [
        {
          "attributes": {
            "NORMAL": 9,
            "POSITION": 8,
            "TEXCOORD_0": 10
          },
          "indices": 11,
          "material": 2,
          "mode": 4
        }
      ]
    },
    {
      "name": "Object_3",
      "primitives": [
        {
          "attributes": {
            "NORMAL": 13,
            "POSITION": 12,
            "TEXCOORD_0": 14
          },
          "indices": 15,
          "material": 2,
          "mode": 4
        }
      ]
    },
    {
      "name": "Object_4",
      "primitives": [
        {
          "attributes": {
            "NORMAL": 17,
            "POSITION": 16,
            "TEXCOORD_0": 18
          },
          "indices": 19,
          "material": 2,
          "mode": 4
        }
      ]
    },
    {
      "name": "Object_5",
      "primitives": [
        {
          "attributes": {
            "NORMAL": 21,
            "POSITION": 20,
            "TEXCOORD_0": 22
          },
          "indices": 23,
          "material": 3,
          "mode": 4
        }
      ]
    },
    {
      "name": "Object_6",
      "primitives": [
        {
          "attributes": {
            "NORMAL": 25,
            "POSITION": 24,
            "TEXCOORD_0": 26
          },
          "indices": 27,
          "material": 2,
          "mode": 4
        }
      ]
    },
    {
      "name": "Object_7",
      "primitives": [
        {
          "attributes": {
            "NORMAL": 29,
            "POSITION": 28,
            "TEXCOORD_0": 30
          },
          "indices": 31,
          "material": 2,
          "mode": 4
        }
      ]
    },
    {
      "name": "Object_8",
      "primitives": [
        {
          "attributes": {
            "NORMAL": 33,
            "POSITION": 32,
            "TEXCOORD_0": 34
          },
          "indices": 35,
          "material": 2,
          "mode": 4
        }
      ]
    },
    {
      "name": "Object_9",
      "primitives": [
        {
          "attributes": {
            "NORMAL": 37,
            "POSITION": 36,
            "TEXCOORD_0": 38
          },
          "indices": 39,
          "material": 0,
          "mode": 4
        }
      ]
    }
  ],
  "nodes": [
    {
      "children": [
        1
      ],
      "matrix": [
        1.0,
        0.0,
        0.0,
        0.0,
        0.0,
        2.220446049250313e-16,
        -1.0,
        0.0,
        0.0,
        1.0,
        2.220446049250313e-16,
        0.0,
        0.0,
        0.0,
        0.0,
        1.0
      ],
      "name": "Sketchfab_model"
    },
    {
      "children": [
        2
      ],
      "name": "root"
    },
    {
      "children": [
        3,
        5,
        7,
        9,
        11,
        13,
        15,
        17,
        19,
        21
      ],
      "matrix": [
        1.0,
        0.0,
        0.0,
        0.0,
        0.0,
        2.220446049250313e-16,
        1.0,
        0.0,
        0.0,
        -1.0,
        2.220446049250313e-16,
        0.0,
        0.0,
        0.0,
        0.0,
        1.0
      ],
      "name": "GLTF_SceneRootNode"
    },
    {
      "children": [
        4
      ],
      "matrix": [
        1.0,
        0.0,
        0.0,
        0.0,
        0.0,
        1.0,
        0.0,
        0.0,
        0.0,
        0.0,
        1.0,
        0.0,
        4.0,
        0.0,
        2.5,
        1.0
      ],
      "name": "jarra3_0"
    },
    {
      "mesh": 0,
      "name": "Object_4"
    },
    {
      "children": [
        6
      ],
      "matrix": [
        1.0,
        0.0,
        0.0,
        0.0,
        0.0,
        1.0,
        0.0,
        0.0,
        0.0,
        0.0,
        1.0,
        0.0,
        2.5,
        0.0,
        0.0,
        1.0
      ],
      "name": "cama_1"
    },
    {
      "mesh": 1,
      "name": "Object_6"
    },
    {
      "children": [
        8
      ],
      "matrix": [
        1.0,
        0.0,
        0.0,
        0.0,
        0.0,
        1.0,
        0.0,
        0.0,
        0.0,
        0.0,
        1.0,
        0.0,
        1.0,
        0.0,
        0.0,
        1.0
      ],
      "name": "bule_2"
    },
    {
      "mesh": 2,
      "name": "Object_8"
    },
    {
      "children": [
        10
      ],
      "matrix": [
        1.0,
        0.0,
        0.0,
        0.0,
        0.0,
        1.0,
        0.0,
        0.0,
        0.0,
        0.0,
        1.0,
        0.0,
        -1.5,
        0.0,
        0.0,
        1.0
      ],
      "name": "narguile_3"
    },
    {
      "mesh": 3,
      "name": "Object_10"
    },
    {
      "children": [
        12
      ],
      "matrix": [
        1.0,
        0.0,
        0.0,
        0.0,
        0.0,
        1.0,
        0.0,
        0.0,
        0.0,
        0.0,
        1.0,
        0.0,
        4.5,
        0.0,
        0.0,
        1.0
      ],
      "name": "mesa_4"
    },
    {
      "mesh": 4,
      "name": "Object_12"
    },
    {
      "children": [
        14
      ],
      "matrix": [
        1.0,
        0.0,
        0.0,
        0.0,
        0.0,
        1.0,
        0.0,
        0.0,
        0.0,
        0.0,
        1.0,
        0.0,
        -2.0,
        0.0,
        2.5,
        1.0
      ],
      "name": "fogueira_5"
    },
    {
      "mesh": 5,
      "name": "Object_14"
    },
    {
      "children": [
        16
      ],
      "name": "Caldeirao_6"
    },
    {
      "mesh": 6,
      "name": "Object_16"
    },
    {
      "children": [
        18
      ],
      "matrix": [
        1.0,
        0.0,
        0.0,
        0.0,
        0.0,
        1.0,
        0.0,
        0.0,
        0.0,
        0.0,
        1.0,
        0.0,
        3.0,
        0.0,
        2.5,
        1.0
      ],
      "name": "jarra2_7"
    },
    {
      "mesh": 7,
      "name": "Object_18"
    },
    {
      "children": [
        20
      ],
      "matrix": [
        1.0,
        0.0,
        0.0,
        0.0,
        0.0,
        1.0,
        0.0,
        0.0,
        0.0,
        0.0,
        1.0,
        0.0,
        0.0,
        0.0,
        2.5,
        1.0
      ],
      "name": "prato_8"
    },
    {
      "mesh": 8,
      "name": "Object_20"
    },
    {
      "children": [
        22
      ],
      "matrix": [
        1.0,
        0.0,
        0.0,
        0.0,
        0.0,
        1.0,
        0.0,
        0.0,
        0.0,
        0.0,
        1.0,
        0.0,
        2.0,
        0.0,
        2.5,
        1.0
      ],
      "name": "jarra_9"
    },
    {
      "mesh": 9,
      "name": "Object_22"
    }
  ],
  "samplers": [
    {
      "magFilter": 9729,
      "minFilter": 9987,
      "wrapS": 10497,
      "wrapT": 10497
    }
  ],
  "scene": 0,
  "scenes": [
    {
      "name": "Sketchfab_Scene",
      "nodes": [
        0
      ]
    }
  ],
  "textures": [
    {
      "sampler": 0,
      "source": 0
    },
    {
      "sampler": 0,
      "source": 1
    },
    {
      "sampler": 0,
      "source": 2
    }
  ]
}
