{"accessors":[{"bufferView":0,"byteOffset":0,"componentType":5123,"count":1782,"type":"SCALAR"},{"bufferView":1,"byteOffset":0,"componentType":5126,"count":453,"max":[0.013084408827126,0.00413786061108112,0.00163417286239564],"min":[-0.0008623576141,-0.01605553366244,-0.00208831601776],"type":"VEC3"},{"bufferView":2,"byteOffset":0,"componentType":5126,"count":453,"type":"VEC3"},{"bufferView":3,"byteOffset":0,"componentType":5126,"count":453,"type":"VEC2"}],"asset":{"generator":"FBX2glTF v0.13.0","version":"2.0"},"bufferViews":[{"buffer":0,"byteLength":3564,"byteOffset":0,"target":34963},{"buffer":0,"byteLength":5436,"byteOffset":3564,"target":34962},{"buffer":0,"byteLength":5436,"byteOffset":9000,"target":34962},{"buffer":0,"byteLength":3624,"byteOffset":14436,"target":34962}],"buffers":[{"byteLength":18060,"uri":"rpgpp_av_door_04a.bin"}],"images":[{"name":"rpgpp_av_tex_a","uri":"../../Textures/rpgpp_av_tex_a.png"}],"materials":[{"alphaMode":"OPAQUE","doubleSided":false,"extras":{"fromFBX":{"isTruePBR":false,"shadingModel":"Phong"}},"name":"rpgpp_av_mat_a","pbrMetallicRoughness":{"baseColorFactor":[1,1,1,1],"baseColorTexture":{"index":0,"texCoord":0},"metallicFactor":0.400000005960464,"roughnessFactor":0.284101665019989}}],"meshes":[{"name":"rpgpp_av_door_04a","primitives":[{"attributes":{"NORMAL":2,"POSITION":1,"TEXCOORD_0":3},"indices":0,"material":0,"mode":4}]}],"nodes":[{"mesh":0,"name":"rpgpp_av_door_04a","rotation":[0,0,0,1],"scale":[1,1,1],"translation":[-0.00680492073298,0.0213716588914394,-0.00286441924982]}],"samplers":[{}],"scene":0,"scenes":[{"name":"Root Scene","nodes":[0]}],"textures":[{"name":"base_color_texture","sampler":0,"source":0}]}