{"accessors":[{"bufferView":0,"byteOffset":0,"componentType":5123,"count":16692,"type":"SCALAR"},{"bufferView":1,"byteOffset":0,"componentType":5126,"count":4385,"max":[0.0565645694732666,0.0533608011901379,0.0738343894481659],"min":[-0.05780924484134,-0.00305124209262,-0.00000927544625],"type":"VEC3"},{"bufferView":2,"byteOffset":0,"componentType":5126,"count":4385,"type":"VEC3"},{"bufferView":3,"byteOffset":0,"componentType":5126,"count":4385,"type":"VEC2"}],"asset":{"generator":"FBX2glTF v0.13.0","version":"2.0"},"bufferViews":[{"buffer":0,"byteLength":33384,"byteOffset":0,"target":34963},{"buffer":0,"byteLength":52620,"byteOffset":33384,"target":34962},{"buffer":0,"byteLength":52620,"byteOffset":86004,"target":34962},{"buffer":0,"byteLength":35080,"byteOffset":138624,"target":34962}],"buffers":[{"byteLength":173704,"uri":"rpgpp_av_roof_01_9x4x3_end_02.bin"}],"images":[{"name":"rpgpp_av_tex_a","uri":"../../Textures/rpgpp_av_tex_a.png"}],"materials":[{"alphaMode":"OPAQUE","doubleSided":false,"extras":{"fromFBX":{"isTruePBR":false,"shadingModel":"Phong"}},"name":"rpgpp_av_mat_a","pbrMetallicRoughness":{"baseColorFactor":[1,1,1,1],"baseColorTexture":{"index":0,"texCoord":0},"metallicFactor":0.400000005960464,"roughnessFactor":0.284101665019989}}],"meshes":[{"name":"rpgpp_av_roof_01_9x4x3_end_02","primitives":[{"attributes":{"NORMAL":2,"POSITION":1,"TEXCOORD_0":3},"indices":0,"material":0,"mode":4}]}],"nodes":[{"mesh":0,"name":"rpgpp_av_roof_01_9x4x3_end_02","rotation":[0,0,0,1],"scale":[1,1,1],"translation":[0,0,0]}],"samplers":[{}],"scene":0,"scenes":[{"name":"Root Scene","nodes":[0]}],"textures":[{"name":"base_color_texture","sampler":0,"source":0}]}