{"accessors":[{"bufferView":0,"byteOffset":0,"componentType":5123,"count":2646,"type":"SCALAR"},{"bufferView":1,"byteOffset":0,"componentType":5126,"count":1836,"max":[0.0215032193809748,0.0614417158067226,0.0143308369442821],"min":[-0.02329362556338,-0.00002282619425,-0.01386823039502],"type":"VEC3"},{"bufferView":2,"byteOffset":0,"componentType":5126,"count":1836,"type":"VEC3"},{"bufferView":3,"byteOffset":0,"componentType":5126,"count":1836,"type":"VEC2"}],"asset":{"generator":"FBX2glTF v0.13.0","version":"2.0"},"bufferViews":[{"buffer":0,"byteLength":5292,"byteOffset":0,"target":34963},{"buffer":0,"byteLength":22032,"byteOffset":5292,"target":34962},{"buffer":0,"byteLength":22032,"byteOffset":27324,"target":34962},{"buffer":0,"byteLength":14688,"byteOffset":49356,"target":34962}],"buffers":[{"byteLength":64044,"uri":"rpgpp_av_water_platform_01c.bin"}],"images":[{"name":"rpgpp_ag_tex_a","uri":"rpgpp_ag_tex_a.png"}],"materials":[{"alphaMode":"OPAQUE","doubleSided":false,"extras":{"fromFBX":{"isTruePBR":false,"shadingModel":"Phong"}},"name":"rpgpp_st_mat_a","pbrMetallicRoughness":{"baseColorFactor":[1,1,1,1],"baseColorTexture":{"index":0,"texCoord":0},"metallicFactor":0.400000005960464,"roughnessFactor":0.284101665019989}}],"meshes":[{"name":"rpgpp_av_water_platform_01c","primitives":[{"attributes":{"NORMAL":2,"POSITION":1,"TEXCOORD_0":3},"indices":0,"material":0,"mode":4}]}],"nodes":[{"mesh":0,"name":"rpgpp_av_water_platform_01c","rotation":[0,0,0,1],"scale":[1,1,1],"translation":[0,0,0]}],"samplers":[{}],"scene":0,"scenes":[{"name":"Root Scene","nodes":[0]}],"textures":[{"name":"base_color_texture","sampler":0,"source":0}]}