{"accessors":[{"bufferView":0,"byteOffset":0,"componentType":5123,"count":1413,"type":"SCALAR"},{"bufferView":1,"byteOffset":0,"componentType":5126,"count":296,"max":[0.0132181737571955,0.0166622530668974,0.00109624862670898],"min":[-0.0008623576141,-0.00683120219037,-0.00169955252204],"type":"VEC3"},{"bufferView":2,"byteOffset":0,"componentType":5126,"count":296,"type":"VEC3"},{"bufferView":3,"byteOffset":0,"componentType":5126,"count":296,"type":"VEC2"}],"asset":{"generator":"FBX2glTF v0.13.0","version":"2.0"},"bufferViews":[{"buffer":0,"byteLength":2826,"byteOffset":0,"target":34963},{"buffer":0,"byteLength":3552,"byteOffset":2828,"target":34962},{"buffer":0,"byteLength":3552,"byteOffset":6380,"target":34962},{"buffer":0,"byteLength":2368,"byteOffset":9932,"target":34962}],"buffers":[{"byteLength":12300,"uri":"rpgpp_av_door_02a.bin"}],"images":[{"name":"rpgpp_av_tex_a","uri":"../../Textures/rpgpp_av_tex_a.png"}],"materials":[{"alphaMode":"OPAQUE","doubleSided":false,"extras":{"fromFBX":{"isTruePBR":false,"shadingModel":"Phong"}},"name":"rpgpp_av_mat_a","pbrMetallicRoughness":{"baseColorFactor":[1,1,1,1],"baseColorTexture":{"index":0,"texCoord":0},"metallicFactor":0.400000005960464,"roughnessFactor":0.284101665019989}}],"meshes":[{"name":"rpgpp_av_door_02a","primitives":[{"attributes":{"NORMAL":2,"POSITION":1,"TEXCOORD_0":3},"indices":0,"material":0,"mode":4}]}],"nodes":[{"mesh":0,"name":"rpgpp_av_door_02a","rotation":[0,0,0,1],"scale":[1,1,1],"translation":[-0.00638087326661,0.00832329224795103,-0.00293786777183]}],"samplers":[{}],"scene":0,"scenes":[{"name":"Root Scene","nodes":[0]}],"textures":[{"name":"base_color_texture","sampler":0,"source":0}]}