{"accessors":[{"bufferView":0,"byteOffset":0,"componentType":5123,"count":9585,"type":"SCALAR"},{"bufferView":1,"byteOffset":0,"componentType":5126,"count":2501,"max":[0.0415181443095207,0.0544481463730335,0.0439169108867645],"min":[-0.04230094701052,-0.00382156553678,0],"type":"VEC3"},{"bufferView":2,"byteOffset":0,"componentType":5126,"count":2501,"type":"VEC3"},{"bufferView":3,"byteOffset":0,"componentType":5126,"count":2501,"type":"VEC2"}],"asset":{"generator":"FBX2glTF v0.13.0","version":"2.0"},"bufferViews":[{"buffer":0,"byteLength":19170,"byteOffset":0,"target":34963},{"buffer":0,"byteLength":30012,"byteOffset":19172,"target":34962},{"buffer":0,"byteLength":30012,"byteOffset":49184,"target":34962},{"buffer":0,"byteLength":20008,"byteOffset":79196,"target":34962}],"buffers":[{"byteLength":99204,"uri":"rpgpp_av_roof_01_6x5x3_end_02.bin"}],"images":[{"name":"rpgpp_av_tex_a","uri":"../../Textures/rpgpp_av_tex_a.png"}],"materials":[{"alphaMode":"OPAQUE","doubleSided":false,"extras":{"fromFBX":{"isTruePBR":false,"shadingModel":"Phong"}},"name":"rpgpp_av_mat_a","pbrMetallicRoughness":{"baseColorFactor":[1,1,1,1],"baseColorTexture":{"index":0,"texCoord":0},"metallicFactor":0.400000005960464,"roughnessFactor":0.284101665019989}}],"meshes":[{"name":"rpgpp_av_roof_01_6x5x3_end_02","primitives":[{"attributes":{"NORMAL":2,"POSITION":1,"TEXCOORD_0":3},"indices":0,"material":0,"mode":4}]}],"nodes":[{"mesh":0,"name":"rpgpp_av_roof_01_6x5x3_end_02","rotation":[0,0,0,1],"scale":[1,1,1],"translation":[0,0,0]}],"samplers":[{}],"scene":0,"scenes":[{"name":"Root Scene","nodes":[0]}],"textures":[{"name":"base_color_texture","sampler":0,"source":0}]}