{"accessors":[{"bufferView":0,"byteOffset":0,"componentType":5123,"count":2526,"type":"SCALAR"},{"bufferView":1,"byteOffset":0,"componentType":5126,"count":701,"max":[0.0366727523505688,0.050357062369585,0.00202980916947126],"min":[-0.02777552045882,0.00156681414227933,-0.02979937195778],"type":"VEC3"},{"bufferView":2,"byteOffset":0,"componentType":5126,"count":701,"type":"VEC3"},{"bufferView":3,"byteOffset":0,"componentType":5126,"count":701,"type":"VEC2"}],"asset":{"generator":"FBX2glTF v0.13.0","version":"2.0"},"bufferViews":[{"buffer":0,"byteLength":5052,"byteOffset":0,"target":34963},{"buffer":0,"byteLength":8412,"byteOffset":5052,"target":34962},{"buffer":0,"byteLength":8412,"byteOffset":13464,"target":34962},{"buffer":0,"byteLength":5608,"byteOffset":21876,"target":34962}],"buffers":[{"byteLength":27484,"uri":"rpgpp_av_stairs_interior_01a_4m_handrail_01.bin"}],"images":[{"name":"rpgpp_av_tex_a","uri":"../../Textures/rpgpp_av_tex_a.png"}],"materials":[{"alphaMode":"OPAQUE","doubleSided":false,"extras":{"fromFBX":{"isTruePBR":false,"shadingModel":"Phong"}},"name":"rpgpp_av_mat_a","pbrMetallicRoughness":{"baseColorFactor":[1,1,1,1],"baseColorTexture":{"index":0,"texCoord":0},"metallicFactor":0.400000005960464,"roughnessFactor":0.284101665019989}}],"meshes":[{"name":"rpgpp_av_stairs_interior_01a_4m_handrail_01","primitives":[{"attributes":{"NORMAL":2,"POSITION":1,"TEXCOORD_0":3},"indices":0,"material":0,"mode":4}]}],"nodes":[{"mesh":0,"name":"rpgpp_av_stairs_interior_01a_4m_handrail_01","rotation":[0,0,0,1],"scale":[1,1,1],"translation":[0,0,0]}],"samplers":[{}],"scene":0,"scenes":[{"name":"Root Scene","nodes":[0]}],"textures":[{"name":"base_color_texture","sampler":0,"source":0}]}