{"accessors":[{"bufferView":0,"byteOffset":0,"componentType":5123,"count":441,"type":"SCALAR"},{"bufferView":1,"byteOffset":0,"componentType":5126,"count":85,"max":[0.0113534517586231,0.0399496369063854,0.00283435429446399],"min":[-0.01313208043575,0.0000139617914101109,-0.00285734119825],"type":"VEC3"},{"bufferView":2,"byteOffset":0,"componentType":5126,"count":85,"type":"VEC3"},{"bufferView":3,"byteOffset":0,"componentType":5126,"count":85,"type":"VEC2"}],"asset":{"generator":"FBX2glTF v0.13.0","version":"2.0"},"bufferViews":[{"buffer":0,"byteLength":882,"byteOffset":0,"target":34963},{"buffer":0,"byteLength":1020,"byteOffset":884,"target":34962},{"buffer":0,"byteLength":1020,"byteOffset":1904,"target":34962},{"buffer":0,"byteLength":680,"byteOffset":2924,"target":34962}],"buffers":[{"byteLength":3604,"uri":"rpgpp_av_roof_end_01_6x5_wall_beam_a.bin"}],"images":[{"name":"rpgpp_av_tex_a","uri":"../../Textures/rpgpp_av_tex_a.png"}],"materials":[{"alphaMode":"OPAQUE","doubleSided":false,"extras":{"fromFBX":{"isTruePBR":false,"shadingModel":"Phong"}},"name":"rpgpp_av_mat_a","pbrMetallicRoughness":{"baseColorFactor":[1,1,1,1],"baseColorTexture":{"index":0,"texCoord":0},"metallicFactor":0.400000005960464,"roughnessFactor":0.284101665019989}}],"meshes":[{"name":"rpgpp_av_roof_end_01_6x5_wall_beam_a","primitives":[{"attributes":{"NORMAL":2,"POSITION":1,"TEXCOORD_0":3},"indices":0,"material":0,"mode":4}]}],"nodes":[{"mesh":0,"name":"rpgpp_av_roof_end_01_6x5_wall_beam_a","rotation":[0,0,0,1],"scale":[1,1,1],"translation":[0,0,0]}],"samplers":[{}],"scene":0,"scenes":[{"name":"Root Scene","nodes":[0]}],"textures":[{"name":"base_color_texture","sampler":0,"source":0}]}