{"accessors":[{"bufferView":0,"byteOffset":0,"componentType":5123,"count":2688,"type":"SCALAR"},{"bufferView":1,"byteOffset":0,"componentType":5126,"count":676,"max":[0.0483232550323009,0.0423618704080582,0.00231316313147545],"min":[-0.04839710518718,0.0000109678503577015,-0.00231316359714],"type":"VEC3"},{"bufferView":2,"byteOffset":0,"componentType":5126,"count":676,"type":"VEC3"},{"bufferView":3,"byteOffset":0,"componentType":5126,"count":676,"type":"VEC2"}],"asset":{"generator":"FBX2glTF v0.13.0","version":"2.0"},"bufferViews":[{"buffer":0,"byteLength":5376,"byteOffset":0,"target":34963},{"buffer":0,"byteLength":8112,"byteOffset":5376,"target":34962},{"buffer":0,"byteLength":8112,"byteOffset":13488,"target":34962},{"buffer":0,"byteLength":5408,"byteOffset":21600,"target":34962}],"buffers":[{"byteLength":27008,"uri":"rpgpp_av_roof_end_01_9x4_wall_window_03b.bin"}],"images":[{"name":"rpgpp_av_tex_a","uri":"../../Textures/rpgpp_av_tex_a.png"}],"materials":[{"alphaMode":"OPAQUE","doubleSided":false,"extras":{"fromFBX":{"isTruePBR":false,"shadingModel":"Phong"}},"name":"rpgpp_av_mat_a","pbrMetallicRoughness":{"baseColorFactor":[1,1,1,1],"baseColorTexture":{"index":0,"texCoord":0},"metallicFactor":0.400000005960464,"roughnessFactor":0.284101665019989}}],"meshes":[{"name":"rpgpp_av_roof_end_01_9x4_wall_window_03b","primitives":[{"attributes":{"NORMAL":2,"POSITION":1,"TEXCOORD_0":3},"indices":0,"material":0,"mode":4}]}],"nodes":[{"mesh":0,"name":"rpgpp_av_roof_end_01_9x4_wall_window_03b","rotation":[0,0,0,1],"scale":[1,1,1],"translation":[0,0,0]}],"samplers":[{}],"scene":0,"scenes":[{"name":"Root Scene","nodes":[0]}],"textures":[{"name":"base_color_texture","sampler":0,"source":0}]}