{"accessors":[{"bufferView":0,"byteOffset":0,"componentType":5123,"count":1560,"type":"SCALAR"},{"bufferView":1,"byteOffset":0,"componentType":5126,"count":421,"max":[0.0114691620692611,0.0299999993294477,0.00344913545995951],"min":[-0.01500000245869,-0.00000000596046,-0.00343764037825],"type":"VEC3"},{"bufferView":2,"byteOffset":0,"componentType":5126,"count":421,"type":"VEC3"},{"bufferView":3,"byteOffset":0,"componentType":5126,"count":421,"type":"VEC2"}],"asset":{"generator":"FBX2glTF v0.13.0","version":"2.0"},"bufferViews":[{"buffer":0,"byteLength":3120,"byteOffset":0,"target":34963},{"buffer":0,"byteLength":5052,"byteOffset":3120,"target":34962},{"buffer":0,"byteLength":5052,"byteOffset":8172,"target":34962},{"buffer":0,"byteLength":3368,"byteOffset":13224,"target":34962}],"buffers":[{"byteLength":16592,"uri":"rpgpp_av_wall_03_3x3_f.bin"}],"images":[{"name":"rpgpp_av_tex_a","uri":"../../Textures/rpgpp_av_tex_a.png"}],"materials":[{"alphaMode":"OPAQUE","doubleSided":false,"extras":{"fromFBX":{"isTruePBR":false,"shadingModel":"Phong"}},"name":"rpgpp_av_mat_a","pbrMetallicRoughness":{"baseColorFactor":[1,1,1,1],"baseColorTexture":{"index":0,"texCoord":0},"metallicFactor":0.400000005960464,"roughnessFactor":0.284101665019989}}],"meshes":[{"name":"rpgpp_av_wall_03_3x3_f","primitives":[{"attributes":{"NORMAL":2,"POSITION":1,"TEXCOORD_0":3},"indices":0,"material":0,"mode":4}]}],"nodes":[{"mesh":0,"name":"rpgpp_av_wall_03_3x3_f","rotation":[0,0,0,1],"scale":[1,1,1],"translation":[0,0,-0.00000000001769]}],"samplers":[{}],"scene":0,"scenes":[{"name":"Root Scene","nodes":[0]}],"textures":[{"name":"base_color_texture","sampler":0,"source":0}]}