{"accessors":[{"bufferView":0,"byteOffset":0,"componentType":5123,"count":1410,"type":"SCALAR"},{"bufferView":1,"byteOffset":0,"componentType":5126,"count":388,"max":[0.0500122159719467,0.0449687317013741,0.000000000204783523471974],"min":[-0.04977818205953,-0.00276403594762,-0.02739915065467],"type":"VEC3"},{"bufferView":2,"byteOffset":0,"componentType":5126,"count":388,"type":"VEC3"},{"bufferView":3,"byteOffset":0,"componentType":5126,"count":388,"type":"VEC2"}],"asset":{"generator":"FBX2glTF v0.13.0","version":"2.0"},"bufferViews":[{"buffer":0,"byteLength":2820,"byteOffset":0,"target":34963},{"buffer":0,"byteLength":4656,"byteOffset":2820,"target":34962},{"buffer":0,"byteLength":4656,"byteOffset":7476,"target":34962},{"buffer":0,"byteLength":3104,"byteOffset":12132,"target":34962}],"buffers":[{"byteLength":15236,"uri":"rpgpp_av_roof_support_01_9x4x3_b.bin"}],"images":[{"name":"rpgpp_av_tex_a","uri":"../../Textures/rpgpp_av_tex_a.png"}],"materials":[{"alphaMode":"OPAQUE","doubleSided":false,"extras":{"fromFBX":{"isTruePBR":false,"shadingModel":"Phong"}},"name":"rpgpp_av_mat_a","pbrMetallicRoughness":{"baseColorFactor":[1,1,1,1],"baseColorTexture":{"index":0,"texCoord":0},"metallicFactor":0.400000005960464,"roughnessFactor":0.284101665019989}}],"meshes":[{"name":"rpgpp_av_roof_support_01_9x4x3_b","primitives":[{"attributes":{"NORMAL":2,"POSITION":1,"TEXCOORD_0":3},"indices":0,"material":0,"mode":4}]}],"nodes":[{"mesh":0,"name":"rpgpp_av_roof_support_01_9x4x3_b","rotation":[0,0,0,1],"scale":[1,1,1],"translation":[0,0,0]}],"samplers":[{}],"scene":0,"scenes":[{"name":"Root Scene","nodes":[0]}],"textures":[{"name":"base_color_texture","sampler":0,"source":0}]}