{"accessors":[{"bufferView":0,"byteOffset":0,"componentType":5123,"count":2619,"type":"SCALAR"},{"bufferView":1,"byteOffset":0,"componentType":5126,"count":669,"max":[0.0489822141826153,0.0466561876237392,0.0149999996647239],"min":[-0.01503297872841,-0.00276403594762,-0.05077521130443],"type":"VEC3"},{"bufferView":2,"byteOffset":0,"componentType":5126,"count":669,"type":"VEC3"},{"bufferView":3,"byteOffset":0,"componentType":5126,"count":669,"type":"VEC2"}],"asset":{"generator":"FBX2glTF v0.13.0","version":"2.0"},"bufferViews":[{"buffer":0,"byteLength":5238,"byteOffset":0,"target":34963},{"buffer":0,"byteLength":8028,"byteOffset":5240,"target":34962},{"buffer":0,"byteLength":8028,"byteOffset":13268,"target":34962},{"buffer":0,"byteLength":5352,"byteOffset":21296,"target":34962}],"buffers":[{"byteLength":26648,"uri":"rpgpp_av_roof_support_01_9x4x3_corner_02a.bin"}],"images":[{"name":"rpgpp_av_tex_a","uri":"../../Textures/rpgpp_av_tex_a.png"}],"materials":[{"alphaMode":"OPAQUE","doubleSided":false,"extras":{"fromFBX":{"isTruePBR":false,"shadingModel":"Phong"}},"name":"rpgpp_av_mat_a","pbrMetallicRoughness":{"baseColorFactor":[1,1,1,1],"baseColorTexture":{"index":0,"texCoord":0},"metallicFactor":0.400000005960464,"roughnessFactor":0.284101665019989}}],"meshes":[{"name":"rpgpp_av_roof_support_01_9x4x3_corner_02a","primitives":[{"attributes":{"NORMAL":2,"POSITION":1,"TEXCOORD_0":3},"indices":0,"material":0,"mode":4}]}],"nodes":[{"mesh":0,"name":"rpgpp_av_roof_support_01_9x4x3_corner_02a","rotation":[0,0,0,1],"scale":[1,1,1],"translation":[0,0,0]}],"samplers":[{}],"scene":0,"scenes":[{"name":"Root Scene","nodes":[0]}],"textures":[{"name":"base_color_texture","sampler":0,"source":0}]}