{"accessors":[{"bufferView":0,"byteOffset":0,"componentType":5123,"count":720,"type":"SCALAR"},{"bufferView":1,"byteOffset":0,"componentType":5126,"count":234,"max":[0.0150000052526593,0.0300028827041388,0.00365075701847672],"min":[-0.01499999966472,-0.0001843245991,-0.00414797011763],"type":"VEC3"},{"bufferView":2,"byteOffset":0,"componentType":5126,"count":234,"type":"VEC3"},{"bufferView":3,"byteOffset":0,"componentType":5126,"count":234,"type":"VEC2"}],"asset":{"generator":"FBX2glTF v0.13.0","version":"2.0"},"bufferViews":[{"buffer":0,"byteLength":1440,"byteOffset":0,"target":34963},{"buffer":0,"byteLength":2808,"byteOffset":1440,"target":34962},{"buffer":0,"byteLength":2808,"byteOffset":4248,"target":34962},{"buffer":0,"byteLength":1872,"byteOffset":7056,"target":34962}],"buffers":[{"byteLength":8928,"uri":"rpgpp_av_wall_02_3x3_e.bin"}],"images":[{"name":"rpgpp_av_tex_a","uri":"../../Textures/rpgpp_av_tex_a.png"}],"materials":[{"alphaMode":"OPAQUE","doubleSided":false,"extras":{"fromFBX":{"isTruePBR":false,"shadingModel":"Phong"}},"name":"rpgpp_av_mat_a","pbrMetallicRoughness":{"baseColorFactor":[1,1,1,1],"baseColorTexture":{"index":0,"texCoord":0},"metallicFactor":0.400000005960464,"roughnessFactor":0.284101665019989}}],"meshes":[{"name":"rpgpp_av_wall_02_3x3_e","primitives":[{"attributes":{"NORMAL":2,"POSITION":1,"TEXCOORD_0":3},"indices":0,"material":0,"mode":4}]}],"nodes":[{"mesh":0,"name":"rpgpp_av_wall_02_3x3_e","rotation":[0,0,0,1],"scale":[1,1,1],"translation":[0,0,0]}],"samplers":[{}],"scene":0,"scenes":[{"name":"Root Scene","nodes":[0]}],"textures":[{"name":"base_color_texture","sampler":0,"source":0}]}