{"accessors":[{"bufferView":0,"byteOffset":0,"componentType":5123,"count":2178,"type":"SCALAR"},{"bufferView":1,"byteOffset":0,"componentType":5126,"count":601,"max":[0.0075502167455852,0.038395456969738,0.0129541885107756],"min":[-0.03717737272382,0.00189483189024031,-0.02978689409792],"type":"VEC3"},{"bufferView":2,"byteOffset":0,"componentType":5126,"count":601,"type":"VEC3"},{"bufferView":3,"byteOffset":0,"componentType":5126,"count":601,"type":"VEC2"}],"asset":{"generator":"FBX2glTF v0.13.0","version":"2.0"},"bufferViews":[{"buffer":0,"byteLength":4356,"byteOffset":0,"target":34963},{"buffer":0,"byteLength":7212,"byteOffset":4356,"target":34962},{"buffer":0,"byteLength":7212,"byteOffset":11568,"target":34962},{"buffer":0,"byteLength":4808,"byteOffset":18780,"target":34962}],"buffers":[{"byteLength":23588,"uri":"rpgpp_av_stairs_interior_01c_3m_handrail_01.bin"}],"images":[{"name":"rpgpp_av_tex_a","uri":"../../Textures/rpgpp_av_tex_a.png"}],"materials":[{"alphaMode":"OPAQUE","doubleSided":false,"extras":{"fromFBX":{"isTruePBR":false,"shadingModel":"Phong"}},"name":"rpgpp_av_mat_a","pbrMetallicRoughness":{"baseColorFactor":[1,1,1,1],"baseColorTexture":{"index":0,"texCoord":0},"metallicFactor":0.400000005960464,"roughnessFactor":0.284101665019989}}],"meshes":[{"name":"rpgpp_av_stairs_interior_01c_3m_handrail_01","primitives":[{"attributes":{"NORMAL":2,"POSITION":1,"TEXCOORD_0":3},"indices":0,"material":0,"mode":4}]}],"nodes":[{"mesh":0,"name":"rpgpp_av_stairs_interior_01c_3m_handrail_01","rotation":[0,0,0,1],"scale":[1,1,1],"translation":[0,0,0]}],"samplers":[{}],"scene":0,"scenes":[{"name":"Root Scene","nodes":[0]}],"textures":[{"name":"base_color_texture","sampler":0,"source":0}]}