{"accessors":[{"bufferView":0,"byteOffset":0,"componentType":5123,"count":1794,"type":"SCALAR"},{"bufferView":1,"byteOffset":0,"componentType":5126,"count":452,"max":[0.0347121953964233,0.0499687343835831,0.00073737278580665],"min":[-0.03507819771767,-0.00376403494738,-0.02781215310097],"type":"VEC3"},{"bufferView":2,"byteOffset":0,"componentType":5126,"count":452,"type":"VEC3"},{"bufferView":3,"byteOffset":0,"componentType":5126,"count":452,"type":"VEC2"}],"asset":{"generator":"FBX2glTF v0.13.0","version":"2.0"},"bufferViews":[{"buffer":0,"byteLength":3588,"byteOffset":0,"target":34963},{"buffer":0,"byteLength":5424,"byteOffset":3588,"target":34962},{"buffer":0,"byteLength":5424,"byteOffset":9012,"target":34962},{"buffer":0,"byteLength":3616,"byteOffset":14436,"target":34962}],"buffers":[{"byteLength":18052,"uri":"rpgpp_av_roof_support_01_6x5x3_b.bin"}],"images":[{"name":"rpgpp_av_tex_a","uri":"../../Textures/rpgpp_av_tex_a.png"}],"materials":[{"alphaMode":"OPAQUE","doubleSided":false,"extras":{"fromFBX":{"isTruePBR":false,"shadingModel":"Phong"}},"name":"rpgpp_av_mat_a","pbrMetallicRoughness":{"baseColorFactor":[1,1,1,1],"baseColorTexture":{"index":0,"texCoord":0},"metallicFactor":0.400000005960464,"roughnessFactor":0.284101665019989}}],"meshes":[{"name":"rpgpp_av_roof_support_01_6x5x3_b","primitives":[{"attributes":{"NORMAL":2,"POSITION":1,"TEXCOORD_0":3},"indices":0,"material":0,"mode":4}]}],"nodes":[{"mesh":0,"name":"rpgpp_av_roof_support_01_6x5x3_b","rotation":[0,0,0,1],"scale":[1,1,1],"translation":[0,0,0]}],"samplers":[{}],"scene":0,"scenes":[{"name":"Root Scene","nodes":[0]}],"textures":[{"name":"base_color_texture","sampler":0,"source":0}]}