{"accessors":[{"bufferView":0,"byteOffset":0,"componentType":5123,"count":1692,"type":"SCALAR"},{"bufferView":1,"byteOffset":0,"componentType":5126,"count":367,"max":[0.0525382496416569,0.0490024983882904,0.00000323075232699921],"min":[-0.05510092526674,-0.00056627637241,-0.03000160120428],"type":"VEC3"},{"bufferView":2,"byteOffset":0,"componentType":5126,"count":367,"type":"VEC3"},{"bufferView":3,"byteOffset":0,"componentType":5126,"count":367,"type":"VEC2"}],"asset":{"generator":"FBX2glTF v0.13.0","version":"2.0"},"bufferViews":[{"buffer":0,"byteLength":3384,"byteOffset":0,"target":34963},{"buffer":0,"byteLength":4404,"byteOffset":3384,"target":34962},{"buffer":0,"byteLength":4404,"byteOffset":7788,"target":34962},{"buffer":0,"byteLength":2936,"byteOffset":12192,"target":34962}],"buffers":[{"byteLength":15128,"uri":"rpgpp_av_roof_02_9x4x3_c.bin"}],"images":[{"name":"rpgpp_av_tex_a","uri":"../../Textures/rpgpp_av_tex_a.png"}],"materials":[{"alphaMode":"OPAQUE","doubleSided":false,"extras":{"fromFBX":{"isTruePBR":false,"shadingModel":"Phong"}},"name":"rpgpp_av_mat_a","pbrMetallicRoughness":{"baseColorFactor":[1,1,1,1],"baseColorTexture":{"index":0,"texCoord":0},"metallicFactor":0.400000005960464,"roughnessFactor":0.284101665019989}}],"meshes":[{"name":"rpgpp_av_roof_02_9x4x3_c","primitives":[{"attributes":{"NORMAL":2,"POSITION":1,"TEXCOORD_0":3},"indices":0,"material":0,"mode":4}]}],"nodes":[{"mesh":0,"name":"rpgpp_av_roof_02_9x4x3_c","rotation":[0,0,0,1],"scale":[1,1,1],"translation":[0,0,0]}],"samplers":[{}],"scene":0,"scenes":[{"name":"Root Scene","nodes":[0]}],"textures":[{"name":"base_color_texture","sampler":0,"source":0}]}