{"accessors":[{"bufferView":0,"byteOffset":0,"componentType":5123,"count":1854,"type":"SCALAR"},{"bufferView":1,"byteOffset":0,"componentType":5126,"count":467,"max":[0.0368792936205864,0.0312535911798477,0.00000000476837147544984],"min":[-0.00047582268598,-0.00396866258234,-0.03652999922633],"type":"VEC3"},{"bufferView":2,"byteOffset":0,"componentType":5126,"count":467,"type":"VEC3"},{"bufferView":3,"byteOffset":0,"componentType":5126,"count":467,"type":"VEC2"}],"asset":{"generator":"FBX2glTF v0.13.0","version":"2.0"},"bufferViews":[{"buffer":0,"byteLength":3708,"byteOffset":0,"target":34963},{"buffer":0,"byteLength":5604,"byteOffset":3708,"target":34962},{"buffer":0,"byteLength":5604,"byteOffset":9312,"target":34962},{"buffer":0,"byteLength":3736,"byteOffset":14916,"target":34962}],"buffers":[{"byteLength":18652,"uri":"rpgpp_av_roof_support_01_6x3x3_corner_02a.bin"}],"images":[{"name":"rpgpp_av_tex_a","uri":"../../Textures/rpgpp_av_tex_a.png"}],"materials":[{"alphaMode":"OPAQUE","doubleSided":false,"extras":{"fromFBX":{"isTruePBR":false,"shadingModel":"Phong"}},"name":"rpgpp_av_mat_a","pbrMetallicRoughness":{"baseColorFactor":[1,1,1,1],"baseColorTexture":{"index":0,"texCoord":0},"metallicFactor":0.400000005960464,"roughnessFactor":0.284101665019989}}],"meshes":[{"name":"rpgpp_av_roof_support_01_6x3x3_corner_02a","primitives":[{"attributes":{"NORMAL":2,"POSITION":1,"TEXCOORD_0":3},"indices":0,"material":0,"mode":4}]}],"nodes":[{"mesh":0,"name":"rpgpp_av_roof_support_01_6x3x3_corner_02a","rotation":[0,0,0,1],"scale":[1,1,1],"translation":[0,0,0]}],"samplers":[{}],"scene":0,"scenes":[{"name":"Root Scene","nodes":[0]}],"textures":[{"name":"base_color_texture","sampler":0,"source":0}]}