{"accessors":[{"bufferView":0,"byteOffset":0,"componentType":5123,"count":1650,"type":"SCALAR"},{"bufferView":1,"byteOffset":0,"componentType":5126,"count":569,"max":[0.0483232550323009,0.0423998646438122,0.00190104090142995],"min":[-0.0483970977366,0.0000039297342482314,-0.00196567783132],"type":"VEC3"},{"bufferView":2,"byteOffset":0,"componentType":5126,"count":569,"type":"VEC3"},{"bufferView":3,"byteOffset":0,"componentType":5126,"count":569,"type":"VEC2"}],"asset":{"generator":"FBX2glTF v0.13.0","version":"2.0"},"bufferViews":[{"buffer":0,"byteLength":3300,"byteOffset":0,"target":34963},{"buffer":0,"byteLength":6828,"byteOffset":3300,"target":34962},{"buffer":0,"byteLength":6828,"byteOffset":10128,"target":34962},{"buffer":0,"byteLength":4552,"byteOffset":16956,"target":34962}],"buffers":[{"byteLength":21508,"uri":"rpgpp_av_roof_end_01_9x4_wall_window_01b.bin"}],"images":[{"name":"rpgpp_av_tex_a","uri":"../../Textures/rpgpp_av_tex_a.png"}],"materials":[{"alphaMode":"OPAQUE","doubleSided":false,"extras":{"fromFBX":{"isTruePBR":false,"shadingModel":"Phong"}},"name":"rpgpp_av_mat_a","pbrMetallicRoughness":{"baseColorFactor":[1,1,1,1],"baseColorTexture":{"index":0,"texCoord":0},"metallicFactor":0.400000005960464,"roughnessFactor":0.284101665019989}}],"meshes":[{"name":"rpgpp_av_roof_end_01_9x4_wall_window_01b","primitives":[{"attributes":{"NORMAL":2,"POSITION":1,"TEXCOORD_0":3},"indices":0,"material":0,"mode":4}]}],"nodes":[{"mesh":0,"name":"rpgpp_av_roof_end_01_9x4_wall_window_01b","rotation":[0,0,0,1],"scale":[1,1,1],"translation":[0,0,0]}],"samplers":[{}],"scene":0,"scenes":[{"name":"Root Scene","nodes":[0]}],"textures":[{"name":"base_color_texture","sampler":0,"source":0}]}