{"accessors":[{"bufferView":0,"byteOffset":0,"componentType":5123,"count":4992,"type":"SCALAR"},{"bufferView":1,"byteOffset":0,"componentType":5126,"count":1321,"max":[0.0430506281554699,0.0356350913643837,0.000000193752342170228],"min":[-0.00060179788852,-0.00590951135382,-0.04305063188076],"type":"VEC3"},{"bufferView":2,"byteOffset":0,"componentType":5126,"count":1321,"type":"VEC3"},{"bufferView":3,"byteOffset":0,"componentType":5126,"count":1321,"type":"VEC2"}],"asset":{"generator":"FBX2glTF v0.13.0","version":"2.0"},"bufferViews":[{"buffer":0,"byteLength":9984,"byteOffset":0,"target":34963},{"buffer":0,"byteLength":15852,"byteOffset":9984,"target":34962},{"buffer":0,"byteLength":15852,"byteOffset":25836,"target":34962},{"buffer":0,"byteLength":10568,"byteOffset":41688,"target":34962}],"buffers":[{"byteLength":52256,"uri":"rpgpp_av_roof_01_6x3x3_corner_02.bin"}],"images":[{"name":"rpgpp_av_tex_a","uri":"../../Textures/rpgpp_av_tex_a.png"}],"materials":[{"alphaMode":"OPAQUE","doubleSided":false,"extras":{"fromFBX":{"isTruePBR":false,"shadingModel":"Phong"}},"name":"rpgpp_av_mat_a","pbrMetallicRoughness":{"baseColorFactor":[1,1,1,1],"baseColorTexture":{"index":0,"texCoord":0},"metallicFactor":0.400000005960464,"roughnessFactor":0.284101665019989}}],"meshes":[{"name":"rpgpp_av_roof_01_6x3x3_corner_02","primitives":[{"attributes":{"NORMAL":2,"POSITION":1,"TEXCOORD_0":3},"indices":0,"material":0,"mode":4}]}],"nodes":[{"mesh":0,"name":"rpgpp_av_roof_01_6x3x3_corner_02","rotation":[0,0,0,1],"scale":[1,1,1],"translation":[0,0,0]}],"samplers":[{}],"scene":0,"scenes":[{"name":"Root Scene","nodes":[0]}],"textures":[{"name":"base_color_texture","sampler":0,"source":0}]}