{"accessors":[{"bufferView":0,"byteOffset":0,"componentType":5123,"count":3678,"type":"SCALAR"},{"bufferView":1,"byteOffset":0,"componentType":5126,"count":928,"max":[0.041623555123806,0.036999985575676,0.0422929041087627],"min":[-0.04229290410876,-0.00407362449914,-0.00261054025032],"type":"VEC3"},{"bufferView":2,"byteOffset":0,"componentType":5126,"count":928,"type":"VEC3"},{"bufferView":3,"byteOffset":0,"componentType":5126,"count":928,"type":"VEC2"}],"asset":{"generator":"FBX2glTF v0.13.0","version":"2.0"},"bufferViews":[{"buffer":0,"byteLength":7356,"byteOffset":0,"target":34963},{"buffer":0,"byteLength":11136,"byteOffset":7356,"target":34962},{"buffer":0,"byteLength":11136,"byteOffset":18492,"target":34962},{"buffer":0,"byteLength":7424,"byteOffset":29628,"target":34962}],"buffers":[{"byteLength":37052,"uri":"rpgpp_av_roof_02_6x3x3_end_02.bin"}],"images":[{"name":"rpgpp_av_tex_a","uri":"../../Textures/rpgpp_av_tex_a.png"}],"materials":[{"alphaMode":"OPAQUE","doubleSided":false,"extras":{"fromFBX":{"isTruePBR":false,"shadingModel":"Phong"}},"name":"rpgpp_av_mat_a","pbrMetallicRoughness":{"baseColorFactor":[1,1,1,1],"baseColorTexture":{"index":0,"texCoord":0},"metallicFactor":0.400000005960464,"roughnessFactor":0.284101665019989}}],"meshes":[{"name":"rpgpp_av_roof_02_6x3x3_end_02","primitives":[{"attributes":{"NORMAL":2,"POSITION":1,"TEXCOORD_0":3},"indices":0,"material":0,"mode":4}]}],"nodes":[{"mesh":0,"name":"rpgpp_av_roof_02_6x3x3_end_02","rotation":[0,0,0,1],"scale":[1,1,1],"translation":[0,0,0]}],"samplers":[{}],"scene":0,"scenes":[{"name":"Root Scene","nodes":[0]}],"textures":[{"name":"base_color_texture","sampler":0,"source":0}]}