{"accessors":[{"bufferView":0,"byteOffset":0,"componentType":5123,"count":1248,"type":"SCALAR"},{"bufferView":1,"byteOffset":0,"componentType":5126,"count":289,"max":[-0.00000000737533,0.0504054352641106,0.00000252723680205236],"min":[-0.03576431423426,0.00034639178193174,-0.02877799421549],"type":"VEC3"},{"bufferView":2,"byteOffset":0,"componentType":5126,"count":289,"type":"VEC3"},{"bufferView":3,"byteOffset":0,"componentType":5126,"count":289,"type":"VEC2"}],"asset":{"generator":"FBX2glTF v0.13.0","version":"2.0"},"bufferViews":[{"buffer":0,"byteLength":2496,"byteOffset":0,"target":34963},{"buffer":0,"byteLength":3468,"byteOffset":2496,"target":34962},{"buffer":0,"byteLength":3468,"byteOffset":5964,"target":34962},{"buffer":0,"byteLength":2312,"byteOffset":9432,"target":34962}],"buffers":[{"byteLength":11744,"uri":"rpgpp_av_roof_02_6x5x3_half_c.bin"}],"images":[{"name":"rpgpp_av_tex_a","uri":"../../Textures/rpgpp_av_tex_a.png"}],"materials":[{"alphaMode":"OPAQUE","doubleSided":false,"extras":{"fromFBX":{"isTruePBR":false,"shadingModel":"Phong"}},"name":"rpgpp_av_mat_a","pbrMetallicRoughness":{"baseColorFactor":[1,1,1,1],"baseColorTexture":{"index":0,"texCoord":0},"metallicFactor":0.400000005960464,"roughnessFactor":0.284101665019989}}],"meshes":[{"name":"rpgpp_av_roof_02_6x5x3_half_c","primitives":[{"attributes":{"NORMAL":2,"POSITION":1,"TEXCOORD_0":3},"indices":0,"material":0,"mode":4}]}],"nodes":[{"mesh":0,"name":"rpgpp_av_roof_02_6x5x3_half_c","rotation":[0,0,0,1],"scale":[1,1,1],"translation":[0,0,0]}],"samplers":[{}],"scene":0,"scenes":[{"name":"Root Scene","nodes":[0]}],"textures":[{"name":"base_color_texture","sampler":0,"source":0}]}