{"accessors":[{"bufferView":0,"byteOffset":0,"componentType":5123,"count":2598,"type":"SCALAR"},{"bufferView":1,"byteOffset":0,"componentType":5126,"count":544,"max":[0.013019778765738,0.0177439916878939,0.00290055526420474],"min":[-0.0006767368177,-0.0057266545482,-0.00116643577348],"type":"VEC3"},{"bufferView":2,"byteOffset":0,"componentType":5126,"count":544,"type":"VEC3"},{"bufferView":3,"byteOffset":0,"componentType":5126,"count":544,"type":"VEC2"}],"asset":{"generator":"FBX2glTF v0.13.0","version":"2.0"},"bufferViews":[{"buffer":0,"byteLength":5196,"byteOffset":0,"target":34963},{"buffer":0,"byteLength":6528,"byteOffset":5196,"target":34962},{"buffer":0,"byteLength":6528,"byteOffset":11724,"target":34962},{"buffer":0,"byteLength":4352,"byteOffset":18252,"target":34962}],"buffers":[{"byteLength":22604,"uri":"rpgpp_av_door_01a.bin"}],"images":[{"name":"rpgpp_av_tex_a","uri":"../../Textures/rpgpp_av_tex_a.png"}],"materials":[{"alphaMode":"OPAQUE","doubleSided":false,"extras":{"fromFBX":{"isTruePBR":false,"shadingModel":"Phong"}},"name":"rpgpp_av_mat_a","pbrMetallicRoughness":{"baseColorFactor":[1,1,1,1],"baseColorTexture":{"index":0,"texCoord":0},"metallicFactor":0.400000005960464,"roughnessFactor":0.284101665019989}}],"meshes":[{"name":"rpgpp_av_door_01a","primitives":[{"attributes":{"NORMAL":2,"POSITION":1,"TEXCOORD_0":3},"indices":0,"material":0,"mode":4}]}],"nodes":[{"mesh":0,"name":"rpgpp_av_door_01a","rotation":[0,0,0,1],"scale":[1,1,1],"translation":[-0.00660713016987,0.00803748331964016,-0.00326637970284]}],"samplers":[{}],"scene":0,"scenes":[{"name":"Root Scene","nodes":[0]}],"textures":[{"name":"base_color_texture","sampler":0,"source":0}]}