{"accessors":[{"bufferView":0,"byteOffset":0,"componentType":5123,"count":1380,"type":"SCALAR"},{"bufferView":1,"byteOffset":0,"componentType":5126,"count":420,"max":[0.0150000024586916,0.0300000011920929,0.00186786882113665],"min":[-0.01499999966472,0.00000000238418573772492,-0.00186783191748],"type":"VEC3"},{"bufferView":2,"byteOffset":0,"componentType":5126,"count":420,"type":"VEC3"},{"bufferView":3,"byteOffset":0,"componentType":5126,"count":420,"type":"VEC2"}],"asset":{"generator":"FBX2glTF v0.13.0","version":"2.0"},"bufferViews":[{"buffer":0,"byteLength":2760,"byteOffset":0,"target":34963},{"buffer":0,"byteLength":5040,"byteOffset":2760,"target":34962},{"buffer":0,"byteLength":5040,"byteOffset":7800,"target":34962},{"buffer":0,"byteLength":3360,"byteOffset":12840,"target":34962}],"buffers":[{"byteLength":16200,"uri":"rpgpp_av_wall_01_3x3_window_02b.bin"}],"images":[{"name":"rpgpp_av_tex_a","uri":"../../Textures/rpgpp_av_tex_a.png"}],"materials":[{"alphaMode":"OPAQUE","doubleSided":false,"extras":{"fromFBX":{"isTruePBR":false,"shadingModel":"Phong"}},"name":"rpgpp_av_mat_a","pbrMetallicRoughness":{"baseColorFactor":[1,1,1,1],"baseColorTexture":{"index":0,"texCoord":0},"metallicFactor":0.400000005960464,"roughnessFactor":0.284101665019989}}],"meshes":[{"name":"rpgpp_av_wall_01_3x3_window_02b","primitives":[{"attributes":{"NORMAL":2,"POSITION":1,"TEXCOORD_0":3},"indices":0,"material":0,"mode":4}]}],"nodes":[{"mesh":0,"name":"rpgpp_av_wall_01_3x3_window_02b","rotation":[0,0,0,1],"scale":[1,1,1],"translation":[0,0,0]}],"samplers":[{}],"scene":0,"scenes":[{"name":"Root Scene","nodes":[0]}],"textures":[{"name":"base_color_texture","sampler":0,"source":0}]}