{"accessors":[{"bufferView":0,"byteOffset":0,"componentType":5123,"count":1158,"type":"SCALAR"},{"bufferView":1,"byteOffset":0,"componentType":5126,"count":195,"max":[0.243221998214722,0.151917725801468,0.112480379641056],"min":[-0.24508135020733,-0.00000939369147,-0.11602634936571],"type":"VEC3"},{"bufferView":2,"byteOffset":0,"componentType":5126,"count":195,"type":"VEC3"},{"bufferView":3,"byteOffset":0,"componentType":5126,"count":195,"type":"VEC2"}],"asset":{"generator":"FBX2glTF v0.13.0","version":"2.0"},"bufferViews":[{"buffer":0,"byteLength":2316,"byteOffset":0,"target":34963},{"buffer":0,"byteLength":2340,"byteOffset":2316,"target":34962},{"buffer":0,"byteLength":2340,"byteOffset":4656,"target":34962},{"buffer":0,"byteLength":1560,"byteOffset":6996,"target":34962}],"buffers":[{"byteLength":8556,"uri":"rpgpp_av_cloud_02.bin"}],"materials":[{"alphaMode":"OPAQUE","doubleSided":false,"extras":{"fromFBX":{"isTruePBR":false,"shadingModel":"Phong"}},"name":"rpgpp_ne_cloud_mat_a","pbrMetallicRoughness":{"baseColorFactor":[0.800000011920929,0.800000011920929,0.800000011920929,1],"metallicFactor":0.400000005960464,"roughnessFactor":0.272165536880493}}],"meshes":[{"name":"rpgpp_av_cloud_02","primitives":[{"attributes":{"NORMAL":2,"POSITION":1,"TEXCOORD_0":3},"indices":0,"material":0,"mode":4}]}],"nodes":[{"mesh":0,"name":"rpgpp_av_cloud_02","rotation":[0,0,0,1],"scale":[1,1,1],"translation":[0,0,0]}],"samplers":[{}],"scene":0,"scenes":[{"name":"Root Scene","nodes":[0]}]}