{"accessors":[{"bufferView":0,"byteOffset":0,"componentType":5123,"count":462,"type":"SCALAR"},{"bufferView":1,"byteOffset":0,"componentType":5126,"count":86,"max":[0.486119627952576,0.350948095321655,0.495053499937057],"min":[-0.49103075265884,-0.00000000257191,-0.48777091503143],"type":"VEC3"},{"bufferView":2,"byteOffset":0,"componentType":5126,"count":86,"type":"VEC3"},{"bufferView":3,"byteOffset":0,"componentType":5126,"count":86,"type":"VEC2"}],"asset":{"generator":"FBX2glTF v0.13.0","version":"2.0"},"bufferViews":[{"buffer":0,"byteLength":924,"byteOffset":0,"target":34963},{"buffer":0,"byteLength":1032,"byteOffset":924,"target":34962},{"buffer":0,"byteLength":1032,"byteOffset":1956,"target":34962},{"buffer":0,"byteLength":688,"byteOffset":2988,"target":34962}],"buffers":[{"byteLength":3676,"uri":"rpgpp_av_sky_01.bin"}],"materials":[{"alphaMode":"OPAQUE","doubleSided":false,"extras":{"fromFBX":{"isTruePBR":false,"shadingModel":"Phong"}},"name":"rpgpp_ne_sky_mat_a","pbrMetallicRoughness":{"baseColorFactor":[0.800000011920929,0.800000011920929,0.800000011920929,1],"metallicFactor":0.400000005960464,"roughnessFactor":0.272165536880493}}],"meshes":[{"name":"rpgpp_av_sky_01","primitives":[{"attributes":{"NORMAL":2,"POSITION":1,"TEXCOORD_0":3},"indices":0,"material":0,"mode":4}]}],"nodes":[{"mesh":0,"name":"rpgpp_av_sky_01","rotation":[0,0,0,1],"scale":[1,1,1],"translation":[0,0,0]}],"samplers":[{}],"scene":0,"scenes":[{"name":"Root Scene","nodes":[0]}]}