{"accessors":[{"bufferView":0,"byteOffset":0,"componentType":5123,"count":1452,"type":"SCALAR"},{"bufferView":1,"byteOffset":0,"componentType":5126,"count":244,"max":[0.253300428390503,0.154186517000198,0.101349383592606],"min":[-0.26081934571266,-0.00317425234243,-0.11746951192617],"type":"VEC3"},{"bufferView":2,"byteOffset":0,"componentType":5126,"count":244,"type":"VEC3"},{"bufferView":3,"byteOffset":0,"componentType":5126,"count":244,"type":"VEC2"}],"asset":{"generator":"FBX2glTF v0.13.0","version":"2.0"},"bufferViews":[{"buffer":0,"byteLength":2904,"byteOffset":0,"target":34963},{"buffer":0,"byteLength":2928,"byteOffset":2904,"target":34962},{"buffer":0,"byteLength":2928,"byteOffset":5832,"target":34962},{"buffer":0,"byteLength":1952,"byteOffset":8760,"target":34962}],"buffers":[{"byteLength":10712,"uri":"rpgpp_av_cloud_05.bin"}],"materials":[{"alphaMode":"OPAQUE","doubleSided":false,"extras":{"fromFBX":{"isTruePBR":false,"shadingModel":"Phong"}},"name":"rpgpp_ne_cloud_mat_a","pbrMetallicRoughness":{"baseColorFactor":[0.800000011920929,0.800000011920929,0.800000011920929,1],"metallicFactor":0.400000005960464,"roughnessFactor":0.272165536880493}}],"meshes":[{"name":"rpgpp_av_cloud_05","primitives":[{"attributes":{"NORMAL":2,"POSITION":1,"TEXCOORD_0":3},"indices":0,"material":0,"mode":4}]}],"nodes":[{"mesh":0,"name":"rpgpp_av_cloud_05","rotation":[0,0,0,1],"scale":[1,1,1],"translation":[0,0,0]}],"samplers":[{}],"scene":0,"scenes":[{"name":"Root Scene","nodes":[0]}]}