{"accessors":[{"bufferView":0,"byteOffset":0,"componentType":5123,"count":774,"type":"SCALAR"},{"bufferView":1,"byteOffset":0,"componentType":5126,"count":542,"max":[0.0121610630303621,0.0128387045115232,0.0203915350139141],"min":[-0.01164599042386,-0.00243597268127,-0.00030129138031],"type":"VEC3"},{"bufferView":2,"byteOffset":0,"componentType":5126,"count":542,"type":"VEC3"},{"bufferView":3,"byteOffset":0,"componentType":5126,"count":542,"type":"VEC2"}],"asset":{"generator":"FBX2glTF v0.13.0","version":"2.0"},"bufferViews":[{"buffer":0,"byteLength":1548,"byteOffset":0,"target":34963},{"buffer":0,"byteLength":6504,"byteOffset":1548,"target":34962},{"buffer":0,"byteLength":6504,"byteOffset":8052,"target":34962},{"buffer":0,"byteLength":4336,"byteOffset":14556,"target":34962}],"buffers":[{"byteLength":18892,"uri":"rpgpp_av_stairs_entrance_01a.bin"}],"images":[{"name":"rpgpp_av_tex_a","uri":"../../Textures/rpgpp_av_tex_a.png"}],"materials":[{"alphaMode":"OPAQUE","doubleSided":false,"extras":{"fromFBX":{"isTruePBR":false,"shadingModel":"Phong"}},"name":"rpgpp_av_mat_a","pbrMetallicRoughness":{"baseColorFactor":[1,1,1,1],"baseColorTexture":{"index":0,"texCoord":0},"metallicFactor":0.400000005960464,"roughnessFactor":0.284101665019989}}],"meshes":[{"name":"rpgpp_av_stairs_entrance_01a","primitives":[{"attributes":{"NORMAL":2,"POSITION":1,"TEXCOORD_0":3},"indices":0,"material":0,"mode":4}]}],"nodes":[{"mesh":0,"name":"rpgpp_av_stairs_entrance_01a","rotation":[0,0,0,1],"scale":[1,1,1],"translation":[0,0,0]}],"samplers":[{}],"scene":0,"scenes":[{"name":"Root Scene","nodes":[0]}],"textures":[{"name":"base_color_texture","sampler":0,"source":0}]}