{"accessors":[{"bufferView":0,"byteOffset":0,"componentType":5123,"count":1923,"type":"SCALAR"},{"bufferView":1,"byteOffset":0,"componentType":5126,"count":1325,"max":[0.0257518421858549,0.0599282793700695,0.0182389579713345],"min":[-0.00012634455925,-0.0000353336327,-0.01891754381359],"type":"VEC3"},{"bufferView":2,"byteOffset":0,"componentType":5126,"count":1325,"type":"VEC3"},{"bufferView":3,"byteOffset":0,"componentType":5126,"count":1325,"type":"VEC2"}],"asset":{"generator":"FBX2glTF v0.13.0","version":"2.0"},"bufferViews":[{"buffer":0,"byteLength":3846,"byteOffset":0,"target":34963},{"buffer":0,"byteLength":15900,"byteOffset":3848,"target":34962},{"buffer":0,"byteLength":15900,"byteOffset":19748,"target":34962},{"buffer":0,"byteLength":10600,"byteOffset":35648,"target":34962}],"buffers":[{"byteLength":46248,"uri":"rpgpp_av_water_platform_01e.bin"}],"images":[{"name":"rpgpp_ag_tex_a","uri":"rpgpp_ag_tex_a.png"}],"materials":[{"alphaMode":"OPAQUE","doubleSided":false,"extras":{"fromFBX":{"isTruePBR":false,"shadingModel":"Phong"}},"name":"rpgpp_st_mat_a","pbrMetallicRoughness":{"baseColorFactor":[1,1,1,1],"baseColorTexture":{"index":0,"texCoord":0},"metallicFactor":0.400000005960464,"roughnessFactor":0.284101665019989}}],"meshes":[{"name":"rpgpp_av_water_platform_01e","primitives":[{"attributes":{"NORMAL":2,"POSITION":1,"TEXCOORD_0":3},"indices":0,"material":0,"mode":4}]}],"nodes":[{"mesh":0,"name":"rpgpp_av_water_platform_01e","rotation":[0,0,0,1],"scale":[1,1,1],"translation":[0,0,0]}],"samplers":[{}],"scene":0,"scenes":[{"name":"Root Scene","nodes":[0]}],"textures":[{"name":"base_color_texture","sampler":0,"source":0}]}