{"accessors":[{"bufferView":0,"byteOffset":0,"componentType":5123,"count":834,"type":"SCALAR"},{"bufferView":1,"byteOffset":0,"componentType":5126,"count":226,"max":[0.00310661271214485,0.0489839464426041,-0.00000000116517],"min":[-0.03471219912171,-0.0037134711165,-0.02861428633332],"type":"VEC3"},{"bufferView":2,"byteOffset":0,"componentType":5126,"count":226,"type":"VEC3"},{"bufferView":3,"byteOffset":0,"componentType":5126,"count":226,"type":"VEC2"}],"asset":{"generator":"FBX2glTF v0.13.0","version":"2.0"},"bufferViews":[{"buffer":0,"byteLength":1668,"byteOffset":0,"target":34963},{"buffer":0,"byteLength":2712,"byteOffset":1668,"target":34962},{"buffer":0,"byteLength":2712,"byteOffset":4380,"target":34962},{"buffer":0,"byteLength":1808,"byteOffset":7092,"target":34962}],"buffers":[{"byteLength":8900,"uri":"rpgpp_av_roof_support_01_6x5x3_half_c.bin"}],"images":[{"name":"rpgpp_av_tex_a","uri":"../../Textures/rpgpp_av_tex_a.png"}],"materials":[{"alphaMode":"OPAQUE","doubleSided":false,"extras":{"fromFBX":{"isTruePBR":false,"shadingModel":"Phong"}},"name":"rpgpp_av_mat_a","pbrMetallicRoughness":{"baseColorFactor":[1,1,1,1],"baseColorTexture":{"index":0,"texCoord":0},"metallicFactor":0.400000005960464,"roughnessFactor":0.284101665019989}}],"meshes":[{"name":"rpgpp_av_roof_support_01_6x5x3_half_c","primitives":[{"attributes":{"NORMAL":2,"POSITION":1,"TEXCOORD_0":3},"indices":0,"material":0,"mode":4}]}],"nodes":[{"mesh":0,"name":"rpgpp_av_roof_support_01_6x5x3_half_c","rotation":[0,0,0,1],"scale":[1,1,1],"translation":[0,0,0]}],"samplers":[{}],"scene":0,"scenes":[{"name":"Root Scene","nodes":[0]}],"textures":[{"name":"base_color_texture","sampler":0,"source":0}]}