{"accessors":[{"bufferView":0,"byteOffset":0,"componentType":5123,"count":1056,"type":"SCALAR"},{"bufferView":1,"byteOffset":0,"componentType":5126,"count":286,"max":[-0.00000000655742,0.0353581309318542,0.00000000238418573772492],"min":[-0.04328872635961,-0.00224543572403,-0.03000547736883],"type":"VEC3"},{"bufferView":2,"byteOffset":0,"componentType":5126,"count":286,"type":"VEC3"},{"bufferView":3,"byteOffset":0,"componentType":5126,"count":286,"type":"VEC2"}],"asset":{"generator":"FBX2glTF v0.13.0","version":"2.0"},"bufferViews":[{"buffer":0,"byteLength":2112,"byteOffset":0,"target":34963},{"buffer":0,"byteLength":3432,"byteOffset":2112,"target":34962},{"buffer":0,"byteLength":3432,"byteOffset":5544,"target":34962},{"buffer":0,"byteLength":2288,"byteOffset":8976,"target":34962}],"buffers":[{"byteLength":11264,"uri":"rpgpp_av_roof_02_6x3x3_half_b.bin"}],"images":[{"name":"rpgpp_av_tex_a","uri":"../../Textures/rpgpp_av_tex_a.png"}],"materials":[{"alphaMode":"OPAQUE","doubleSided":false,"extras":{"fromFBX":{"isTruePBR":false,"shadingModel":"Phong"}},"name":"rpgpp_av_mat_a","pbrMetallicRoughness":{"baseColorFactor":[1,1,1,1],"baseColorTexture":{"index":0,"texCoord":0},"metallicFactor":0.400000005960464,"roughnessFactor":0.284101665019989}}],"meshes":[{"name":"rpgpp_av_roof_02_6x3x3_half_b","primitives":[{"attributes":{"NORMAL":2,"POSITION":1,"TEXCOORD_0":3},"indices":0,"material":0,"mode":4}]}],"nodes":[{"mesh":0,"name":"rpgpp_av_roof_02_6x3x3_half_b","rotation":[0,0,0,1],"scale":[1,1,1],"translation":[0,0,0]}],"samplers":[{}],"scene":0,"scenes":[{"name":"Root Scene","nodes":[0]}],"textures":[{"name":"base_color_texture","sampler":0,"source":0}]}