{"accessors":[{"bufferView":0,"byteOffset":0,"componentType":5123,"count":174,"type":"SCALAR"},{"bufferView":1,"byteOffset":0,"componentType":5126,"count":52,"max":[0.0132278390228748,0.0245098639279604,0.00249337940476835],"min":[-0.01312189083546,0,-0.00247515295632],"type":"VEC3"},{"bufferView":2,"byteOffset":0,"componentType":5126,"count":52,"type":"VEC3"},{"bufferView":3,"byteOffset":0,"componentType":5126,"count":52,"type":"VEC2"}],"asset":{"generator":"FBX2glTF v0.13.0","version":"2.0"},"bufferViews":[{"buffer":0,"byteLength":348,"byteOffset":0,"target":34963},{"buffer":0,"byteLength":624,"byteOffset":348,"target":34962},{"buffer":0,"byteLength":624,"byteOffset":972,"target":34962},{"buffer":0,"byteLength":416,"byteOffset":1596,"target":34962}],"buffers":[{"byteLength":2012,"uri":"rpgpp_av_roof_end_01_6x3_wall_beam_e.bin"}],"images":[{"name":"rpgpp_av_tex_a","uri":"../../Textures/rpgpp_av_tex_a.png"}],"materials":[{"alphaMode":"OPAQUE","doubleSided":false,"extras":{"fromFBX":{"isTruePBR":false,"shadingModel":"Phong"}},"name":"rpgpp_av_mat_a","pbrMetallicRoughness":{"baseColorFactor":[1,1,1,1],"baseColorTexture":{"index":0,"texCoord":0},"metallicFactor":0.400000005960464,"roughnessFactor":0.284101665019989}}],"meshes":[{"name":"rpgpp_av_roof_end_01_6x3_wall_beam_e","primitives":[{"attributes":{"NORMAL":2,"POSITION":1,"TEXCOORD_0":3},"indices":0,"material":0,"mode":4}]}],"nodes":[{"mesh":0,"name":"rpgpp_av_roof_end_01_6x3_wall_beam_e","rotation":[0,0,0,1],"scale":[1,1,1],"translation":[0,0,0]}],"samplers":[{}],"scene":0,"scenes":[{"name":"Root Scene","nodes":[0]}],"textures":[{"name":"base_color_texture","sampler":0,"source":0}]}