{"accessors":[{"bufferView":0,"byteOffset":0,"componentType":5123,"count":1689,"type":"SCALAR"},{"bufferView":1,"byteOffset":0,"componentType":5126,"count":363,"max":[0.0127227827906609,0.00483228685334325,0.00137258530594409],"min":[-0.00068988132989,-0.01705814339221,-0.00125189777464],"type":"VEC3"},{"bufferView":2,"byteOffset":0,"componentType":5126,"count":363,"type":"VEC3"},{"bufferView":3,"byteOffset":0,"componentType":5126,"count":363,"type":"VEC2"}],"asset":{"generator":"FBX2glTF v0.13.0","version":"2.0"},"bufferViews":[{"buffer":0,"byteLength":3378,"byteOffset":0,"target":34963},{"buffer":0,"byteLength":4356,"byteOffset":3380,"target":34962},{"buffer":0,"byteLength":4356,"byteOffset":7736,"target":34962},{"buffer":0,"byteLength":2904,"byteOffset":12092,"target":34962}],"buffers":[{"byteLength":14996,"uri":"rpgpp_av_door_03a.bin"}],"images":[{"name":"rpgpp_av_tex_a","uri":"../../Textures/rpgpp_av_tex_a.png"}],"materials":[{"alphaMode":"OPAQUE","doubleSided":false,"extras":{"fromFBX":{"isTruePBR":false,"shadingModel":"Phong"}},"name":"rpgpp_av_mat_a","pbrMetallicRoughness":{"baseColorFactor":[1,1,1,1],"baseColorTexture":{"index":0,"texCoord":0},"metallicFactor":0.400000005960464,"roughnessFactor":0.284101665019989}}],"meshes":[{"name":"rpgpp_av_door_03a","primitives":[{"attributes":{"NORMAL":2,"POSITION":1,"TEXCOORD_0":3},"indices":0,"material":0,"mode":4}]}],"nodes":[{"mesh":0,"name":"rpgpp_av_door_03a","rotation":[0,0,0,1],"scale":[1,1,1],"translation":[-0.00672909477726,0.0184923820197582,-0.00073910999345]}],"samplers":[{}],"scene":0,"scenes":[{"name":"Root Scene","nodes":[0]}],"textures":[{"name":"base_color_texture","sampler":0,"source":0}]}