{"accessors":[{"bufferView":0,"byteOffset":0,"componentType":5123,"count":156,"type":"SCALAR"},{"bufferView":1,"byteOffset":0,"componentType":5126,"count":28,"max":[0.0480000823736191,0.045951135456562,0.00327900913543999],"min":[-0.04800613597035,0.00033544836333021,-0.00325877754949],"type":"VEC3"},{"bufferView":2,"byteOffset":0,"componentType":5126,"count":28,"type":"VEC3"},{"bufferView":3,"byteOffset":0,"componentType":5126,"count":28,"type":"VEC2"}],"asset":{"generator":"FBX2glTF v0.13.0","version":"2.0"},"bufferViews":[{"buffer":0,"byteLength":312,"byteOffset":0,"target":34963},{"buffer":0,"byteLength":336,"byteOffset":312,"target":34962},{"buffer":0,"byteLength":336,"byteOffset":648,"target":34962},{"buffer":0,"byteLength":224,"byteOffset":984,"target":34962}],"buffers":[{"byteLength":1208,"uri":"rpgpp_av_roof_end_01_9x4_beam_a.bin"}],"images":[{"name":"rpgpp_av_tex_a","uri":"../../Textures/rpgpp_av_tex_a.png"}],"materials":[{"alphaMode":"OPAQUE","doubleSided":false,"extras":{"fromFBX":{"isTruePBR":false,"shadingModel":"Phong"}},"name":"rpgpp_av_mat_a","pbrMetallicRoughness":{"baseColorFactor":[1,1,1,1],"baseColorTexture":{"index":0,"texCoord":0},"metallicFactor":0.400000005960464,"roughnessFactor":0.284101665019989}}],"meshes":[{"name":"rpgpp_av_roof_end_01_9x4_beam_a","primitives":[{"attributes":{"NORMAL":2,"POSITION":1,"TEXCOORD_0":3},"indices":0,"material":0,"mode":4}]}],"nodes":[{"mesh":0,"name":"rpgpp_av_roof_end_01_9x4_beam_a","rotation":[0,0,0,1],"scale":[1,1,1],"translation":[0,0,0]}],"samplers":[{}],"scene":0,"scenes":[{"name":"Root Scene","nodes":[0]}],"textures":[{"name":"base_color_texture","sampler":0,"source":0}]}