{"accessors":[{"bufferView":0,"byteOffset":0,"componentType":5123,"count":114,"type":"SCALAR"},{"bufferView":1,"byteOffset":0,"componentType":5126,"count":40,"max":[0.0150000024586916,0.00102000054903328,0.00300000025890768],"min":[-0.01499999966472,-0.00103000062518,-0.00300000188872],"type":"VEC3"},{"bufferView":2,"byteOffset":0,"componentType":5126,"count":40,"type":"VEC3"},{"bufferView":3,"byteOffset":0,"componentType":5126,"count":40,"type":"VEC2"}],"asset":{"generator":"FBX2glTF v0.13.0","version":"2.0"},"bufferViews":[{"buffer":0,"byteLength":228,"byteOffset":0,"target":34963},{"buffer":0,"byteLength":480,"byteOffset":228,"target":34962},{"buffer":0,"byteLength":480,"byteOffset":708,"target":34962},{"buffer":0,"byteLength":320,"byteOffset":1188,"target":34962}],"buffers":[{"byteLength":1508,"uri":"rpgpp_av_wall_connector_bottom_01b_3m.bin"}],"images":[{"name":"rpgpp_av_tex_a","uri":"../../Textures/rpgpp_av_tex_a.png"}],"materials":[{"alphaMode":"OPAQUE","doubleSided":false,"extras":{"fromFBX":{"isTruePBR":false,"shadingModel":"Phong"}},"name":"rpgpp_av_mat_a","pbrMetallicRoughness":{"baseColorFactor":[1,1,1,1],"baseColorTexture":{"index":0,"texCoord":0},"metallicFactor":0.400000005960464,"roughnessFactor":0.284101665019989}}],"meshes":[{"name":"rpgpp_av_wall_connector_bottom_01b_3m","primitives":[{"attributes":{"NORMAL":2,"POSITION":1,"TEXCOORD_0":3},"indices":0,"material":0,"mode":4}]}],"nodes":[{"mesh":0,"name":"rpgpp_av_wall_connector_bottom_01b_3m","rotation":[0,0,0,1],"scale":[1,1,1],"translation":[0,0,0]}],"samplers":[{}],"scene":0,"scenes":[{"name":"Root Scene","nodes":[0]}],"textures":[{"name":"base_color_texture","sampler":0,"source":0}]}