{"accessors":[{"bufferView":0,"byteOffset":0,"componentType":5123,"count":1758,"type":"SCALAR"},{"bufferView":1,"byteOffset":0,"componentType":5126,"count":477,"max":[0.0299999993294477,0.00058353011263534,0.000000000428752922054798],"min":[-0.00000000119209,-0.00156421191059,-0.03000000491738],"type":"VEC3"},{"bufferView":2,"byteOffset":0,"componentType":5126,"count":477,"type":"VEC3"},{"bufferView":3,"byteOffset":0,"componentType":5126,"count":477,"type":"VEC2"}],"asset":{"generator":"FBX2glTF v0.13.0","version":"2.0"},"bufferViews":[{"buffer":0,"byteLength":3516,"byteOffset":0,"target":34963},{"buffer":0,"byteLength":5724,"byteOffset":3516,"target":34962},{"buffer":0,"byteLength":5724,"byteOffset":9240,"target":34962},{"buffer":0,"byteLength":3816,"byteOffset":14964,"target":34962}],"buffers":[{"byteLength":18780,"uri":"rpgpp_av_floor_02a_3x3_2side.bin"}],"images":[{"name":"rpgpp_av_tex_a","uri":"../../Textures/rpgpp_av_tex_a.png"}],"materials":[{"alphaMode":"OPAQUE","doubleSided":false,"extras":{"fromFBX":{"isTruePBR":false,"shadingModel":"Phong"}},"name":"rpgpp_av_mat_a","pbrMetallicRoughness":{"baseColorFactor":[1,1,1,1],"baseColorTexture":{"index":0,"texCoord":0},"metallicFactor":0.400000005960464,"roughnessFactor":0.284101665019989}}],"meshes":[{"name":"rpgpp_av_floor_02a_3x3_2side","primitives":[{"attributes":{"NORMAL":2,"POSITION":1,"TEXCOORD_0":3},"indices":0,"material":0,"mode":4}]}],"nodes":[{"mesh":0,"name":"rpgpp_av_floor_02a_3x3_2side","rotation":[0,0,0,1],"scale":[1,1,1],"translation":[0,0,0]}],"samplers":[{}],"scene":0,"scenes":[{"name":"Root Scene","nodes":[0]}],"textures":[{"name":"base_color_texture","sampler":0,"source":0}]}