{"accessors":[{"bufferView":0,"byteOffset":0,"componentType":5123,"count":11349,"type":"SCALAR"},{"bufferView":1,"byteOffset":0,"componentType":5126,"count":2916,"max":[0.0430228635668755,0.035635095089674,0.0454045124351978],"min":[-0.04305060952902,-0.00495273806155,-0.00060419831425],"type":"VEC3"},{"bufferView":2,"byteOffset":0,"componentType":5126,"count":2916,"type":"VEC3"},{"bufferView":3,"byteOffset":0,"componentType":5126,"count":2916,"type":"VEC2"}],"asset":{"generator":"FBX2glTF v0.13.0","version":"2.0"},"bufferViews":[{"buffer":0,"byteLength":22698,"byteOffset":0,"target":34963},{"buffer":0,"byteLength":34992,"byteOffset":22700,"target":34962},{"buffer":0,"byteLength":34992,"byteOffset":57692,"target":34962},{"buffer":0,"byteLength":23328,"byteOffset":92684,"target":34962}],"buffers":[{"byteLength":116012,"uri":"rpgpp_av_roof_01_6x3x3_end_02.bin"}],"images":[{"name":"rpgpp_av_tex_a","uri":"../../Textures/rpgpp_av_tex_a.png"}],"materials":[{"alphaMode":"OPAQUE","doubleSided":false,"extras":{"fromFBX":{"isTruePBR":false,"shadingModel":"Phong"}},"name":"rpgpp_av_mat_a","pbrMetallicRoughness":{"baseColorFactor":[1,1,1,1],"baseColorTexture":{"index":0,"texCoord":0},"metallicFactor":0.400000005960464,"roughnessFactor":0.284101665019989}}],"meshes":[{"name":"rpgpp_av_roof_01_6x3x3_end_02","primitives":[{"attributes":{"NORMAL":2,"POSITION":1,"TEXCOORD_0":3},"indices":0,"material":0,"mode":4}]}],"nodes":[{"mesh":0,"name":"rpgpp_av_roof_01_6x3x3_end_02","rotation":[0,0,0,1],"scale":[1,1,1],"translation":[0,0,0]}],"samplers":[{}],"scene":0,"scenes":[{"name":"Root Scene","nodes":[0]}],"textures":[{"name":"base_color_texture","sampler":0,"source":0}]}