{"accessors":[{"bufferView":0,"byteOffset":0,"componentType":5123,"count":4248,"type":"SCALAR"},{"bufferView":1,"byteOffset":0,"componentType":5126,"count":981,"max":[0.0241829492151737,0.0307883825153112,0.0306340716779232],"min":[-0.03501234576106,-0.00105188938323,-0.02804785221815],"type":"VEC3"},{"bufferView":2,"byteOffset":0,"componentType":5126,"count":981,"type":"VEC3"},{"bufferView":3,"byteOffset":0,"componentType":5126,"count":981,"type":"VEC2"}],"asset":{"generator":"FBX2glTF v0.13.0","version":"2.0"},"bufferViews":[{"buffer":0,"byteLength":8496,"byteOffset":0,"target":34963},{"buffer":0,"byteLength":11772,"byteOffset":8496,"target":34962},{"buffer":0,"byteLength":11772,"byteOffset":20268,"target":34962},{"buffer":0,"byteLength":7848,"byteOffset":32040,"target":34962}],"buffers":[{"byteLength":39888,"uri":"rpgpp_av_stairs_interior_01b_3m.bin"}],"images":[{"name":"rpgpp_av_tex_a","uri":"../../Textures/rpgpp_av_tex_a.png"}],"materials":[{"alphaMode":"OPAQUE","doubleSided":false,"extras":{"fromFBX":{"isTruePBR":false,"shadingModel":"Phong"}},"name":"rpgpp_av_mat_a","pbrMetallicRoughness":{"baseColorFactor":[1,1,1,1],"baseColorTexture":{"index":0,"texCoord":0},"metallicFactor":0.400000005960464,"roughnessFactor":0.284101665019989}}],"meshes":[{"name":"rpgpp_av_stairs_interior_01b_3m","primitives":[{"attributes":{"NORMAL":2,"POSITION":1,"TEXCOORD_0":3},"indices":0,"material":0,"mode":4}]}],"nodes":[{"mesh":0,"name":"rpgpp_av_stairs_interior_01b_3m","rotation":[0,0,0,1],"scale":[1,1,1],"translation":[0,0,0]}],"samplers":[{}],"scene":0,"scenes":[{"name":"Root Scene","nodes":[0]}],"textures":[{"name":"base_color_texture","sampler":0,"source":0}]}