{"accessors":[{"bufferView":0,"byteOffset":0,"componentType":5123,"count":330,"type":"SCALAR"},{"bufferView":1,"byteOffset":0,"componentType":5126,"count":89,"max":[0.00514272786676884,0.0132343051955104,0.00289676175452769],"min":[-0.00494438223541,-0.00029175699456,-0.00284846546128],"type":"VEC3"},{"bufferView":2,"byteOffset":0,"componentType":5126,"count":89,"type":"VEC3"},{"bufferView":3,"byteOffset":0,"componentType":5126,"count":89,"type":"VEC2"}],"asset":{"generator":"FBX2glTF v0.13.0","version":"2.0"},"bufferViews":[{"buffer":0,"byteLength":660,"byteOffset":0,"target":34963},{"buffer":0,"byteLength":1068,"byteOffset":660,"target":34962},{"buffer":0,"byteLength":1068,"byteOffset":1728,"target":34962},{"buffer":0,"byteLength":712,"byteOffset":2796,"target":34962}],"buffers":[{"byteLength":3508,"uri":"rpgpp_av_window_03a.bin"}],"images":[{"name":"rpgpp_av_tex_a","uri":"../../Textures/rpgpp_av_tex_a.png"}],"materials":[{"alphaMode":"OPAQUE","doubleSided":false,"extras":{"fromFBX":{"isTruePBR":false,"shadingModel":"Phong"}},"name":"rpgpp_av_mat_a","pbrMetallicRoughness":{"baseColorFactor":[1,1,1,1],"baseColorTexture":{"index":0,"texCoord":0},"metallicFactor":0.400000005960464,"roughnessFactor":0.284101665019989}}],"meshes":[{"name":"rpgpp_av_window_03a","primitives":[{"attributes":{"NORMAL":2,"POSITION":1,"TEXCOORD_0":3},"indices":0,"material":0,"mode":4}]}],"nodes":[{"mesh":0,"name":"rpgpp_av_window_03a","rotation":[0,0,0,1],"scale":[1,1,1],"translation":[0,0,0]}],"samplers":[{}],"scene":0,"scenes":[{"name":"Root Scene","nodes":[0]}],"textures":[{"name":"base_color_texture","sampler":0,"source":0}]}