{"accessors":[{"bufferView":0,"byteOffset":0,"componentType":5123,"count":3222,"type":"SCALAR"},{"bufferView":1,"byteOffset":0,"componentType":5126,"count":822,"max":[0.00258576334454119,0.0455964095890522,0.000000000204783592860913],"min":[-0.07400298118591,-0.00276403594762,-0.07845818251371],"type":"VEC3"},{"bufferView":2,"byteOffset":0,"componentType":5126,"count":822,"type":"VEC3"},{"bufferView":3,"byteOffset":0,"componentType":5126,"count":822,"type":"VEC2"}],"asset":{"generator":"FBX2glTF v0.13.0","version":"2.0"},"bufferViews":[{"buffer":0,"byteLength":6444,"byteOffset":0,"target":34963},{"buffer":0,"byteLength":9864,"byteOffset":6444,"target":34962},{"buffer":0,"byteLength":9864,"byteOffset":16308,"target":34962},{"buffer":0,"byteLength":6576,"byteOffset":26172,"target":34962}],"buffers":[{"byteLength":32748,"uri":"rpgpp_av_roof_support_01_9x4x3_corner_01a.bin"}],"images":[{"name":"rpgpp_av_tex_a","uri":"../../Textures/rpgpp_av_tex_a.png"}],"materials":[{"alphaMode":"OPAQUE","doubleSided":false,"extras":{"fromFBX":{"isTruePBR":false,"shadingModel":"Phong"}},"name":"rpgpp_av_mat_a","pbrMetallicRoughness":{"baseColorFactor":[1,1,1,1],"baseColorTexture":{"index":0,"texCoord":0},"metallicFactor":0.400000005960464,"roughnessFactor":0.284101665019989}}],"meshes":[{"name":"rpgpp_av_roof_support_01_9x4x3_corner_01a","primitives":[{"attributes":{"NORMAL":2,"POSITION":1,"TEXCOORD_0":3},"indices":0,"material":0,"mode":4}]}],"nodes":[{"mesh":0,"name":"rpgpp_av_roof_support_01_9x4x3_corner_01a","rotation":[0,0,0,1],"scale":[1,1,1],"translation":[0,0,0]}],"samplers":[{}],"scene":0,"scenes":[{"name":"Root Scene","nodes":[0]}],"textures":[{"name":"base_color_texture","sampler":0,"source":0}]}