{"accessors":[{"bufferView":0,"byteOffset":0,"componentType":5123,"count":450,"type":"SCALAR"},{"bufferView":1,"byteOffset":0,"componentType":5126,"count":133,"max":[0.0150000024586916,0.00999999977648258,0.00231316313147545],"min":[-0.01499999500811,-0.00000000715256,-0.00231316359714],"type":"VEC3"},{"bufferView":2,"byteOffset":0,"componentType":5126,"count":133,"type":"VEC3"},{"bufferView":3,"byteOffset":0,"componentType":5126,"count":133,"type":"VEC2"}],"asset":{"generator":"FBX2glTF v0.13.0","version":"2.0"},"bufferViews":[{"buffer":0,"byteLength":900,"byteOffset":0,"target":34963},{"buffer":0,"byteLength":1596,"byteOffset":900,"target":34962},{"buffer":0,"byteLength":1596,"byteOffset":2496,"target":34962},{"buffer":0,"byteLength":1064,"byteOffset":4092,"target":34962}],"buffers":[{"byteLength":5156,"uri":"rpgpp_av_wall_03_3x1_a.bin"}],"images":[{"name":"rpgpp_av_tex_a","uri":"../../Textures/rpgpp_av_tex_a.png"}],"materials":[{"alphaMode":"OPAQUE","doubleSided":false,"extras":{"fromFBX":{"isTruePBR":false,"shadingModel":"Phong"}},"name":"rpgpp_av_mat_a","pbrMetallicRoughness":{"baseColorFactor":[1,1,1,1],"baseColorTexture":{"index":0,"texCoord":0},"metallicFactor":0.400000005960464,"roughnessFactor":0.284101665019989}}],"meshes":[{"name":"rpgpp_av_wall_03_3x1_a","primitives":[{"attributes":{"NORMAL":2,"POSITION":1,"TEXCOORD_0":3},"indices":0,"material":0,"mode":4}]}],"nodes":[{"mesh":0,"name":"rpgpp_av_wall_03_3x1_a","rotation":[0,0,0,1],"scale":[1,1,1],"translation":[0,0,0]}],"samplers":[{}],"scene":0,"scenes":[{"name":"Root Scene","nodes":[0]}],"textures":[{"name":"base_color_texture","sampler":0,"source":0}]}