{"accessors":[{"bufferView":0,"byteOffset":0,"componentType":5123,"count":2643,"type":"SCALAR"},{"bufferView":1,"byteOffset":0,"componentType":5126,"count":674,"max":[0.0371733419597149,0.0519999861717224,0.000000352859501617786],"min":[-0.03826903924346,0.00015887260087765,-0.03000252135098],"type":"VEC3"},{"bufferView":2,"byteOffset":0,"componentType":5126,"count":674,"type":"VEC3"},{"bufferView":3,"byteOffset":0,"componentType":5126,"count":674,"type":"VEC2"}],"asset":{"generator":"FBX2glTF v0.13.0","version":"2.0"},"bufferViews":[{"buffer":0,"byteLength":5286,"byteOffset":0,"target":34963},{"buffer":0,"byteLength":8088,"byteOffset":5288,"target":34962},{"buffer":0,"byteLength":8088,"byteOffset":13376,"target":34962},{"buffer":0,"byteLength":5392,"byteOffset":21464,"target":34962}],"buffers":[{"byteLength":26856,"uri":"rpgpp_av_roof_02_6x5x3_a.bin"}],"images":[{"name":"rpgpp_av_tex_a","uri":"../../Textures/rpgpp_av_tex_a.png"}],"materials":[{"alphaMode":"OPAQUE","doubleSided":false,"extras":{"fromFBX":{"isTruePBR":false,"shadingModel":"Phong"}},"name":"rpgpp_av_mat_a","pbrMetallicRoughness":{"baseColorFactor":[1,1,1,1],"baseColorTexture":{"index":0,"texCoord":0},"metallicFactor":0.400000005960464,"roughnessFactor":0.284101665019989}}],"meshes":[{"name":"rpgpp_av_roof_02_6x5x3_a","primitives":[{"attributes":{"NORMAL":2,"POSITION":1,"TEXCOORD_0":3},"indices":0,"material":0,"mode":4}]}],"nodes":[{"mesh":0,"name":"rpgpp_av_roof_02_6x5x3_a","rotation":[0,0,0,1],"scale":[1,1,1],"translation":[0,0,0]}],"samplers":[{}],"scene":0,"scenes":[{"name":"Root Scene","nodes":[0]}],"textures":[{"name":"base_color_texture","sampler":0,"source":0}]}