{"accessors":[{"bufferView":0,"byteOffset":0,"componentType":5123,"count":324,"type":"SCALAR"},{"bufferView":1,"byteOffset":0,"componentType":5126,"count":74,"max":[0.00536435935646296,0.0122408485040069,0.00354794738814235],"min":[-0.00531803257763,-0.00050443591317,-0.00494118966162],"type":"VEC3"},{"bufferView":2,"byteOffset":0,"componentType":5126,"count":74,"type":"VEC3"},{"bufferView":3,"byteOffset":0,"componentType":5126,"count":74,"type":"VEC2"}],"asset":{"generator":"FBX2glTF v0.13.0","version":"2.0"},"bufferViews":[{"buffer":0,"byteLength":648,"byteOffset":0,"target":34963},{"buffer":0,"byteLength":888,"byteOffset":648,"target":34962},{"buffer":0,"byteLength":888,"byteOffset":1536,"target":34962},{"buffer":0,"byteLength":592,"byteOffset":2424,"target":34962}],"buffers":[{"byteLength":3016,"uri":"rpgpp_av_window_02b.bin"}],"images":[{"name":"rpgpp_av_tex_a","uri":"../../Textures/rpgpp_av_tex_a.png"}],"materials":[{"alphaMode":"OPAQUE","doubleSided":false,"extras":{"fromFBX":{"isTruePBR":false,"shadingModel":"Phong"}},"name":"rpgpp_av_mat_a","pbrMetallicRoughness":{"baseColorFactor":[1,1,1,1],"baseColorTexture":{"index":0,"texCoord":0},"metallicFactor":0.400000005960464,"roughnessFactor":0.284101665019989}}],"meshes":[{"name":"rpgpp_av_window_02b","primitives":[{"attributes":{"NORMAL":2,"POSITION":1,"TEXCOORD_0":3},"indices":0,"material":0,"mode":4}]}],"nodes":[{"mesh":0,"name":"rpgpp_av_window_02b","rotation":[0,0,0,1],"scale":[1,1,1],"translation":[0,0,0]}],"samplers":[{}],"scene":0,"scenes":[{"name":"Root Scene","nodes":[0]}],"textures":[{"name":"base_color_texture","sampler":0,"source":0}]}