{"accessors":[{"bufferView":0,"byteOffset":0,"componentType":5123,"count":636,"type":"SCALAR"},{"bufferView":1,"byteOffset":0,"componentType":5126,"count":165,"max":[0.0108570354059339,0.0133810518309474,0.00463912822306156],"min":[-0.01126164849848,-0.00137534784153,-0.00284846592695],"type":"VEC3"},{"bufferView":2,"byteOffset":0,"componentType":5126,"count":165,"type":"VEC3"},{"bufferView":3,"byteOffset":0,"componentType":5126,"count":165,"type":"VEC2"}],"asset":{"generator":"FBX2glTF v0.13.0","version":"2.0"},"bufferViews":[{"buffer":0,"byteLength":1272,"byteOffset":0,"target":34963},{"buffer":0,"byteLength":1980,"byteOffset":1272,"target":34962},{"buffer":0,"byteLength":1980,"byteOffset":3252,"target":34962},{"buffer":0,"byteLength":1320,"byteOffset":5232,"target":34962}],"buffers":[{"byteLength":6552,"uri":"rpgpp_av_window_01c.bin"}],"images":[{"name":"rpgpp_av_tex_a","uri":"../../Textures/rpgpp_av_tex_a.png"}],"materials":[{"alphaMode":"OPAQUE","doubleSided":false,"extras":{"fromFBX":{"isTruePBR":false,"shadingModel":"Phong"}},"name":"rpgpp_av_mat_a","pbrMetallicRoughness":{"baseColorFactor":[1,1,1,1],"baseColorTexture":{"index":0,"texCoord":0},"metallicFactor":0.400000005960464,"roughnessFactor":0.284101665019989}}],"meshes":[{"name":"rpgpp_av_window_01c","primitives":[{"attributes":{"NORMAL":2,"POSITION":1,"TEXCOORD_0":3},"indices":0,"material":0,"mode":4}]}],"nodes":[{"mesh":0,"name":"rpgpp_av_window_01c","rotation":[0,0,0,1],"scale":[1,1,1],"translation":[0,0,0]}],"samplers":[{}],"scene":0,"scenes":[{"name":"Root Scene","nodes":[0]}],"textures":[{"name":"base_color_texture","sampler":0,"source":0}]}