{"accessors":[{"bufferView":0,"byteOffset":0,"componentType":5123,"count":2238,"type":"SCALAR"},{"bufferView":1,"byteOffset":0,"componentType":5126,"count":575,"max":[0.00567908817902207,0.0401242859661579,-0.00000000954256],"min":[-0.04395461082459,-0.00395732326433,-0.03000000119209],"type":"VEC3"},{"bufferView":2,"byteOffset":0,"componentType":5126,"count":575,"type":"VEC3"},{"bufferView":3,"byteOffset":0,"componentType":5126,"count":575,"type":"VEC2"}],"asset":{"generator":"FBX2glTF v0.13.0","version":"2.0"},"bufferViews":[{"buffer":0,"byteLength":4476,"byteOffset":0,"target":34963},{"buffer":0,"byteLength":6900,"byteOffset":4476,"target":34962},{"buffer":0,"byteLength":6900,"byteOffset":11376,"target":34962},{"buffer":0,"byteLength":4600,"byteOffset":18276,"target":34962}],"buffers":[{"byteLength":22876,"uri":"rpgpp_av_roof_01_6x3x3_half_d.bin"}],"images":[{"name":"rpgpp_av_tex_a","uri":"../../Textures/rpgpp_av_tex_a.png"}],"materials":[{"alphaMode":"OPAQUE","doubleSided":false,"extras":{"fromFBX":{"isTruePBR":false,"shadingModel":"Phong"}},"name":"rpgpp_av_mat_a","pbrMetallicRoughness":{"baseColorFactor":[1,1,1,1],"baseColorTexture":{"index":0,"texCoord":0},"metallicFactor":0.400000005960464,"roughnessFactor":0.284101665019989}}],"meshes":[{"name":"rpgpp_av_roof_01_6x3x3_half_d","primitives":[{"attributes":{"NORMAL":2,"POSITION":1,"TEXCOORD_0":3},"indices":0,"material":0,"mode":4}]}],"nodes":[{"mesh":0,"name":"rpgpp_av_roof_01_6x3x3_half_d","rotation":[0,0,0,1],"scale":[1,1,1],"translation":[0,0,0]}],"samplers":[{}],"scene":0,"scenes":[{"name":"Root Scene","nodes":[0]}],"textures":[{"name":"base_color_texture","sampler":0,"source":0}]}