{"accessors":[{"bufferView":0,"byteOffset":0,"componentType":5123,"count":1119,"type":"SCALAR"},{"bufferView":1,"byteOffset":0,"componentType":5126,"count":262,"max":[0.0000000151991841335075,0.0504054240882397,-0.00009292118193],"min":[-0.03721341863275,-0.00155937252566,-0.02999999932945],"type":"VEC3"},{"bufferView":2,"byteOffset":0,"componentType":5126,"count":262,"type":"VEC3"},{"bufferView":3,"byteOffset":0,"componentType":5126,"count":262,"type":"VEC2"}],"asset":{"generator":"FBX2glTF v0.13.0","version":"2.0"},"bufferViews":[{"buffer":0,"byteLength":2238,"byteOffset":0,"target":34963},{"buffer":0,"byteLength":3144,"byteOffset":2240,"target":34962},{"buffer":0,"byteLength":3144,"byteOffset":5384,"target":34962},{"buffer":0,"byteLength":2096,"byteOffset":8528,"target":34962}],"buffers":[{"byteLength":10624,"uri":"rpgpp_av_roof_02_6x5x3_half_d.bin"}],"images":[{"name":"rpgpp_av_tex_a","uri":"../../Textures/rpgpp_av_tex_a.png"}],"materials":[{"alphaMode":"OPAQUE","doubleSided":false,"extras":{"fromFBX":{"isTruePBR":false,"shadingModel":"Phong"}},"name":"rpgpp_av_mat_a","pbrMetallicRoughness":{"baseColorFactor":[1,1,1,1],"baseColorTexture":{"index":0,"texCoord":0},"metallicFactor":0.400000005960464,"roughnessFactor":0.284101665019989}}],"meshes":[{"name":"rpgpp_av_roof_02_6x5x3_half_d","primitives":[{"attributes":{"NORMAL":2,"POSITION":1,"TEXCOORD_0":3},"indices":0,"material":0,"mode":4}]}],"nodes":[{"mesh":0,"name":"rpgpp_av_roof_02_6x5x3_half_d","rotation":[0,0,0,1],"scale":[1,1,1],"translation":[0,0,0]}],"samplers":[{}],"scene":0,"scenes":[{"name":"Root Scene","nodes":[0]}],"textures":[{"name":"base_color_texture","sampler":0,"source":0}]}