{"accessors":[{"bufferView":0,"byteOffset":0,"componentType":5123,"count":336,"type":"SCALAR"},{"bufferView":1,"byteOffset":0,"componentType":5126,"count":99,"max":[0.0149999996647239,0.0305469203740358,0.00279574748128653],"min":[-0.00350266206078,0.00098797306418418,-0.00286262040026],"type":"VEC3"},{"bufferView":2,"byteOffset":0,"componentType":5126,"count":99,"type":"VEC3"},{"bufferView":3,"byteOffset":0,"componentType":5126,"count":99,"type":"VEC2"}],"asset":{"generator":"FBX2glTF v0.13.0","version":"2.0"},"bufferViews":[{"buffer":0,"byteLength":672,"byteOffset":0,"target":34963},{"buffer":0,"byteLength":1188,"byteOffset":672,"target":34962},{"buffer":0,"byteLength":1188,"byteOffset":1860,"target":34962},{"buffer":0,"byteLength":792,"byteOffset":3048,"target":34962}],"buffers":[{"byteLength":3840,"uri":"rpgpp_av_wall_beam_06_3x3.bin"}],"images":[{"name":"rpgpp_av_tex_a","uri":"../../Textures/rpgpp_av_tex_a.png"}],"materials":[{"alphaMode":"OPAQUE","doubleSided":false,"extras":{"fromFBX":{"isTruePBR":false,"shadingModel":"Phong"}},"name":"rpgpp_av_mat_a","pbrMetallicRoughness":{"baseColorFactor":[1,1,1,1],"baseColorTexture":{"index":0,"texCoord":0},"metallicFactor":0.400000005960464,"roughnessFactor":0.284101665019989}}],"meshes":[{"name":"rpgpp_av_wall_beam_06_3x3","primitives":[{"attributes":{"NORMAL":2,"POSITION":1,"TEXCOORD_0":3},"indices":0,"material":0,"mode":4}]}],"nodes":[{"mesh":0,"name":"rpgpp_av_wall_beam_06_3x3","rotation":[0,0,0,1],"scale":[1,1,1],"translation":[0,-0.0010000000475,0]}],"samplers":[{}],"scene":0,"scenes":[{"name":"Root Scene","nodes":[0]}],"textures":[{"name":"base_color_texture","sampler":0,"source":0}]}