{"accessors":[{"bufferView":0,"byteOffset":0,"componentType":5123,"count":1197,"type":"SCALAR"},{"bufferView":1,"byteOffset":0,"componentType":5126,"count":243,"max":[0.0131382402032614,0.0164448395371437,0.00285460730083287],"min":[-0.0008623576141,-0.00683120219037,-0.00338578224182],"type":"VEC3"},{"bufferView":2,"byteOffset":0,"componentType":5126,"count":243,"type":"VEC3"},{"bufferView":3,"byteOffset":0,"componentType":5126,"count":243,"type":"VEC2"}],"asset":{"generator":"FBX2glTF v0.13.0","version":"2.0"},"bufferViews":[{"buffer":0,"byteLength":2394,"byteOffset":0,"target":34963},{"buffer":0,"byteLength":2916,"byteOffset":2396,"target":34962},{"buffer":0,"byteLength":2916,"byteOffset":5312,"target":34962},{"buffer":0,"byteLength":1944,"byteOffset":8228,"target":34962}],"buffers":[{"byteLength":10172,"uri":"rpgpp_av_door_02b.bin"}],"images":[{"name":"rpgpp_av_tex_a","uri":"../../Textures/rpgpp_av_tex_a.png"}],"materials":[{"alphaMode":"OPAQUE","doubleSided":false,"extras":{"fromFBX":{"isTruePBR":false,"shadingModel":"Phong"}},"name":"rpgpp_av_mat_a","pbrMetallicRoughness":{"baseColorFactor":[1,1,1,1],"baseColorTexture":{"index":0,"texCoord":0},"metallicFactor":0.400000005960464,"roughnessFactor":0.284101665019989}}],"meshes":[{"name":"rpgpp_av_door_02b","primitives":[{"attributes":{"NORMAL":2,"POSITION":1,"TEXCOORD_0":3},"indices":0,"material":0,"mode":4}]}],"nodes":[{"mesh":0,"name":"rpgpp_av_door_02b","rotation":[0,0,0,1],"scale":[1,1,1],"translation":[-0.00638087326661,0.00832329224795103,-0.00293786777183]}],"samplers":[{}],"scene":0,"scenes":[{"name":"Root Scene","nodes":[0]}],"textures":[{"name":"base_color_texture","sampler":0,"source":0}]}