{"accessors":[{"bufferView":0,"byteOffset":0,"componentType":5123,"count":1587,"type":"SCALAR"},{"bufferView":1,"byteOffset":0,"componentType":5126,"count":506,"max":[0.0334848538041115,0.0485461838543415,0.00195082172285765],"min":[-0.0339908786118,-0.00000001430511,-0.00193327805027],"type":"VEC3"},{"bufferView":2,"byteOffset":0,"componentType":5126,"count":506,"type":"VEC3"},{"bufferView":3,"byteOffset":0,"componentType":5126,"count":506,"type":"VEC2"}],"asset":{"generator":"FBX2glTF v0.13.0","version":"2.0"},"bufferViews":[{"buffer":0,"byteLength":3174,"byteOffset":0,"target":34963},{"buffer":0,"byteLength":6072,"byteOffset":3176,"target":34962},{"buffer":0,"byteLength":6072,"byteOffset":9248,"target":34962},{"buffer":0,"byteLength":4048,"byteOffset":15320,"target":34962}],"buffers":[{"byteLength":19368,"uri":"rpgpp_av_roof_end_01_6x5_wall_door_02a.bin"}],"images":[{"name":"rpgpp_av_tex_a","uri":"../../Textures/rpgpp_av_tex_a.png"}],"materials":[{"alphaMode":"OPAQUE","doubleSided":false,"extras":{"fromFBX":{"isTruePBR":false,"shadingModel":"Phong"}},"name":"rpgpp_av_mat_a","pbrMetallicRoughness":{"baseColorFactor":[1,1,1,1],"baseColorTexture":{"index":0,"texCoord":0},"metallicFactor":0.400000005960464,"roughnessFactor":0.284101665019989}}],"meshes":[{"name":"rpgpp_av_roof_end_01_6x5_wall_door_02a","primitives":[{"attributes":{"NORMAL":2,"POSITION":1,"TEXCOORD_0":3},"indices":0,"material":0,"mode":4}]}],"nodes":[{"mesh":0,"name":"rpgpp_av_roof_end_01_6x5_wall_door_02a","rotation":[0,0,0,1],"scale":[1,1,1],"translation":[0,0,0]}],"samplers":[{}],"scene":0,"scenes":[{"name":"Root Scene","nodes":[0]}],"textures":[{"name":"base_color_texture","sampler":0,"source":0}]}