{"accessors":[{"bufferView":0,"byteOffset":0,"componentType":5123,"count":744,"type":"SCALAR"},{"bufferView":1,"byteOffset":0,"componentType":5126,"count":241,"max":[0.0113896951079369,0.0300000011920929,0.0048656165599823],"min":[-0.01141600962728,0,-0.00470280507579],"type":"VEC3"},{"bufferView":2,"byteOffset":0,"componentType":5126,"count":241,"type":"VEC3"},{"bufferView":3,"byteOffset":0,"componentType":5126,"count":241,"type":"VEC2"}],"asset":{"generator":"FBX2glTF v0.13.1","version":"2.0"},"bufferViews":[{"buffer":0,"byteLength":1488,"byteOffset":0,"target":34963},{"buffer":0,"byteLength":2892,"byteOffset":1488,"target":34962},{"buffer":0,"byteLength":2892,"byteOffset":4380,"target":34962},{"buffer":0,"byteLength":1928,"byteOffset":7272,"target":34962}],"buffers":[{"byteLength":9200,"uri":"rpgpp_av_door_frame_02.bin"}],"images":[{"name":"rpgpp_av_tex_a","uri":"../../Textures/rpgpp_av_tex_a.png"}],"materials":[{"alphaMode":"OPAQUE","doubleSided":false,"extras":{"fromFBX":{"isTruePBR":false,"shadingModel":"Phong"}},"name":"rpgpp_av_mat_a","pbrMetallicRoughness":{"baseColorFactor":[1,1,1,1],"baseColorTexture":{"index":0,"texCoord":0},"metallicFactor":0.400000005960464,"roughnessFactor":0.284101665019989}}],"meshes":[{"name":"rpgpp_av_door_frame_02","primitives":[{"attributes":{"NORMAL":2,"POSITION":1,"TEXCOORD_0":3},"indices":0,"material":0,"mode":4}]}],"nodes":[{"mesh":0,"name":"rpgpp_av_door_frame_02","rotation":[0,0,0,1],"scale":[1,1,1],"translation":[0,0,0]}],"samplers":[{}],"scene":0,"scenes":[{"name":"Root Scene","nodes":[0]}],"textures":[{"name":"base_color_texture","sampler":0,"source":0}]}