{"accessors":[{"bufferView":0,"byteOffset":0,"componentType":5123,"count":2847,"type":"SCALAR"},{"bufferView":1,"byteOffset":0,"componentType":5126,"count":1971,"max":[0.0215032193809748,0.0599350109696388,0.014019793830812],"min":[-0.0238717328757,-0.00002282619425,-0.01405493263155],"type":"VEC3"},{"bufferView":2,"byteOffset":0,"componentType":5126,"count":1971,"type":"VEC3"},{"bufferView":3,"byteOffset":0,"componentType":5126,"count":1971,"type":"VEC2"}],"asset":{"generator":"FBX2glTF v0.13.1","version":"2.0"},"bufferViews":[{"buffer":0,"byteLength":5694,"byteOffset":0,"target":34963},{"buffer":0,"byteLength":23652,"byteOffset":5696,"target":34962},{"buffer":0,"byteLength":23652,"byteOffset":29348,"target":34962},{"buffer":0,"byteLength":15768,"byteOffset":53000,"target":34962}],"buffers":[{"byteLength":68768,"uri":"rpgpp_av_water_platform_01f.bin"}],"images":[{"name":"rpgpp_ag_tex_a","uri":"rpgpp_ag_tex_a.png"}],"materials":[{"alphaMode":"OPAQUE","doubleSided":false,"extras":{"fromFBX":{"isTruePBR":false,"shadingModel":"Phong"}},"name":"rpgpp_st_mat_a","pbrMetallicRoughness":{"baseColorFactor":[1,1,1,1],"baseColorTexture":{"index":0,"texCoord":0},"metallicFactor":0.400000005960464,"roughnessFactor":0.284101665019989}}],"meshes":[{"name":"rpgpp_av_water_platform_01f","primitives":[{"attributes":{"NORMAL":2,"POSITION":1,"TEXCOORD_0":3},"indices":0,"material":0,"mode":4}]}],"nodes":[{"mesh":0,"name":"rpgpp_av_water_platform_01f","rotation":[0,0,0,1],"scale":[1,1,1],"translation":[0,0,0]}],"samplers":[{}],"scene":0,"scenes":[{"name":"Root Scene","nodes":[0]}],"textures":[{"name":"base_color_texture","sampler":0,"source":0}]}