{"accessors":[{"bufferView":0,"byteOffset":0,"componentType":5123,"count":420,"type":"SCALAR"},{"bufferView":1,"byteOffset":0,"componentType":5126,"count":124,"max":[0.0116929989308119,0.0297582764178514,0.00249213562346995],"min":[-0.01063480321318,0.00069445808185264,-0.00247201276943],"type":"VEC3"},{"bufferView":2,"byteOffset":0,"componentType":5126,"count":124,"type":"VEC3"},{"bufferView":3,"byteOffset":0,"componentType":5126,"count":124,"type":"VEC2"}],"asset":{"generator":"FBX2glTF v0.13.1","version":"2.0"},"bufferViews":[{"buffer":0,"byteLength":840,"byteOffset":0,"target":34963},{"buffer":0,"byteLength":1488,"byteOffset":840,"target":34962},{"buffer":0,"byteLength":1488,"byteOffset":2328,"target":34962},{"buffer":0,"byteLength":992,"byteOffset":3816,"target":34962}],"buffers":[{"byteLength":4808,"uri":"rpgpp_av_wall_beam_02_3x3.bin"}],"images":[{"name":"rpgpp_av_tex_a","uri":"../../Textures/rpgpp_av_tex_a.png"}],"materials":[{"alphaMode":"OPAQUE","doubleSided":false,"extras":{"fromFBX":{"isTruePBR":false,"shadingModel":"Phong"}},"name":"rpgpp_av_mat_a","pbrMetallicRoughness":{"baseColorFactor":[1,1,1,1],"baseColorTexture":{"index":0,"texCoord":0},"metallicFactor":0.400000005960464,"roughnessFactor":0.284101665019989}}],"meshes":[{"name":"rpgpp_av_wall_beam_02_3x3","primitives":[{"attributes":{"NORMAL":2,"POSITION":1,"TEXCOORD_0":3},"indices":0,"material":0,"mode":4}]}],"nodes":[{"mesh":0,"name":"rpgpp_av_wall_beam_02_3x3","rotation":[0,0,0,1],"scale":[1,1,1],"translation":[0,0,0]}],"samplers":[{}],"scene":0,"scenes":[{"name":"Root Scene","nodes":[0]}],"textures":[{"name":"base_color_texture","sampler":0,"source":0}]}