{"accessors":[{"bufferView":0,"byteOffset":0,"componentType":5123,"count":3387,"type":"SCALAR"},{"bufferView":1,"byteOffset":0,"componentType":5126,"count":2217,"max":[0.0215032193809748,0.0617305040359497,0.0140767674893141],"min":[-0.02335195057094,-0.00002282619425,-0.01386934984475],"type":"VEC3"},{"bufferView":2,"byteOffset":0,"componentType":5126,"count":2217,"type":"VEC3"},{"bufferView":3,"byteOffset":0,"componentType":5126,"count":2217,"type":"VEC2"}],"asset":{"generator":"FBX2glTF v0.13.1","version":"2.0"},"bufferViews":[{"buffer":0,"byteLength":6774,"byteOffset":0,"target":34963},{"buffer":0,"byteLength":26604,"byteOffset":6776,"target":34962},{"buffer":0,"byteLength":26604,"byteOffset":33380,"target":34962},{"buffer":0,"byteLength":17736,"byteOffset":59984,"target":34962}],"buffers":[{"byteLength":77720,"uri":"rpgpp_av_water_platform_01d.bin"}],"images":[{"name":"rpgpp_ag_tex_a","uri":"rpgpp_ag_tex_a.png"}],"materials":[{"alphaMode":"OPAQUE","doubleSided":false,"extras":{"fromFBX":{"isTruePBR":false,"shadingModel":"Phong"}},"name":"rpgpp_st_mat_a","pbrMetallicRoughness":{"baseColorFactor":[1,1,1,1],"baseColorTexture":{"index":0,"texCoord":0},"metallicFactor":0.400000005960464,"roughnessFactor":0.284101665019989}}],"meshes":[{"name":"rpgpp_av_water_platform_01d","primitives":[{"attributes":{"NORMAL":2,"POSITION":1,"TEXCOORD_0":3},"indices":0,"material":0,"mode":4}]}],"nodes":[{"mesh":0,"name":"rpgpp_av_water_platform_01d","rotation":[0,0,0,1],"scale":[1,1,1],"translation":[0,0,0]}],"samplers":[{}],"scene":0,"scenes":[{"name":"Root Scene","nodes":[0]}],"textures":[{"name":"base_color_texture","sampler":0,"source":0}]}