{"accessors":[{"bufferView":0,"byteOffset":0,"componentType":5123,"count":9336,"type":"SCALAR"},{"bufferView":1,"byteOffset":0,"componentType":5126,"count":2494,"max":[0.0065285312011838,0.0627637207508087,0.0000000335276126861572],"min":[-0.05901025608182,-0.00321656512097,-0.06552855670452],"type":"VEC3"},{"bufferView":2,"byteOffset":0,"componentType":5126,"count":2494,"type":"VEC3"},{"bufferView":3,"byteOffset":0,"componentType":5126,"count":2494,"type":"VEC2"}],"asset":{"generator":"FBX2glTF v0.13.1","version":"2.0"},"bufferViews":[{"buffer":0,"byteLength":18672,"byteOffset":0,"target":34963},{"buffer":0,"byteLength":29928,"byteOffset":18672,"target":34962},{"buffer":0,"byteLength":29928,"byteOffset":48600,"target":34962},{"buffer":0,"byteLength":19952,"byteOffset":78528,"target":34962}],"buffers":[{"byteLength":98480,"uri":"rpgpp_av_roof_01_6x5x3_corner_01.bin"}],"images":[{"name":"rpgpp_av_tex_a","uri":"../../Textures/rpgpp_av_tex_a.png"}],"materials":[{"alphaMode":"OPAQUE","doubleSided":false,"extras":{"fromFBX":{"isTruePBR":false,"shadingModel":"Phong"}},"name":"rpgpp_av_mat_a","pbrMetallicRoughness":{"baseColorFactor":[1,1,1,1],"baseColorTexture":{"index":0,"texCoord":0},"metallicFactor":0.400000005960464,"roughnessFactor":0.284101665019989}}],"meshes":[{"name":"rpgpp_av_roof_01_6x5x3_corner_01","primitives":[{"attributes":{"NORMAL":2,"POSITION":1,"TEXCOORD_0":3},"indices":0,"material":0,"mode":4}]}],"nodes":[{"mesh":0,"name":"rpgpp_av_roof_01_6x5x3_corner_01","rotation":[0,0,0,1],"scale":[1,1,1],"translation":[0,0,0]}],"samplers":[{}],"scene":0,"scenes":[{"name":"Root Scene","nodes":[0]}],"textures":[{"name":"base_color_texture","sampler":0,"source":0}]}