{"accessors":[{"bufferView":0,"byteOffset":0,"componentType":5123,"count":663,"type":"SCALAR"},{"bufferView":1,"byteOffset":0,"componentType":5126,"count":403,"max":[0.0149999996647239,0.0299999993294477,0.00186783133540303],"min":[0.00000000999999993922529,0.00000000000326004306015759,-0.00190804922022],"type":"VEC3"},{"bufferView":2,"byteOffset":0,"componentType":5126,"count":403,"type":"VEC3"},{"bufferView":3,"byteOffset":0,"componentType":5126,"count":403,"type":"VEC2"}],"asset":{"generator":"FBX2glTF v0.13.1","version":"2.0"},"bufferViews":[{"buffer":0,"byteLength":1326,"byteOffset":0,"target":34963},{"buffer":0,"byteLength":4836,"byteOffset":1328,"target":34962},{"buffer":0,"byteLength":4836,"byteOffset":6164,"target":34962},{"buffer":0,"byteLength":3224,"byteOffset":11000,"target":34962}],"buffers":[{"byteLength":14224,"uri":"rpgpp_av_wall_01_1.5x3_b.bin"}],"images":[{"name":"rpgpp_av_tex_a","uri":"../../Textures/rpgpp_av_tex_a.png"}],"materials":[{"alphaMode":"OPAQUE","doubleSided":false,"extras":{"fromFBX":{"isTruePBR":false,"shadingModel":"Phong"}},"name":"rpgpp_av_mat_a","pbrMetallicRoughness":{"baseColorFactor":[1,1,1,1],"baseColorTexture":{"index":0,"texCoord":0},"metallicFactor":0.400000005960464,"roughnessFactor":0.284101665019989}}],"meshes":[{"name":"rpgpp_av_wall_01_1.5x3_b","primitives":[{"attributes":{"NORMAL":2,"POSITION":1,"TEXCOORD_0":3},"indices":0,"material":0,"mode":4}]}],"nodes":[{"mesh":0,"name":"rpgpp_av_wall_01_1.5x3_b","rotation":[0,0,0,1],"scale":[1,1,1],"translation":[0,0,0]}],"samplers":[{}],"scene":0,"scenes":[{"name":"Root Scene","nodes":[0]}],"textures":[{"name":"base_color_texture","sampler":0,"source":0}]}