{"accessors":[{"bufferView":0,"byteOffset":0,"componentType":5123,"count":735,"type":"SCALAR"},{"bufferView":1,"byteOffset":0,"componentType":5126,"count":251,"max":[0.0150000052526593,0.0300000049173832,0.00186783261597157],"min":[-0.0000000000005,0.00000000942213329579999,-0.0019100010395],"type":"VEC3"},{"bufferView":2,"byteOffset":0,"componentType":5126,"count":251,"type":"VEC3"},{"bufferView":3,"byteOffset":0,"componentType":5126,"count":251,"type":"VEC2"}],"asset":{"generator":"FBX2glTF v0.13.1","version":"2.0"},"bufferViews":[{"buffer":0,"byteLength":1470,"byteOffset":0,"target":34963},{"buffer":0,"byteLength":3012,"byteOffset":1472,"target":34962},{"buffer":0,"byteLength":3012,"byteOffset":4484,"target":34962},{"buffer":0,"byteLength":2008,"byteOffset":7496,"target":34962}],"buffers":[{"byteLength":9504,"uri":"rpgpp_av_wall_02_1.5x3_a.bin"}],"images":[{"name":"rpgpp_av_tex_a","uri":"../../Textures/rpgpp_av_tex_a.png"}],"materials":[{"alphaMode":"OPAQUE","doubleSided":false,"extras":{"fromFBX":{"isTruePBR":false,"shadingModel":"Phong"}},"name":"rpgpp_av_mat_a","pbrMetallicRoughness":{"baseColorFactor":[1,1,1,1],"baseColorTexture":{"index":0,"texCoord":0},"metallicFactor":0.400000005960464,"roughnessFactor":0.284101665019989}}],"meshes":[{"name":"rpgpp_av_wall_02_1.5x3_a","primitives":[{"attributes":{"NORMAL":2,"POSITION":1,"TEXCOORD_0":3},"indices":0,"material":0,"mode":4}]}],"nodes":[{"mesh":0,"name":"rpgpp_av_wall_02_1.5x3_a","rotation":[0,0,0,1],"scale":[1,1,1],"translation":[0,0,0]}],"samplers":[{}],"scene":0,"scenes":[{"name":"Root Scene","nodes":[0]}],"textures":[{"name":"base_color_texture","sampler":0,"source":0}]}