{"accessors":[{"bufferView":0,"byteOffset":0,"componentType":5123,"count":1665,"type":"SCALAR"},{"bufferView":1,"byteOffset":0,"componentType":5126,"count":521,"max":[0.0150000024586916,0.0299999993294477,0.00231316569261253],"min":[-0.01500000432134,-0.00000000238419,-0.00231316126883],"type":"VEC3"},{"bufferView":2,"byteOffset":0,"componentType":5126,"count":521,"type":"VEC3"},{"bufferView":3,"byteOffset":0,"componentType":5126,"count":521,"type":"VEC2"}],"asset":{"generator":"FBX2glTF v0.13.1","version":"2.0"},"bufferViews":[{"buffer":0,"byteLength":3330,"byteOffset":0,"target":34963},{"buffer":0,"byteLength":6252,"byteOffset":3332,"target":34962},{"buffer":0,"byteLength":6252,"byteOffset":9584,"target":34962},{"buffer":0,"byteLength":4168,"byteOffset":15836,"target":34962}],"buffers":[{"byteLength":20004,"uri":"rpgpp_av_wall_03_3x3_window_03a.bin"}],"images":[{"name":"rpgpp_av_tex_a","uri":"../../Textures/rpgpp_av_tex_a.png"}],"materials":[{"alphaMode":"OPAQUE","doubleSided":false,"extras":{"fromFBX":{"isTruePBR":false,"shadingModel":"Phong"}},"name":"rpgpp_av_mat_a","pbrMetallicRoughness":{"baseColorFactor":[1,1,1,1],"baseColorTexture":{"index":0,"texCoord":0},"metallicFactor":0.400000005960464,"roughnessFactor":0.284101665019989}}],"meshes":[{"name":"rpgpp_av_wall_03_3x3_window_03a","primitives":[{"attributes":{"NORMAL":2,"POSITION":1,"TEXCOORD_0":3},"indices":0,"material":0,"mode":4}]}],"nodes":[{"mesh":0,"name":"rpgpp_av_wall_03_3x3_window_03a","rotation":[0,0,0,1],"scale":[1,1,1],"translation":[0,0,0]}],"samplers":[{}],"scene":0,"scenes":[{"name":"Root Scene","nodes":[0]}],"textures":[{"name":"base_color_texture","sampler":0,"source":0}]}