{"accessors":[{"bufferView":0,"byteOffset":0,"componentType":5123,"count":1731,"type":"SCALAR"},{"bufferView":1,"byteOffset":0,"componentType":5126,"count":624,"max":[0.048224788159132,0.0423493199050426,0.00190104090142995],"min":[-0.04855661466718,-0.00003034770452,-0.00196567806415],"type":"VEC3"},{"bufferView":2,"byteOffset":0,"componentType":5126,"count":624,"type":"VEC3"},{"bufferView":3,"byteOffset":0,"componentType":5126,"count":624,"type":"VEC2"}],"asset":{"generator":"FBX2glTF v0.13.1","version":"2.0"},"bufferViews":[{"buffer":0,"byteLength":3462,"byteOffset":0,"target":34963},{"buffer":0,"byteLength":7488,"byteOffset":3464,"target":34962},{"buffer":0,"byteLength":7488,"byteOffset":10952,"target":34962},{"buffer":0,"byteLength":4992,"byteOffset":18440,"target":34962}],"buffers":[{"byteLength":23432,"uri":"rpgpp_av_roof_end_01_9x4_wall_door_01a.bin"}],"images":[{"name":"rpgpp_av_tex_a","uri":"../../Textures/rpgpp_av_tex_a.png"}],"materials":[{"alphaMode":"OPAQUE","doubleSided":false,"extras":{"fromFBX":{"isTruePBR":false,"shadingModel":"Phong"}},"name":"rpgpp_av_mat_a","pbrMetallicRoughness":{"baseColorFactor":[1,1,1,1],"baseColorTexture":{"index":0,"texCoord":0},"metallicFactor":0.400000005960464,"roughnessFactor":0.284101665019989}}],"meshes":[{"name":"rpgpp_av_roof_end_01_9x4_wall_door_01a","primitives":[{"attributes":{"NORMAL":2,"POSITION":1,"TEXCOORD_0":3},"indices":0,"material":0,"mode":4}]}],"nodes":[{"mesh":0,"name":"rpgpp_av_roof_end_01_9x4_wall_door_01a","rotation":[0,0,0,1],"scale":[1,1,1],"translation":[0,0,0]}],"samplers":[{}],"scene":0,"scenes":[{"name":"Root Scene","nodes":[0]}],"textures":[{"name":"base_color_texture","sampler":0,"source":0}]}