{"accessors":[{"bufferView":0,"byteOffset":0,"componentType":5123,"count":5400,"type":"SCALAR"},{"bufferView":1,"byteOffset":0,"componentType":5126,"count":1414,"max":[0.0430506467819214,0.0417294576764107,-0.00000000953674],"min":[-0.04518830031157,-0.00405256543308,-0.0300000179559],"type":"VEC3"},{"bufferView":2,"byteOffset":0,"componentType":5126,"count":1414,"type":"VEC3"},{"bufferView":3,"byteOffset":0,"componentType":5126,"count":1414,"type":"VEC2"}],"asset":{"generator":"FBX2glTF v0.13.1","version":"2.0"},"bufferViews":[{"buffer":0,"byteLength":10800,"byteOffset":0,"target":34963},{"buffer":0,"byteLength":16968,"byteOffset":10800,"target":34962},{"buffer":0,"byteLength":16968,"byteOffset":27768,"target":34962},{"buffer":0,"byteLength":11312,"byteOffset":44736,"target":34962}],"buffers":[{"byteLength":56048,"uri":"rpgpp_av_roof_01_6x3x3_a.bin"}],"images":[{"name":"rpgpp_av_tex_a","uri":"../../Textures/rpgpp_av_tex_a.png"}],"materials":[{"alphaMode":"OPAQUE","doubleSided":false,"extras":{"fromFBX":{"isTruePBR":false,"shadingModel":"Phong"}},"name":"rpgpp_av_mat_a","pbrMetallicRoughness":{"baseColorFactor":[1,1,1,1],"baseColorTexture":{"index":0,"texCoord":0},"metallicFactor":0.400000005960464,"roughnessFactor":0.284101665019989}}],"meshes":[{"name":"rpgpp_av_roof_01_6x3x3_a","primitives":[{"attributes":{"NORMAL":2,"POSITION":1,"TEXCOORD_0":3},"indices":0,"material":0,"mode":4}]}],"nodes":[{"mesh":0,"name":"rpgpp_av_roof_01_6x3x3_a","rotation":[0,0,0,1],"scale":[1,1,1],"translation":[0,0,0]}],"samplers":[{}],"scene":0,"scenes":[{"name":"Root Scene","nodes":[0]}],"textures":[{"name":"base_color_texture","sampler":0,"source":0}]}