{"accessors":[{"bufferView":0,"byteOffset":0,"componentType":5123,"count":342,"type":"SCALAR"},{"bufferView":1,"byteOffset":0,"componentType":5126,"count":119,"max":[0.0150000024586916,0.0100400019437075,0.00174291373696178],"min":[-0.01500000059605,0,-0.00178204709664],"type":"VEC3"},{"bufferView":2,"byteOffset":0,"componentType":5126,"count":119,"type":"VEC3"},{"bufferView":3,"byteOffset":0,"componentType":5126,"count":119,"type":"VEC2"}],"asset":{"generator":"FBX2glTF v0.13.1","version":"2.0"},"bufferViews":[{"buffer":0,"byteLength":684,"byteOffset":0,"target":34963},{"buffer":0,"byteLength":1428,"byteOffset":684,"target":34962},{"buffer":0,"byteLength":1428,"byteOffset":2112,"target":34962},{"buffer":0,"byteLength":952,"byteOffset":3540,"target":34962}],"buffers":[{"byteLength":4492,"uri":"rpgpp_av_wall_01_3x1_c.bin"}],"images":[{"name":"rpgpp_av_tex_a","uri":"../../Textures/rpgpp_av_tex_a.png"}],"materials":[{"alphaMode":"OPAQUE","doubleSided":false,"extras":{"fromFBX":{"isTruePBR":false,"shadingModel":"Phong"}},"name":"rpgpp_av_mat_a","pbrMetallicRoughness":{"baseColorFactor":[1,1,1,1],"baseColorTexture":{"index":0,"texCoord":0},"metallicFactor":0.400000005960464,"roughnessFactor":0.284101665019989}}],"meshes":[{"name":"rpgpp_av_wall_01_3x1_c","primitives":[{"attributes":{"NORMAL":2,"POSITION":1,"TEXCOORD_0":3},"indices":0,"material":0,"mode":4}]}],"nodes":[{"mesh":0,"name":"rpgpp_av_wall_01_3x1_c","rotation":[0,0,0,1],"scale":[1,1,1],"translation":[0,0,0]}],"samplers":[{}],"scene":0,"scenes":[{"name":"Root Scene","nodes":[0]}],"textures":[{"name":"base_color_texture","sampler":0,"source":0}]}