{"accessors":[{"bufferView":0,"byteOffset":0,"componentType":5123,"count":2244,"type":"SCALAR"},{"bufferView":1,"byteOffset":0,"componentType":5126,"count":442,"max":[0.0142497168853879,0.0148381143808365,0.00736545911058784],"min":[-0.0141243012622,-0.00000000238419,-0.00256148097105],"type":"VEC3"},{"bufferView":2,"byteOffset":0,"componentType":5126,"count":442,"type":"VEC3"},{"bufferView":3,"byteOffset":0,"componentType":5126,"count":442,"type":"VEC2"}],"asset":{"generator":"FBX2glTF v0.13.1","version":"2.0"},"bufferViews":[{"buffer":0,"byteLength":4488,"byteOffset":0,"target":34963},{"buffer":0,"byteLength":5304,"byteOffset":4488,"target":34962},{"buffer":0,"byteLength":5304,"byteOffset":9792,"target":34962},{"buffer":0,"byteLength":3536,"byteOffset":15096,"target":34962}],"buffers":[{"byteLength":18632,"uri":"rpgpp_av_fence_01c_2m.bin"}],"images":[{"name":"rpgpp_av_tex_a","uri":"../../Textures/rpgpp_av_tex_a.png"}],"materials":[{"alphaMode":"OPAQUE","doubleSided":false,"extras":{"fromFBX":{"isTruePBR":false,"shadingModel":"Phong"}},"name":"rpgpp_av_mat_a","pbrMetallicRoughness":{"baseColorFactor":[1,1,1,1],"baseColorTexture":{"index":0,"texCoord":0},"metallicFactor":0.400000005960464,"roughnessFactor":0.284101665019989}}],"meshes":[{"name":"rpgpp_av_fence_01c_2m","primitives":[{"attributes":{"NORMAL":2,"POSITION":1,"TEXCOORD_0":3},"indices":0,"material":0,"mode":4}]}],"nodes":[{"mesh":0,"name":"rpgpp_av_fence_01c_2m","rotation":[0,0,0,1],"scale":[1,1,1],"translation":[0,0,0]}],"samplers":[{}],"scene":0,"scenes":[{"name":"Root Scene","nodes":[0]}],"textures":[{"name":"base_color_texture","sampler":0,"source":0}]}