{"accessors":[{"bufferView":0,"byteOffset":0,"componentType":5123,"count":2826,"type":"SCALAR"},{"bufferView":1,"byteOffset":0,"componentType":5126,"count":716,"max":[0.048224788159132,0.0423113368451595,0.00231316313147545],"min":[-0.04855662211776,-0.00003034770452,-0.00231316382997],"type":"VEC3"},{"bufferView":2,"byteOffset":0,"componentType":5126,"count":716,"type":"VEC3"},{"bufferView":3,"byteOffset":0,"componentType":5126,"count":716,"type":"VEC2"}],"asset":{"generator":"FBX2glTF v0.13.1","version":"2.0"},"bufferViews":[{"buffer":0,"byteLength":5652,"byteOffset":0,"target":34963},{"buffer":0,"byteLength":8592,"byteOffset":5652,"target":34962},{"buffer":0,"byteLength":8592,"byteOffset":14244,"target":34962},{"buffer":0,"byteLength":5728,"byteOffset":22836,"target":34962}],"buffers":[{"byteLength":28564,"uri":"rpgpp_av_roof_end_01_9x4_wall_door_03a.bin"}],"images":[{"name":"rpgpp_av_tex_a","uri":"../../Textures/rpgpp_av_tex_a.png"}],"materials":[{"alphaMode":"OPAQUE","doubleSided":false,"extras":{"fromFBX":{"isTruePBR":false,"shadingModel":"Phong"}},"name":"rpgpp_av_mat_a","pbrMetallicRoughness":{"baseColorFactor":[1,1,1,1],"baseColorTexture":{"index":0,"texCoord":0},"metallicFactor":0.400000005960464,"roughnessFactor":0.284101665019989}}],"meshes":[{"name":"rpgpp_av_roof_end_01_9x4_wall_door_03a","primitives":[{"attributes":{"NORMAL":2,"POSITION":1,"TEXCOORD_0":3},"indices":0,"material":0,"mode":4}]}],"nodes":[{"mesh":0,"name":"rpgpp_av_roof_end_01_9x4_wall_door_03a","rotation":[0,0,0,1],"scale":[1,1,1],"translation":[0,0,0]}],"samplers":[{}],"scene":0,"scenes":[{"name":"Root Scene","nodes":[0]}],"textures":[{"name":"base_color_texture","sampler":0,"source":0}]}