{"accessors":[{"bufferView":0,"byteOffset":0,"componentType":5123,"count":2016,"type":"SCALAR"},{"bufferView":1,"byteOffset":0,"componentType":5126,"count":536,"max":[0.0337099321186543,0.0485603846609592,0.00257138721644878],"min":[-0.0340290479362,-0.00005057036833,-0.00257138721645],"type":"VEC3"},{"bufferView":2,"byteOffset":0,"componentType":5126,"count":536,"type":"VEC3"},{"bufferView":3,"byteOffset":0,"componentType":5126,"count":536,"type":"VEC2"}],"asset":{"generator":"FBX2glTF v0.13.1","version":"2.0"},"bufferViews":[{"buffer":0,"byteLength":4032,"byteOffset":0,"target":34963},{"buffer":0,"byteLength":6432,"byteOffset":4032,"target":34962},{"buffer":0,"byteLength":6432,"byteOffset":10464,"target":34962},{"buffer":0,"byteLength":4288,"byteOffset":16896,"target":34962}],"buffers":[{"byteLength":21184,"uri":"rpgpp_av_roof_end_01_6x5_wall_window_03b.bin"}],"images":[{"name":"rpgpp_av_tex_a","uri":"../../Textures/rpgpp_av_tex_a.png"}],"materials":[{"alphaMode":"OPAQUE","doubleSided":false,"extras":{"fromFBX":{"isTruePBR":false,"shadingModel":"Phong"}},"name":"rpgpp_av_mat_a","pbrMetallicRoughness":{"baseColorFactor":[1,1,1,1],"baseColorTexture":{"index":0,"texCoord":0},"metallicFactor":0.400000005960464,"roughnessFactor":0.284101665019989}}],"meshes":[{"name":"rpgpp_av_roof_end_01_6x5_wall_window_03b","primitives":[{"attributes":{"NORMAL":2,"POSITION":1,"TEXCOORD_0":3},"indices":0,"material":0,"mode":4}]}],"nodes":[{"mesh":0,"name":"rpgpp_av_roof_end_01_6x5_wall_window_03b","rotation":[0,0,0,1],"scale":[1,1,1],"translation":[0,0,0]}],"samplers":[{}],"scene":0,"scenes":[{"name":"Root Scene","nodes":[0]}],"textures":[{"name":"base_color_texture","sampler":0,"source":0}]}