{"accessors":[{"bufferView":0,"byteOffset":0,"componentType":5123,"count":564,"type":"SCALAR"},{"bufferView":1,"byteOffset":0,"componentType":5126,"count":166,"max":[0.0181390605866909,0.0298663545399904,0.00276541290804744],"min":[-0.01458317693323,0,-0.00276477774605],"type":"VEC3"},{"bufferView":2,"byteOffset":0,"componentType":5126,"count":166,"type":"VEC3"},{"bufferView":3,"byteOffset":0,"componentType":5126,"count":166,"type":"VEC2"}],"asset":{"generator":"FBX2glTF v0.13.1","version":"2.0"},"bufferViews":[{"buffer":0,"byteLength":1128,"byteOffset":0,"target":34963},{"buffer":0,"byteLength":1992,"byteOffset":1128,"target":34962},{"buffer":0,"byteLength":1992,"byteOffset":3120,"target":34962},{"buffer":0,"byteLength":1328,"byteOffset":5112,"target":34962}],"buffers":[{"byteLength":6440,"uri":"rpgpp_av_roof_end_01_6x3_wall_beam_c.bin"}],"images":[{"name":"rpgpp_av_tex_a","uri":"../../Textures/rpgpp_av_tex_a.png"}],"materials":[{"alphaMode":"OPAQUE","doubleSided":false,"extras":{"fromFBX":{"isTruePBR":false,"shadingModel":"Phong"}},"name":"rpgpp_av_mat_a","pbrMetallicRoughness":{"baseColorFactor":[1,1,1,1],"baseColorTexture":{"index":0,"texCoord":0},"metallicFactor":0.400000005960464,"roughnessFactor":0.284101665019989}}],"meshes":[{"name":"rpgpp_av_roof_end_01_6x3_wall_beam_c","primitives":[{"attributes":{"NORMAL":2,"POSITION":1,"TEXCOORD_0":3},"indices":0,"material":0,"mode":4}]}],"nodes":[{"mesh":0,"name":"rpgpp_av_roof_end_01_6x3_wall_beam_c","rotation":[0,0,0,1],"scale":[1,1,1],"translation":[0,0,0]}],"samplers":[{}],"scene":0,"scenes":[{"name":"Root Scene","nodes":[0]}],"textures":[{"name":"base_color_texture","sampler":0,"source":0}]}