{"accessors":[{"bufferView":0,"byteOffset":0,"componentType":5123,"count":1308,"type":"SCALAR"},{"bufferView":1,"byteOffset":0,"componentType":5126,"count":437,"max":[0.0336877517402172,0.0485246255993843,0.0018678669584915],"min":[-0.03428530693054,-0.00005057513772,-0.00186783517711],"type":"VEC3"},{"bufferView":2,"byteOffset":0,"componentType":5126,"count":437,"type":"VEC3"},{"bufferView":3,"byteOffset":0,"componentType":5126,"count":437,"type":"VEC2"}],"asset":{"generator":"FBX2glTF v0.13.1","version":"2.0"},"bufferViews":[{"buffer":0,"byteLength":2616,"byteOffset":0,"target":34963},{"buffer":0,"byteLength":5244,"byteOffset":2616,"target":34962},{"buffer":0,"byteLength":5244,"byteOffset":7860,"target":34962},{"buffer":0,"byteLength":3496,"byteOffset":13104,"target":34962}],"buffers":[{"byteLength":16600,"uri":"rpgpp_av_roof_end_01_6x5_wall_window_01c.bin"}],"images":[{"name":"rpgpp_av_tex_a","uri":"../../Textures/rpgpp_av_tex_a.png"}],"materials":[{"alphaMode":"OPAQUE","doubleSided":false,"extras":{"fromFBX":{"isTruePBR":false,"shadingModel":"Phong"}},"name":"rpgpp_av_mat_a","pbrMetallicRoughness":{"baseColorFactor":[1,1,1,1],"baseColorTexture":{"index":0,"texCoord":0},"metallicFactor":0.400000005960464,"roughnessFactor":0.284101665019989}}],"meshes":[{"name":"rpgpp_av_roof_end_01_6x5_wall_window_01c","primitives":[{"attributes":{"NORMAL":2,"POSITION":1,"TEXCOORD_0":3},"indices":0,"material":0,"mode":4}]}],"nodes":[{"mesh":0,"name":"rpgpp_av_roof_end_01_6x5_wall_window_01c","rotation":[0,0,0,1],"scale":[1,1,1],"translation":[0,0,0]}],"samplers":[{}],"scene":0,"scenes":[{"name":"Root Scene","nodes":[0]}],"textures":[{"name":"base_color_texture","sampler":0,"source":0}]}