{"accessors":[{"bufferView":0,"byteOffset":0,"componentType":5123,"count":3012,"type":"SCALAR"},{"bufferView":1,"byteOffset":0,"componentType":5126,"count":841,"max":[0.044999998062849,0.042341735213995,0.00231316313147545],"min":[-0.04500000551343,-0.00011382102821,-0.00231316382997],"type":"VEC3"},{"bufferView":2,"byteOffset":0,"componentType":5126,"count":841,"type":"VEC3"},{"bufferView":3,"byteOffset":0,"componentType":5126,"count":841,"type":"VEC2"}],"asset":{"generator":"FBX2glTF v0.13.1","version":"2.0"},"bufferViews":[{"buffer":0,"byteLength":6024,"byteOffset":0,"target":34963},{"buffer":0,"byteLength":10092,"byteOffset":6024,"target":34962},{"buffer":0,"byteLength":10092,"byteOffset":16116,"target":34962},{"buffer":0,"byteLength":6728,"byteOffset":26208,"target":34962}],"buffers":[{"byteLength":32936,"uri":"rpgpp_av_roof_end_01_9x4_wall_window_04c.bin"}],"images":[{"name":"rpgpp_av_tex_a","uri":"../../Textures/rpgpp_av_tex_a.png"}],"materials":[{"alphaMode":"OPAQUE","doubleSided":false,"extras":{"fromFBX":{"isTruePBR":false,"shadingModel":"Phong"}},"name":"rpgpp_av_mat_a","pbrMetallicRoughness":{"baseColorFactor":[1,1,1,1],"baseColorTexture":{"index":0,"texCoord":0},"metallicFactor":0.400000005960464,"roughnessFactor":0.284101665019989}}],"meshes":[{"name":"rpgpp_av_roof_end_01_9x4_wall_window_04c","primitives":[{"attributes":{"NORMAL":2,"POSITION":1,"TEXCOORD_0":3},"indices":0,"material":0,"mode":4}]}],"nodes":[{"mesh":0,"name":"rpgpp_av_roof_end_01_9x4_wall_window_04c","rotation":[0,0,0,1],"scale":[1,1,1],"translation":[0,0,0]}],"samplers":[{}],"scene":0,"scenes":[{"name":"Root Scene","nodes":[0]}],"textures":[{"name":"base_color_texture","sampler":0,"source":0}]}