{"accessors":[{"bufferView":0,"byteOffset":0,"componentType":5123,"count":660,"type":"SCALAR"},{"bufferView":1,"byteOffset":0,"componentType":5126,"count":164,"max":[0.0162452887743711,0.0134625984355807,0.00305316806770861],"min":[-0.01639800705016,0.00000170344492289587,-0.0014212426031],"type":"VEC3"},{"bufferView":2,"byteOffset":0,"componentType":5126,"count":164,"type":"VEC3"},{"bufferView":3,"byteOffset":0,"componentType":5126,"count":164,"type":"VEC2"}],"asset":{"generator":"FBX2glTF v0.13.1","version":"2.0"},"bufferViews":[{"buffer":0,"byteLength":1320,"byteOffset":0,"target":34963},{"buffer":0,"byteLength":1968,"byteOffset":1320,"target":34962},{"buffer":0,"byteLength":1968,"byteOffset":3288,"target":34962},{"buffer":0,"byteLength":1312,"byteOffset":5256,"target":34962}],"buffers":[{"byteLength":6568,"uri":"rpgpp_av_fence_02a_3m.bin"}],"images":[{"name":"rpgpp_av_tex_a","uri":"../../Textures/rpgpp_av_tex_a.png"}],"materials":[{"alphaMode":"OPAQUE","doubleSided":false,"extras":{"fromFBX":{"isTruePBR":false,"shadingModel":"Phong"}},"name":"rpgpp_av_mat_a","pbrMetallicRoughness":{"baseColorFactor":[1,1,1,1],"baseColorTexture":{"index":0,"texCoord":0},"metallicFactor":0.400000005960464,"roughnessFactor":0.284101665019989}}],"meshes":[{"name":"rpgpp_av_fence_02a_3m","primitives":[{"attributes":{"NORMAL":2,"POSITION":1,"TEXCOORD_0":3},"indices":0,"material":0,"mode":4}]}],"nodes":[{"mesh":0,"name":"rpgpp_av_fence_02a_3m","rotation":[0,0,0,1],"scale":[1,1,1],"translation":[0,0,0]}],"samplers":[{}],"scene":0,"scenes":[{"name":"Root Scene","nodes":[0]}],"textures":[{"name":"base_color_texture","sampler":0,"source":0}]}