{"accessors":[{"bufferView":0,"byteOffset":0,"componentType":5123,"count":528,"type":"SCALAR"},{"bufferView":1,"byteOffset":0,"componentType":5126,"count":344,"max":[0.0150000052526593,0.0300000086426735,0.00231316266581416],"min":[-0.01500000245869,0.00000000476837147544984,-0.00231316429563],"type":"VEC3"},{"bufferView":2,"byteOffset":0,"componentType":5126,"count":344,"type":"VEC3"},{"bufferView":3,"byteOffset":0,"componentType":5126,"count":344,"type":"VEC2"}],"asset":{"generator":"FBX2glTF v0.13.1","version":"2.0"},"bufferViews":[{"buffer":0,"byteLength":1056,"byteOffset":0,"target":34963},{"buffer":0,"byteLength":4128,"byteOffset":1056,"target":34962},{"buffer":0,"byteLength":4128,"byteOffset":5184,"target":34962},{"buffer":0,"byteLength":2752,"byteOffset":9312,"target":34962}],"buffers":[{"byteLength":12064,"uri":"rpgpp_av_wall_04_3x3_door_a.bin"}],"images":[{"name":"rpgpp_av_tex_a","uri":"../../Textures/rpgpp_av_tex_a.png"}],"materials":[{"alphaMode":"OPAQUE","doubleSided":false,"extras":{"fromFBX":{"isTruePBR":false,"shadingModel":"Phong"}},"name":"rpgpp_av_mat_a","pbrMetallicRoughness":{"baseColorFactor":[1,1,1,1],"baseColorTexture":{"index":0,"texCoord":0},"metallicFactor":0.400000005960464,"roughnessFactor":0.284101665019989}}],"meshes":[{"name":"rpgpp_av_wall_04_3x3_door_a","primitives":[{"attributes":{"NORMAL":2,"POSITION":1,"TEXCOORD_0":3},"indices":0,"material":0,"mode":4}]}],"nodes":[{"mesh":0,"name":"rpgpp_av_wall_04_3x3_door_a","rotation":[0,0,0,1],"scale":[1,1,1],"translation":[0,0,0]}],"samplers":[{}],"scene":0,"scenes":[{"name":"Root Scene","nodes":[0]}],"textures":[{"name":"base_color_texture","sampler":0,"source":0}]}