{"accessors":[{"bufferView":0,"byteOffset":0,"componentType":5123,"count":2043,"type":"SCALAR"},{"bufferView":1,"byteOffset":0,"componentType":5126,"count":598,"max":[0.0300000049173832,0.0486650951206684,0.0023131628986448],"min":[-0.02999999932945,0.00000000476837147544984,-0.0023131640628],"type":"VEC3"},{"bufferView":2,"byteOffset":0,"componentType":5126,"count":598,"type":"VEC3"},{"bufferView":3,"byteOffset":0,"componentType":5126,"count":598,"type":"VEC2"}],"asset":{"generator":"FBX2glTF v0.13.1","version":"2.0"},"bufferViews":[{"buffer":0,"byteLength":4086,"byteOffset":0,"target":34963},{"buffer":0,"byteLength":7176,"byteOffset":4088,"target":34962},{"buffer":0,"byteLength":7176,"byteOffset":11264,"target":34962},{"buffer":0,"byteLength":4784,"byteOffset":18440,"target":34962}],"buffers":[{"byteLength":23224,"uri":"rpgpp_av_roof_end_01_6x5_wall_window_04a.bin"}],"images":[{"name":"rpgpp_av_tex_a","uri":"../../Textures/rpgpp_av_tex_a.png"}],"materials":[{"alphaMode":"OPAQUE","doubleSided":false,"extras":{"fromFBX":{"isTruePBR":false,"shadingModel":"Phong"}},"name":"rpgpp_av_mat_a","pbrMetallicRoughness":{"baseColorFactor":[1,1,1,1],"baseColorTexture":{"index":0,"texCoord":0},"metallicFactor":0.400000005960464,"roughnessFactor":0.284101665019989}}],"meshes":[{"name":"rpgpp_av_roof_end_01_6x5_wall_window_04a","primitives":[{"attributes":{"NORMAL":2,"POSITION":1,"TEXCOORD_0":3},"indices":0,"material":0,"mode":4}]}],"nodes":[{"mesh":0,"name":"rpgpp_av_roof_end_01_6x5_wall_window_04a","rotation":[0,0,0,1],"scale":[1,1,1],"translation":[0,0,0]}],"samplers":[{}],"scene":0,"scenes":[{"name":"Root Scene","nodes":[0]}],"textures":[{"name":"base_color_texture","sampler":0,"source":0}]}