{"accessors":[{"bufferView":0,"byteOffset":0,"componentType":5123,"count":2775,"type":"SCALAR"},{"bufferView":1,"byteOffset":0,"componentType":5126,"count":1932,"max":[0.0215032193809748,0.0599350184202194,0.0225066337734461],"min":[-0.02321220375597,-0.00002282619425,-0.02235225588083],"type":"VEC3"},{"bufferView":2,"byteOffset":0,"componentType":5126,"count":1932,"type":"VEC3"},{"bufferView":3,"byteOffset":0,"componentType":5126,"count":1932,"type":"VEC2"}],"asset":{"generator":"FBX2glTF v0.13.1","version":"2.0"},"bufferViews":[{"buffer":0,"byteLength":5550,"byteOffset":0,"target":34963},{"buffer":0,"byteLength":23184,"byteOffset":5552,"target":34962},{"buffer":0,"byteLength":23184,"byteOffset":28736,"target":34962},{"buffer":0,"byteLength":15456,"byteOffset":51920,"target":34962}],"buffers":[{"byteLength":67376,"uri":"rpgpp_av_water_platform_01h.bin"}],"images":[{"name":"rpgpp_ag_tex_a","uri":"rpgpp_ag_tex_a.png"}],"materials":[{"alphaMode":"OPAQUE","doubleSided":false,"extras":{"fromFBX":{"isTruePBR":false,"shadingModel":"Phong"}},"name":"rpgpp_st_mat_a","pbrMetallicRoughness":{"baseColorFactor":[1,1,1,1],"baseColorTexture":{"index":0,"texCoord":0},"metallicFactor":0.400000005960464,"roughnessFactor":0.284101665019989}}],"meshes":[{"name":"rpgpp_av_water_platform_01h","primitives":[{"attributes":{"NORMAL":2,"POSITION":1,"TEXCOORD_0":3},"indices":0,"material":0,"mode":4}]}],"nodes":[{"mesh":0,"name":"rpgpp_av_water_platform_01h","rotation":[0,0,0,1],"scale":[1,1,1],"translation":[0,0,0]}],"samplers":[{}],"scene":0,"scenes":[{"name":"Root Scene","nodes":[0]}],"textures":[{"name":"base_color_texture","sampler":0,"source":0}]}