{"accessors":[{"bufferView":0,"byteOffset":0,"componentType":5123,"count":102,"type":"SCALAR"},{"bufferView":1,"byteOffset":0,"componentType":5126,"count":34,"max":[0.0150000024586916,0.001020000083372,0.00300000002607703],"min":[-0.01499999966472,-0.00103000015952,-0.00300000002608],"type":"VEC3"},{"bufferView":2,"byteOffset":0,"componentType":5126,"count":34,"type":"VEC3"},{"bufferView":3,"byteOffset":0,"componentType":5126,"count":34,"type":"VEC2"}],"asset":{"generator":"FBX2glTF v0.13.1","version":"2.0"},"bufferViews":[{"buffer":0,"byteLength":204,"byteOffset":0,"target":34963},{"buffer":0,"byteLength":408,"byteOffset":204,"target":34962},{"buffer":0,"byteLength":408,"byteOffset":612,"target":34962},{"buffer":0,"byteLength":272,"byteOffset":1020,"target":34962}],"buffers":[{"byteLength":1292,"uri":"rpgpp_av_wall_connector_bottom_01a_3m.bin"}],"images":[{"name":"rpgpp_av_tex_a","uri":"../../Textures/rpgpp_av_tex_a.png"}],"materials":[{"alphaMode":"OPAQUE","doubleSided":false,"extras":{"fromFBX":{"isTruePBR":false,"shadingModel":"Phong"}},"name":"rpgpp_av_mat_a","pbrMetallicRoughness":{"baseColorFactor":[1,1,1,1],"baseColorTexture":{"index":0,"texCoord":0},"metallicFactor":0.400000005960464,"roughnessFactor":0.284101665019989}}],"meshes":[{"name":"rpgpp_av_wall_connector_bottom_01a_3m","primitives":[{"attributes":{"NORMAL":2,"POSITION":1,"TEXCOORD_0":3},"indices":0,"material":0,"mode":4}]}],"nodes":[{"mesh":0,"name":"rpgpp_av_wall_connector_bottom_01a_3m","rotation":[0,0,0,1],"scale":[1,1,1],"translation":[0,0,0]}],"samplers":[{}],"scene":0,"scenes":[{"name":"Root Scene","nodes":[0]}],"textures":[{"name":"base_color_texture","sampler":0,"source":0}]}