{"accessors":[{"bufferView":0,"byteOffset":0,"componentType":5123,"count":1806,"type":"SCALAR"},{"bufferView":1,"byteOffset":0,"componentType":5126,"count":464,"max":[0.054547518491745,0.0526048727333546,0.0106138847768307],"min":[-0.05318199470639,-0.00294114765711,-0.00000874905163],"type":"VEC3"},{"bufferView":2,"byteOffset":0,"componentType":5126,"count":464,"type":"VEC3"},{"bufferView":3,"byteOffset":0,"componentType":5126,"count":464,"type":"VEC2"}],"asset":{"generator":"FBX2glTF v0.13.1","version":"2.0"},"bufferViews":[{"buffer":0,"byteLength":3612,"byteOffset":0,"target":34963},{"buffer":0,"byteLength":5568,"byteOffset":3612,"target":34962},{"buffer":0,"byteLength":5568,"byteOffset":9180,"target":34962},{"buffer":0,"byteLength":3712,"byteOffset":14748,"target":34962}],"buffers":[{"byteLength":18460,"uri":"rpgpp_av_roof_01_9x4x3_end_01.bin"}],"images":[{"name":"rpgpp_av_tex_a","uri":"../../Textures/rpgpp_av_tex_a.png"}],"materials":[{"alphaMode":"OPAQUE","doubleSided":false,"extras":{"fromFBX":{"isTruePBR":false,"shadingModel":"Phong"}},"name":"rpgpp_av_mat_a","pbrMetallicRoughness":{"baseColorFactor":[1,1,1,1],"baseColorTexture":{"index":0,"texCoord":0},"metallicFactor":0.400000005960464,"roughnessFactor":0.284101665019989}}],"meshes":[{"name":"rpgpp_av_roof_01_9x4x3_end_01","primitives":[{"attributes":{"NORMAL":2,"POSITION":1,"TEXCOORD_0":3},"indices":0,"material":0,"mode":4}]}],"nodes":[{"mesh":0,"name":"rpgpp_av_roof_01_9x4x3_end_01","rotation":[0,0,0,1],"scale":[1,1,1],"translation":[0,0,0]}],"samplers":[{}],"scene":0,"scenes":[{"name":"Root Scene","nodes":[0]}],"textures":[{"name":"base_color_texture","sampler":0,"source":0}]}