{"accessors":[{"bufferView":0,"byteOffset":0,"componentType":5123,"count":1002,"type":"SCALAR"},{"bufferView":1,"byteOffset":0,"componentType":5126,"count":388,"max":[0.0150000052526593,0.0300000067800283,0.0018364517018199],"min":[-0.01499999966472,0.00000000942213329579999,-0.00191000115592],"type":"VEC3"},{"bufferView":2,"byteOffset":0,"componentType":5126,"count":388,"type":"VEC3"},{"bufferView":3,"byteOffset":0,"componentType":5126,"count":388,"type":"VEC2"}],"asset":{"generator":"FBX2glTF v0.13.1","version":"2.0"},"bufferViews":[{"buffer":0,"byteLength":2004,"byteOffset":0,"target":34963},{"buffer":0,"byteLength":4656,"byteOffset":2004,"target":34962},{"buffer":0,"byteLength":4656,"byteOffset":6660,"target":34962},{"buffer":0,"byteLength":3104,"byteOffset":11316,"target":34962}],"buffers":[{"byteLength":14420,"uri":"rpgpp_av_wall_02_3x3_window_03b.bin"}],"images":[{"name":"rpgpp_av_tex_a","uri":"../../Textures/rpgpp_av_tex_a.png"}],"materials":[{"alphaMode":"OPAQUE","doubleSided":false,"extras":{"fromFBX":{"isTruePBR":false,"shadingModel":"Phong"}},"name":"rpgpp_av_mat_a","pbrMetallicRoughness":{"baseColorFactor":[1,1,1,1],"baseColorTexture":{"index":0,"texCoord":0},"metallicFactor":0.400000005960464,"roughnessFactor":0.284101665019989}}],"meshes":[{"name":"rpgpp_av_wall_02_3x3_window_03b","primitives":[{"attributes":{"NORMAL":2,"POSITION":1,"TEXCOORD_0":3},"indices":0,"material":0,"mode":4}]}],"nodes":[{"mesh":0,"name":"rpgpp_av_wall_02_3x3_window_03b","rotation":[0,0,0,1],"scale":[1,1,1],"translation":[0,0,0]}],"samplers":[{}],"scene":0,"scenes":[{"name":"Root Scene","nodes":[0]}],"textures":[{"name":"base_color_texture","sampler":0,"source":0}]}