{"accessors":[{"bufferView":0,"byteOffset":0,"componentType":5123,"count":1182,"type":"SCALAR"},{"bufferView":1,"byteOffset":0,"componentType":5126,"count":278,"max":[0.00928250513970852,0.0217272583395243,0.00156598910689354],"min":[-0.01015160791576,-0.00000124359269,-0.00250247772783],"type":"VEC3"},{"bufferView":2,"byteOffset":0,"componentType":5126,"count":278,"type":"VEC3"},{"bufferView":3,"byteOffset":0,"componentType":5126,"count":278,"type":"VEC2"}],"asset":{"generator":"FBX2glTF v0.13.1","version":"2.0"},"bufferViews":[{"buffer":0,"byteLength":2364,"byteOffset":0,"target":34963},{"buffer":0,"byteLength":3336,"byteOffset":2364,"target":34962},{"buffer":0,"byteLength":3336,"byteOffset":5700,"target":34962},{"buffer":0,"byteLength":2224,"byteOffset":9036,"target":34962}],"buffers":[{"byteLength":11260,"uri":"rpgpp_av_fence_03g_2m.bin"}],"images":[{"name":"rpgpp_av_tex_a","uri":"../../Textures/rpgpp_av_tex_a.png"}],"materials":[{"alphaMode":"OPAQUE","doubleSided":false,"extras":{"fromFBX":{"isTruePBR":false,"shadingModel":"Phong"}},"name":"rpgpp_av_mat_a","pbrMetallicRoughness":{"baseColorFactor":[1,1,1,1],"baseColorTexture":{"index":0,"texCoord":0},"metallicFactor":0.400000005960464,"roughnessFactor":0.284101665019989}}],"meshes":[{"name":"rpgpp_av_fence_03g_2m","primitives":[{"attributes":{"NORMAL":2,"POSITION":1,"TEXCOORD_0":3},"indices":0,"material":0,"mode":4}]}],"nodes":[{"mesh":0,"name":"rpgpp_av_fence_03g_2m","rotation":[0,0,0,1],"scale":[1,1,1],"translation":[0,0,0]}],"samplers":[{}],"scene":0,"scenes":[{"name":"Root Scene","nodes":[0]}],"textures":[{"name":"base_color_texture","sampler":0,"source":0}]}