{"accessors":[{"bufferView":0,"byteOffset":0,"componentType":5123,"count":1707,"type":"SCALAR"},{"bufferView":1,"byteOffset":0,"componentType":5126,"count":378,"max":[0.0127082727849483,0.00483240094035864,0.00137258530594409],"min":[-0.00068988080602,-0.01704702340066,-0.00214783637784],"type":"VEC3"},{"bufferView":2,"byteOffset":0,"componentType":5126,"count":378,"type":"VEC3"},{"bufferView":3,"byteOffset":0,"componentType":5126,"count":378,"type":"VEC2"}],"asset":{"generator":"FBX2glTF v0.13.1","version":"2.0"},"bufferViews":[{"buffer":0,"byteLength":3414,"byteOffset":0,"target":34963},{"buffer":0,"byteLength":4536,"byteOffset":3416,"target":34962},{"buffer":0,"byteLength":4536,"byteOffset":7952,"target":34962},{"buffer":0,"byteLength":3024,"byteOffset":12488,"target":34962}],"buffers":[{"byteLength":15512,"uri":"rpgpp_av_door_03b.bin"}],"images":[{"name":"rpgpp_av_tex_a","uri":"../../Textures/rpgpp_av_tex_a.png"}],"materials":[{"alphaMode":"OPAQUE","doubleSided":false,"extras":{"fromFBX":{"isTruePBR":false,"shadingModel":"Phong"}},"name":"rpgpp_av_mat_a","pbrMetallicRoughness":{"baseColorFactor":[1,1,1,1],"baseColorTexture":{"index":0,"texCoord":0},"metallicFactor":0.400000005960464,"roughnessFactor":0.284101665019989}}],"meshes":[{"name":"rpgpp_av_door_03b","primitives":[{"attributes":{"NORMAL":2,"POSITION":1,"TEXCOORD_0":3},"indices":0,"material":0,"mode":4}]}],"nodes":[{"mesh":0,"name":"rpgpp_av_door_03b","rotation":[0,0,0,1],"scale":[1,1,1],"translation":[-0.00672909477726,0.0184923820197582,-0.00073910999345]}],"samplers":[{}],"scene":0,"scenes":[{"name":"Root Scene","nodes":[0]}],"textures":[{"name":"base_color_texture","sampler":0,"source":0}]}