{"accessors":[{"bufferView":0,"byteOffset":0,"componentType":5123,"count":270,"type":"SCALAR"},{"bufferView":1,"byteOffset":0,"componentType":5126,"count":76,"max":[0.00812381226569414,0.0298569332808256,0.0027530372608453],"min":[-0.015245991759,-0.00002629518531,-0.00275785778649],"type":"VEC3"},{"bufferView":2,"byteOffset":0,"componentType":5126,"count":76,"type":"VEC3"},{"bufferView":3,"byteOffset":0,"componentType":5126,"count":76,"type":"VEC2"}],"asset":{"generator":"FBX2glTF v0.13.1","version":"2.0"},"bufferViews":[{"buffer":0,"byteLength":540,"byteOffset":0,"target":34963},{"buffer":0,"byteLength":912,"byteOffset":540,"target":34962},{"buffer":0,"byteLength":912,"byteOffset":1452,"target":34962},{"buffer":0,"byteLength":608,"byteOffset":2364,"target":34962}],"buffers":[{"byteLength":2972,"uri":"rpgpp_av_wall_beam_04_3x3.bin"}],"images":[{"name":"rpgpp_av_tex_a","uri":"../../Textures/rpgpp_av_tex_a.png"}],"materials":[{"alphaMode":"OPAQUE","doubleSided":false,"extras":{"fromFBX":{"isTruePBR":false,"shadingModel":"Phong"}},"name":"rpgpp_av_mat_a","pbrMetallicRoughness":{"baseColorFactor":[1,1,1,1],"baseColorTexture":{"index":0,"texCoord":0},"metallicFactor":0.400000005960464,"roughnessFactor":0.284101665019989}}],"meshes":[{"name":"rpgpp_av_wall_beam_04_3x3","primitives":[{"attributes":{"NORMAL":2,"POSITION":1,"TEXCOORD_0":3},"indices":0,"material":0,"mode":4}]}],"nodes":[{"mesh":0,"name":"rpgpp_av_wall_beam_04_3x3","rotation":[0,0,0,1],"scale":[1,1,1],"translation":[0,0,0]}],"samplers":[{}],"scene":0,"scenes":[{"name":"Root Scene","nodes":[0]}],"textures":[{"name":"base_color_texture","sampler":0,"source":0}]}