{"accessors":[{"bufferView":0,"byteOffset":0,"componentType":5123,"count":315,"type":"SCALAR"},{"bufferView":1,"byteOffset":0,"componentType":5126,"count":95,"max":[0.0271235015243292,0.0279943346977234,0.00281119556166232],"min":[-0.02040424570441,-0.0000640469807,-0.0028062579222],"type":"VEC3"},{"bufferView":2,"byteOffset":0,"componentType":5126,"count":95,"type":"VEC3"},{"bufferView":3,"byteOffset":0,"componentType":5126,"count":95,"type":"VEC2"}],"asset":{"generator":"FBX2glTF v0.13.1","version":"2.0"},"bufferViews":[{"buffer":0,"byteLength":630,"byteOffset":0,"target":34963},{"buffer":0,"byteLength":1140,"byteOffset":632,"target":34962},{"buffer":0,"byteLength":1140,"byteOffset":1772,"target":34962},{"buffer":0,"byteLength":760,"byteOffset":2912,"target":34962}],"buffers":[{"byteLength":3672,"uri":"rpgpp_av_roof_end_01_9x4_wall_beam_d.bin"}],"images":[{"name":"rpgpp_av_tex_a","uri":"../../Textures/rpgpp_av_tex_a.png"}],"materials":[{"alphaMode":"OPAQUE","doubleSided":false,"extras":{"fromFBX":{"isTruePBR":false,"shadingModel":"Phong"}},"name":"rpgpp_av_mat_a","pbrMetallicRoughness":{"baseColorFactor":[1,1,1,1],"baseColorTexture":{"index":0,"texCoord":0},"metallicFactor":0.400000005960464,"roughnessFactor":0.284101665019989}}],"meshes":[{"name":"rpgpp_av_roof_end_01_9x4_wall_beam_d","primitives":[{"attributes":{"NORMAL":2,"POSITION":1,"TEXCOORD_0":3},"indices":0,"material":0,"mode":4}]}],"nodes":[{"mesh":0,"name":"rpgpp_av_roof_end_01_9x4_wall_beam_d","rotation":[0,0,0,1],"scale":[1,1,1],"translation":[0,0,0]}],"samplers":[{}],"scene":0,"scenes":[{"name":"Root Scene","nodes":[0]}],"textures":[{"name":"base_color_texture","sampler":0,"source":0}]}