{"accessors":[{"bufferView":0,"byteOffset":0,"componentType":5123,"count":384,"type":"SCALAR"},{"bufferView":1,"byteOffset":0,"componentType":5126,"count":103,"max":[0.0151032945141196,0.029884971678257,0.00283435522578657],"min":[-0.01509594265372,0.00013581859820988,-0.0028573339805],"type":"VEC3"},{"bufferView":2,"byteOffset":0,"componentType":5126,"count":103,"type":"VEC3"},{"bufferView":3,"byteOffset":0,"componentType":5126,"count":103,"type":"VEC2"}],"asset":{"generator":"FBX2glTF v0.13.1","version":"2.0"},"bufferViews":[{"buffer":0,"byteLength":768,"byteOffset":0,"target":34963},{"buffer":0,"byteLength":1236,"byteOffset":768,"target":34962},{"buffer":0,"byteLength":1236,"byteOffset":2004,"target":34962},{"buffer":0,"byteLength":824,"byteOffset":3240,"target":34962}],"buffers":[{"byteLength":4064,"uri":"rpgpp_av_wall_beam_07_3x3.bin"}],"images":[{"name":"rpgpp_av_tex_a","uri":"../../Textures/rpgpp_av_tex_a.png"}],"materials":[{"alphaMode":"OPAQUE","doubleSided":false,"extras":{"fromFBX":{"isTruePBR":false,"shadingModel":"Phong"}},"name":"rpgpp_av_mat_a","pbrMetallicRoughness":{"baseColorFactor":[1,1,1,1],"baseColorTexture":{"index":0,"texCoord":0},"metallicFactor":0.400000005960464,"roughnessFactor":0.284101665019989}}],"meshes":[{"name":"rpgpp_av_wall_beam_07_3x3","primitives":[{"attributes":{"NORMAL":2,"POSITION":1,"TEXCOORD_0":3},"indices":0,"material":0,"mode":4}]}],"nodes":[{"mesh":0,"name":"rpgpp_av_wall_beam_07_3x3","rotation":[0,0,0,1],"scale":[1,1,1],"translation":[0,0,0]}],"samplers":[{}],"scene":0,"scenes":[{"name":"Root Scene","nodes":[0]}],"textures":[{"name":"base_color_texture","sampler":0,"source":0}]}