{"accessors":[{"bufferView":0,"byteOffset":0,"componentType":5123,"count":90,"type":"SCALAR"},{"bufferView":1,"byteOffset":0,"componentType":5126,"count":20,"max":[0.00309897889383137,0.0109999971464276,0.00320640695281327],"min":[-0.0031626385171,0.00000000743923722623663,-0.00314852339216],"type":"VEC3"},{"bufferView":2,"byteOffset":0,"componentType":5126,"count":20,"type":"VEC3"},{"bufferView":3,"byteOffset":0,"componentType":5126,"count":20,"type":"VEC2"}],"asset":{"generator":"FBX2glTF v0.13.1","version":"2.0"},"bufferViews":[{"buffer":0,"byteLength":180,"byteOffset":0,"target":34963},{"buffer":0,"byteLength":240,"byteOffset":180,"target":34962},{"buffer":0,"byteLength":240,"byteOffset":420,"target":34962},{"buffer":0,"byteLength":160,"byteOffset":660,"target":34962}],"buffers":[{"byteLength":820,"uri":"rpgpp_av_wall_connector_corner_01a_1m.bin"}],"images":[{"name":"rpgpp_av_tex_a","uri":"../../Textures/rpgpp_av_tex_a.png"}],"materials":[{"alphaMode":"OPAQUE","doubleSided":false,"extras":{"fromFBX":{"isTruePBR":false,"shadingModel":"Phong"}},"name":"rpgpp_av_mat_a","pbrMetallicRoughness":{"baseColorFactor":[1,1,1,1],"baseColorTexture":{"index":0,"texCoord":0},"metallicFactor":0.400000005960464,"roughnessFactor":0.284101665019989}}],"meshes":[{"name":"rpgpp_av_wall_connector_corner_01a_1m","primitives":[{"attributes":{"NORMAL":2,"POSITION":1,"TEXCOORD_0":3},"indices":0,"material":0,"mode":4}]}],"nodes":[{"mesh":0,"name":"rpgpp_av_wall_connector_corner_01a_1m","rotation":[0,0,0,1],"scale":[1,1,1],"translation":[0,0,0]}],"samplers":[{}],"scene":0,"scenes":[{"name":"Root Scene","nodes":[0]}],"textures":[{"name":"base_color_texture","sampler":0,"source":0}]}