{"accessors":[{"bufferView":0,"byteOffset":0,"componentType":5123,"count":426,"type":"SCALAR"},{"bufferView":1,"byteOffset":0,"componentType":5126,"count":128,"max":[0.0149999903514981,0.0100000081583858,0.00541726080700755],"min":[-0.01527536381036,0.00012919901928398,-0.00174291140866],"type":"VEC3"},{"bufferView":2,"byteOffset":0,"componentType":5126,"count":128,"type":"VEC3"},{"bufferView":3,"byteOffset":0,"componentType":5126,"count":128,"type":"VEC2"}],"asset":{"generator":"FBX2glTF v0.13.1","version":"2.0"},"bufferViews":[{"buffer":0,"byteLength":852,"byteOffset":0,"target":34963},{"buffer":0,"byteLength":1536,"byteOffset":852,"target":34962},{"buffer":0,"byteLength":1536,"byteOffset":2388,"target":34962},{"buffer":0,"byteLength":1024,"byteOffset":3924,"target":34962}],"buffers":[{"byteLength":4948,"uri":"rpgpp_av_wall_01_3x1_b.bin"}],"images":[{"name":"rpgpp_av_tex_a","uri":"../../Textures/rpgpp_av_tex_a.png"}],"materials":[{"alphaMode":"OPAQUE","doubleSided":false,"extras":{"fromFBX":{"isTruePBR":false,"shadingModel":"Phong"}},"name":"rpgpp_av_mat_a","pbrMetallicRoughness":{"baseColorFactor":[1,1,1,1],"baseColorTexture":{"index":0,"texCoord":0},"metallicFactor":0.400000005960464,"roughnessFactor":0.284101665019989}}],"meshes":[{"name":"rpgpp_av_wall_01_3x1_b","primitives":[{"attributes":{"NORMAL":2,"POSITION":1,"TEXCOORD_0":3},"indices":0,"material":0,"mode":4}]}],"nodes":[{"mesh":0,"name":"rpgpp_av_wall_01_3x1_b","rotation":[0,0,0,1],"scale":[1,1,1],"translation":[0,0,0]}],"samplers":[{}],"scene":0,"scenes":[{"name":"Root Scene","nodes":[0]}],"textures":[{"name":"base_color_texture","sampler":0,"source":0}]}