{"accessors":[{"bufferView":0,"byteOffset":0,"componentType":5123,"count":4680,"type":"SCALAR"},{"bufferView":1,"byteOffset":0,"componentType":5126,"count":1194,"max":[0.0500217340886593,0.0466561876237392,0.0657752156257629],"min":[-0.05001220479608,-0.00276403594762,-0.00000000604428],"type":"VEC3"},{"bufferView":2,"byteOffset":0,"componentType":5126,"count":1194,"type":"VEC3"},{"bufferView":3,"byteOffset":0,"componentType":5126,"count":1194,"type":"VEC2"}],"asset":{"generator":"FBX2glTF v0.13.1","version":"2.0"},"bufferViews":[{"buffer":0,"byteLength":9360,"byteOffset":0,"target":34963},{"buffer":0,"byteLength":14328,"byteOffset":9360,"target":34962},{"buffer":0,"byteLength":14328,"byteOffset":23688,"target":34962},{"buffer":0,"byteLength":9552,"byteOffset":38016,"target":34962}],"buffers":[{"byteLength":47568,"uri":"rpgpp_av_roof_support_01_9x4x3_end_02a.bin"}],"images":[{"name":"rpgpp_av_tex_a","uri":"../../Textures/rpgpp_av_tex_a.png"}],"materials":[{"alphaMode":"OPAQUE","doubleSided":false,"extras":{"fromFBX":{"isTruePBR":false,"shadingModel":"Phong"}},"name":"rpgpp_av_mat_a","pbrMetallicRoughness":{"baseColorFactor":[1,1,1,1],"baseColorTexture":{"index":0,"texCoord":0},"metallicFactor":0.400000005960464,"roughnessFactor":0.284101665019989}}],"meshes":[{"name":"rpgpp_av_roof_support_01_9x4x3_end_02a","primitives":[{"attributes":{"NORMAL":2,"POSITION":1,"TEXCOORD_0":3},"indices":0,"material":0,"mode":4}]}],"nodes":[{"mesh":0,"name":"rpgpp_av_roof_support_01_9x4x3_end_02a","rotation":[0,0,0,1],"scale":[1,1,1],"translation":[0,0,0]}],"samplers":[{}],"scene":0,"scenes":[{"name":"Root Scene","nodes":[0]}],"textures":[{"name":"base_color_texture","sampler":0,"source":0}]}