{"accessors":[{"bufferView":0,"byteOffset":0,"componentType":5123,"count":2214,"type":"SCALAR"},{"bufferView":1,"byteOffset":0,"componentType":5126,"count":437,"max":[0.0142497168853879,0.0148381143808365,0.00463033048436046],"min":[-0.0141243012622,-0.00000000238419,-0.00256148097105],"type":"VEC3"},{"bufferView":2,"byteOffset":0,"componentType":5126,"count":437,"type":"VEC3"},{"bufferView":3,"byteOffset":0,"componentType":5126,"count":437,"type":"VEC2"}],"asset":{"generator":"FBX2glTF v0.13.1","version":"2.0"},"bufferViews":[{"buffer":0,"byteLength":4428,"byteOffset":0,"target":34963},{"buffer":0,"byteLength":5244,"byteOffset":4428,"target":34962},{"buffer":0,"byteLength":5244,"byteOffset":9672,"target":34962},{"buffer":0,"byteLength":3496,"byteOffset":14916,"target":34962}],"buffers":[{"byteLength":18412,"uri":"rpgpp_av_fence_01b_2m.bin"}],"images":[{"name":"rpgpp_av_tex_a","uri":"../../Textures/rpgpp_av_tex_a.png"}],"materials":[{"alphaMode":"OPAQUE","doubleSided":false,"extras":{"fromFBX":{"isTruePBR":false,"shadingModel":"Phong"}},"name":"rpgpp_av_mat_a","pbrMetallicRoughness":{"baseColorFactor":[1,1,1,1],"baseColorTexture":{"index":0,"texCoord":0},"metallicFactor":0.400000005960464,"roughnessFactor":0.284101665019989}}],"meshes":[{"name":"rpgpp_av_fence_01b_2m","primitives":[{"attributes":{"NORMAL":2,"POSITION":1,"TEXCOORD_0":3},"indices":0,"material":0,"mode":4}]}],"nodes":[{"mesh":0,"name":"rpgpp_av_fence_01b_2m","rotation":[0,0,0,1],"scale":[1,1,1],"translation":[0,0,0]}],"samplers":[{}],"scene":0,"scenes":[{"name":"Root Scene","nodes":[0]}],"textures":[{"name":"base_color_texture","sampler":0,"source":0}]}