{"accessors":[{"bufferView":0,"byteOffset":0,"componentType":5123,"count":1569,"type":"SCALAR"},{"bufferView":1,"byteOffset":0,"componentType":5126,"count":578,"max":[0.0482607483863831,0.0423968024551868,0.00190104090142995],"min":[-0.04801307618618,0.0000488573314214591,-0.00196567806415],"type":"VEC3"},{"bufferView":2,"byteOffset":0,"componentType":5126,"count":578,"type":"VEC3"},{"bufferView":3,"byteOffset":0,"componentType":5126,"count":578,"type":"VEC2"}],"asset":{"generator":"FBX2glTF v0.13.1","version":"2.0"},"bufferViews":[{"buffer":0,"byteLength":3138,"byteOffset":0,"target":34963},{"buffer":0,"byteLength":6936,"byteOffset":3140,"target":34962},{"buffer":0,"byteLength":6936,"byteOffset":10076,"target":34962},{"buffer":0,"byteLength":4624,"byteOffset":17012,"target":34962}],"buffers":[{"byteLength":21636,"uri":"rpgpp_av_roof_end_01_9x4_wall_01b.bin"}],"images":[{"name":"rpgpp_av_tex_a","uri":"../../Textures/rpgpp_av_tex_a.png"}],"materials":[{"alphaMode":"OPAQUE","doubleSided":false,"extras":{"fromFBX":{"isTruePBR":false,"shadingModel":"Phong"}},"name":"rpgpp_av_mat_a","pbrMetallicRoughness":{"baseColorFactor":[1,1,1,1],"baseColorTexture":{"index":0,"texCoord":0},"metallicFactor":0.400000005960464,"roughnessFactor":0.284101665019989}}],"meshes":[{"name":"rpgpp_av_roof_end_01_9x4_wall_01b","primitives":[{"attributes":{"NORMAL":2,"POSITION":1,"TEXCOORD_0":3},"indices":0,"material":0,"mode":4}]}],"nodes":[{"mesh":0,"name":"rpgpp_av_roof_end_01_9x4_wall_01b","rotation":[0,0,0,1],"scale":[1,1,1],"translation":[0,0,0]}],"samplers":[{}],"scene":0,"scenes":[{"name":"Root Scene","nodes":[0]}],"textures":[{"name":"base_color_texture","sampler":0,"source":0}]}