{"accessors":[{"bufferView":0,"byteOffset":0,"componentType":5123,"count":4293,"type":"SCALAR"},{"bufferView":1,"byteOffset":0,"componentType":5126,"count":1066,"max":[0.00200000032782555,0.0490025021135807,0],"min":[-0.07500100880861,-0.00022175132472,-0.07699999958277],"type":"VEC3"},{"bufferView":2,"byteOffset":0,"componentType":5126,"count":1066,"type":"VEC3"},{"bufferView":3,"byteOffset":0,"componentType":5126,"count":1066,"type":"VEC2"}],"asset":{"generator":"FBX2glTF v0.13.1","version":"2.0"},"bufferViews":[{"buffer":0,"byteLength":8586,"byteOffset":0,"target":34963},{"buffer":0,"byteLength":12792,"byteOffset":8588,"target":34962},{"buffer":0,"byteLength":12792,"byteOffset":21380,"target":34962},{"buffer":0,"byteLength":8528,"byteOffset":34172,"target":34962}],"buffers":[{"byteLength":42700,"uri":"rpgpp_av_roof_02_9x4x3_corner_01.bin"}],"images":[{"name":"rpgpp_av_tex_a","uri":"../../Textures/rpgpp_av_tex_a.png"}],"materials":[{"alphaMode":"OPAQUE","doubleSided":false,"extras":{"fromFBX":{"isTruePBR":false,"shadingModel":"Phong"}},"name":"rpgpp_av_mat_a","pbrMetallicRoughness":{"baseColorFactor":[1,1,1,1],"baseColorTexture":{"index":0,"texCoord":0},"metallicFactor":0.400000005960464,"roughnessFactor":0.284101665019989}}],"meshes":[{"name":"rpgpp_av_roof_02_9x4x3_corner_01","primitives":[{"attributes":{"NORMAL":2,"POSITION":1,"TEXCOORD_0":3},"indices":0,"material":0,"mode":4}]}],"nodes":[{"mesh":0,"name":"rpgpp_av_roof_02_9x4x3_corner_01","rotation":[0,0,0,1],"scale":[1,1,1],"translation":[0,0,0]}],"samplers":[{}],"scene":0,"scenes":[{"name":"Root Scene","nodes":[0]}],"textures":[{"name":"base_color_texture","sampler":0,"source":0}]}