{"accessors":[{"bufferView":0,"byteOffset":0,"componentType":5123,"count":2280,"type":"SCALAR"},{"bufferView":1,"byteOffset":0,"componentType":5126,"count":594,"max":[0.0065219160169363,0.0408858247101307,-0.00000000953674],"min":[-0.04518830031157,-0.00405256543308,-0.03000000119209],"type":"VEC3"},{"bufferView":2,"byteOffset":0,"componentType":5126,"count":594,"type":"VEC3"},{"bufferView":3,"byteOffset":0,"componentType":5126,"count":594,"type":"VEC2"}],"asset":{"generator":"FBX2glTF v0.13.1","version":"2.0"},"bufferViews":[{"buffer":0,"byteLength":4560,"byteOffset":0,"target":34963},{"buffer":0,"byteLength":7128,"byteOffset":4560,"target":34962},{"buffer":0,"byteLength":7128,"byteOffset":11688,"target":34962},{"buffer":0,"byteLength":4752,"byteOffset":18816,"target":34962}],"buffers":[{"byteLength":23568,"uri":"rpgpp_av_roof_01_6x3x3_half_a.bin"}],"images":[{"name":"rpgpp_av_tex_a","uri":"../../Textures/rpgpp_av_tex_a.png"}],"materials":[{"alphaMode":"OPAQUE","doubleSided":false,"extras":{"fromFBX":{"isTruePBR":false,"shadingModel":"Phong"}},"name":"rpgpp_av_mat_a","pbrMetallicRoughness":{"baseColorFactor":[1,1,1,1],"baseColorTexture":{"index":0,"texCoord":0},"metallicFactor":0.400000005960464,"roughnessFactor":0.284101665019989}}],"meshes":[{"name":"rpgpp_av_roof_01_6x3x3_half_a","primitives":[{"attributes":{"NORMAL":2,"POSITION":1,"TEXCOORD_0":3},"indices":0,"material":0,"mode":4}]}],"nodes":[{"mesh":0,"name":"rpgpp_av_roof_01_6x3x3_half_a","rotation":[0,0,0,1],"scale":[1,1,1],"translation":[0,0,0]}],"samplers":[{}],"scene":0,"scenes":[{"name":"Root Scene","nodes":[0]}],"textures":[{"name":"base_color_texture","sampler":0,"source":0}]}