{"accessors":[{"bufferView":0,"byteOffset":0,"componentType":5123,"count":486,"type":"SCALAR"},{"bufferView":1,"byteOffset":0,"componentType":5126,"count":117,"max":[0.00638811569660902,0.0047358637675643,0.00241441372781992],"min":[-0.00625917408615,-0.00000483095619,-0.00270949141122],"type":"VEC3"},{"bufferView":2,"byteOffset":0,"componentType":5126,"count":117,"type":"VEC3"},{"bufferView":3,"byteOffset":0,"componentType":5126,"count":117,"type":"VEC2"}],"asset":{"generator":"FBX2glTF v0.13.0","version":"2.0"},"bufferViews":[{"buffer":0,"byteLength":972,"byteOffset":0,"target":34963},{"buffer":0,"byteLength":1404,"byteOffset":972,"target":34962},{"buffer":0,"byteLength":1404,"byteOffset":2376,"target":34962},{"buffer":0,"byteLength":936,"byteOffset":3780,"target":34962}],"buffers":[{"byteLength":4716,"uri":"rpgpp_av_bench_wood_04a.bin"}],"images":[{"name":"rpgpp_av_tex_a","uri":"../../Textures/rpgpp_av_tex_a.png"}],"materials":[{"alphaMode":"OPAQUE","doubleSided":false,"extras":{"fromFBX":{"isTruePBR":false,"shadingModel":"Phong"}},"name":"rpgpp_av_mat_a","pbrMetallicRoughness":{"baseColorFactor":[1,1,1,1],"baseColorTexture":{"index":0,"texCoord":0},"metallicFactor":0.400000005960464,"roughnessFactor":0.284101665019989}}],"meshes":[{"name":"rpgpp_av_bench_wood_04a","primitives":[{"attributes":{"NORMAL":2,"POSITION":1,"TEXCOORD_0":3},"indices":0,"material":0,"mode":4}]}],"nodes":[{"mesh":0,"name":"rpgpp_av_bench_wood_04a","rotation":[0,0,0,1],"scale":[1,1,1],"translation":[0,0,0]}],"samplers":[{}],"scene":0,"scenes":[{"name":"Root Scene","nodes":[0]}],"textures":[{"name":"base_color_texture","sampler":0,"source":0}]}