{"accessors":[{"bufferView":0,"byteOffset":0,"componentType":5123,"count":2025,"type":"SCALAR"},{"bufferView":1,"byteOffset":0,"componentType":5126,"count":413,"max":[0.0142012489959598,0.00669583166018128,0.0133236711844802],"min":[-0.01455120649189,-0.00019184171106,-0.01555732451379],"type":"VEC3"},{"bufferView":2,"byteOffset":0,"componentType":5126,"count":413,"type":"VEC3"},{"bufferView":3,"byteOffset":0,"componentType":5126,"count":413,"type":"VEC2"}],"asset":{"generator":"FBX2glTF v0.13.0","version":"2.0"},"bufferViews":[{"buffer":0,"byteLength":4050,"byteOffset":0,"target":34963},{"buffer":0,"byteLength":4956,"byteOffset":4052,"target":34962},{"buffer":0,"byteLength":4956,"byteOffset":9008,"target":34962},{"buffer":0,"byteLength":3304,"byteOffset":13964,"target":34962}],"buffers":[{"byteLength":17268,"uri":"rpgpp_av_planks_01c.bin"}],"images":[{"name":"rpgpp_av_tex_a","uri":"../../Textures/rpgpp_av_tex_a.png"}],"materials":[{"alphaMode":"OPAQUE","doubleSided":false,"extras":{"fromFBX":{"isTruePBR":false,"shadingModel":"Phong"}},"name":"rpgpp_av_mat_a","pbrMetallicRoughness":{"baseColorFactor":[1,1,1,1],"baseColorTexture":{"index":0,"texCoord":0},"metallicFactor":0.400000005960464,"roughnessFactor":0.284101665019989}}],"meshes":[{"name":"rpgpp_av_planks_01c","primitives":[{"attributes":{"NORMAL":2,"POSITION":1,"TEXCOORD_0":3},"indices":0,"material":0,"mode":4}]}],"nodes":[{"mesh":0,"name":"rpgpp_av_planks_01c","rotation":[0,0,0,1],"scale":[1,1,1],"translation":[0,0,0]}],"samplers":[{}],"scene":0,"scenes":[{"name":"Root Scene","nodes":[0]}],"textures":[{"name":"base_color_texture","sampler":0,"source":0}]}