{"accessors":[{"bufferView":0,"byteOffset":0,"componentType":5123,"count":996,"type":"SCALAR"},{"bufferView":1,"byteOffset":0,"componentType":5126,"count":213,"max":[0.00863014347851276,0.00399548234418035,0.00800864584743977],"min":[-0.00771848671138,-0.00001441299901,-0.00612496165559],"type":"VEC3"},{"bufferView":2,"byteOffset":0,"componentType":5126,"count":213,"type":"VEC3"},{"bufferView":3,"byteOffset":0,"componentType":5126,"count":213,"type":"VEC2"}],"asset":{"generator":"FBX2glTF v0.13.0","version":"2.0"},"bufferViews":[{"buffer":0,"byteLength":1992,"byteOffset":0,"target":34963},{"buffer":0,"byteLength":2556,"byteOffset":1992,"target":34962},{"buffer":0,"byteLength":2556,"byteOffset":4548,"target":34962},{"buffer":0,"byteLength":1704,"byteOffset":7104,"target":34962}],"buffers":[{"byteLength":8808,"uri":"rpgpp_av_wheel_01b.bin"}],"images":[{"name":"rpgpp_av_tex_a","uri":"../../Textures/rpgpp_av_tex_a.png"}],"materials":[{"alphaMode":"OPAQUE","doubleSided":false,"extras":{"fromFBX":{"isTruePBR":false,"shadingModel":"Phong"}},"name":"rpgpp_av_mat_a","pbrMetallicRoughness":{"baseColorFactor":[1,1,1,1],"baseColorTexture":{"index":0,"texCoord":0},"metallicFactor":0.400000005960464,"roughnessFactor":0.284101665019989}}],"meshes":[{"name":"rpgpp_av_wheel_01b","primitives":[{"attributes":{"NORMAL":2,"POSITION":1,"TEXCOORD_0":3},"indices":0,"material":0,"mode":4}]}],"nodes":[{"mesh":0,"name":"rpgpp_av_wheel_01b","rotation":[0,0,0,1],"scale":[1,1,1],"translation":[0,0,0]}],"samplers":[{}],"scene":0,"scenes":[{"name":"Root Scene","nodes":[0]}],"textures":[{"name":"base_color_texture","sampler":0,"source":0}]}