{"accessors":[{"bufferView":0,"byteOffset":0,"componentType":5123,"count":1296,"type":"SCALAR"},{"bufferView":1,"byteOffset":0,"componentType":5126,"count":272,"max":[0.00535350805148482,0.00478259241208434,0.00410630134865642],"min":[-0.00535520771518,-0.00316743459553,-0.00395254744217],"type":"VEC3"},{"bufferView":2,"byteOffset":0,"componentType":5126,"count":272,"type":"VEC3"},{"bufferView":3,"byteOffset":0,"componentType":5126,"count":272,"type":"VEC2"}],"asset":{"generator":"FBX2glTF v0.13.0","version":"2.0"},"bufferViews":[{"buffer":0,"byteLength":2592,"byteOffset":0,"target":34963},{"buffer":0,"byteLength":3264,"byteOffset":2592,"target":34962},{"buffer":0,"byteLength":3264,"byteOffset":5856,"target":34962},{"buffer":0,"byteLength":2176,"byteOffset":9120,"target":34962}],"buffers":[{"byteLength":11296,"uri":"rpgpp_av_cage_02b.bin"}],"images":[{"name":"rpgpp_av_tex_a","uri":"../../Textures/rpgpp_av_tex_a.png"}],"materials":[{"alphaMode":"OPAQUE","doubleSided":false,"extras":{"fromFBX":{"isTruePBR":false,"shadingModel":"Phong"}},"name":"rpgpp_av_mat_a","pbrMetallicRoughness":{"baseColorFactor":[1,1,1,1],"baseColorTexture":{"index":0,"texCoord":0},"metallicFactor":0.400000005960464,"roughnessFactor":0.284101665019989}}],"meshes":[{"name":"rpgpp_av_cage_02b","primitives":[{"attributes":{"NORMAL":2,"POSITION":1,"TEXCOORD_0":3},"indices":0,"material":0,"mode":4}]}],"nodes":[{"mesh":0,"name":"rpgpp_av_cage_02b","rotation":[0,0,0,1],"scale":[1,1,1],"translation":[0,0,0]}],"samplers":[{}],"scene":0,"scenes":[{"name":"Root Scene","nodes":[0]}],"textures":[{"name":"base_color_texture","sampler":0,"source":0}]}