{"accessors":[{"bufferView":0,"byteOffset":0,"componentType":5123,"count":1380,"type":"SCALAR"},{"bufferView":1,"byteOffset":0,"componentType":5126,"count":361,"max":[0.00939800497144461,0.00903556123375893,0.00853655580431223],"min":[-0.01194699387997,-0.00012669406715,-0.00836385507137],"type":"VEC3"},{"bufferView":2,"byteOffset":0,"componentType":5126,"count":361,"type":"VEC3"},{"bufferView":3,"byteOffset":0,"componentType":5126,"count":361,"type":"VEC2"}],"asset":{"generator":"FBX2glTF v0.13.0","version":"2.0"},"bufferViews":[{"buffer":0,"byteLength":2760,"byteOffset":0,"target":34963},{"buffer":0,"byteLength":4332,"byteOffset":2760,"target":34962},{"buffer":0,"byteLength":4332,"byteOffset":7092,"target":34962},{"buffer":0,"byteLength":2888,"byteOffset":11424,"target":34962}],"buffers":[{"byteLength":14312,"uri":"rpgpp_av_log_wood_01a.bin"}],"images":[{"name":"rpgpp_av_tex_a","uri":"../../Textures/rpgpp_av_tex_a.png"}],"materials":[{"alphaMode":"OPAQUE","doubleSided":false,"extras":{"fromFBX":{"isTruePBR":false,"shadingModel":"Phong"}},"name":"rpgpp_av_mat_a","pbrMetallicRoughness":{"baseColorFactor":[1,1,1,1],"baseColorTexture":{"index":0,"texCoord":0},"metallicFactor":0.400000005960464,"roughnessFactor":0.284101665019989}}],"meshes":[{"name":"rpgpp_av_log_wood_01a","primitives":[{"attributes":{"NORMAL":2,"POSITION":1,"TEXCOORD_0":3},"indices":0,"material":0,"mode":4}]}],"nodes":[{"mesh":0,"name":"rpgpp_av_log_wood_01a","rotation":[0,0,0,1],"scale":[1,1,1],"translation":[0,0,0]}],"samplers":[{}],"scene":0,"scenes":[{"name":"Root Scene","nodes":[0]}],"textures":[{"name":"base_color_texture","sampler":0,"source":0}]}