{"accessors":[{"bufferView":0,"byteOffset":0,"componentType":5123,"count":888,"type":"SCALAR"},{"bufferView":1,"byteOffset":0,"componentType":5126,"count":194,"max":[0.0125492783263326,0.023600434884429,0.00860075652599335],"min":[-0.01289374195039,-0.00062038266333,-0.00481523619965],"type":"VEC3"},{"bufferView":2,"byteOffset":0,"componentType":5126,"count":194,"type":"VEC3"},{"bufferView":3,"byteOffset":0,"componentType":5126,"count":194,"type":"VEC2"}],"asset":{"generator":"FBX2glTF v0.13.0","version":"2.0"},"bufferViews":[{"buffer":0,"byteLength":1776,"byteOffset":0,"target":34963},{"buffer":0,"byteLength":2328,"byteOffset":1776,"target":34962},{"buffer":0,"byteLength":2328,"byteOffset":4104,"target":34962},{"buffer":0,"byteLength":1552,"byteOffset":6432,"target":34962}],"buffers":[{"byteLength":7984,"uri":"rpgpp_av_planks_01e.bin"}],"images":[{"name":"rpgpp_av_tex_a","uri":"../../Textures/rpgpp_av_tex_a.png"}],"materials":[{"alphaMode":"OPAQUE","doubleSided":false,"extras":{"fromFBX":{"isTruePBR":false,"shadingModel":"Phong"}},"name":"rpgpp_av_mat_a","pbrMetallicRoughness":{"baseColorFactor":[1,1,1,1],"baseColorTexture":{"index":0,"texCoord":0},"metallicFactor":0.400000005960464,"roughnessFactor":0.284101665019989}}],"meshes":[{"name":"rpgpp_av_planks_01e","primitives":[{"attributes":{"NORMAL":2,"POSITION":1,"TEXCOORD_0":3},"indices":0,"material":0,"mode":4}]}],"nodes":[{"mesh":0,"name":"rpgpp_av_planks_01e","rotation":[0,0,0,1],"scale":[1,1,1],"translation":[0,0,0]}],"samplers":[{}],"scene":0,"scenes":[{"name":"Root Scene","nodes":[0]}],"textures":[{"name":"base_color_texture","sampler":0,"source":0}]}