{"accessors":[{"bufferView":0,"byteOffset":0,"componentType":5123,"count":1260,"type":"SCALAR"},{"bufferView":1,"byteOffset":0,"componentType":5126,"count":245,"max":[0.00647445023059845,0.00784186460077763,0.00845362432301044],"min":[-0.00654203537852,0.0000227390755753731,-0.00657334411517],"type":"VEC3"},{"bufferView":2,"byteOffset":0,"componentType":5126,"count":245,"type":"VEC3"},{"bufferView":3,"byteOffset":0,"componentType":5126,"count":245,"type":"VEC2"}],"asset":{"generator":"FBX2glTF v0.13.0","version":"2.0"},"bufferViews":[{"buffer":0,"byteLength":2520,"byteOffset":0,"target":34963},{"buffer":0,"byteLength":2940,"byteOffset":2520,"target":34962},{"buffer":0,"byteLength":2940,"byteOffset":5460,"target":34962},{"buffer":0,"byteLength":1960,"byteOffset":8400,"target":34962}],"buffers":[{"byteLength":10360,"uri":"rpgpp_av_bathtub_wood_01c.bin"}],"images":[{"name":"rpgpp_av_tex_a","uri":"../../Textures/rpgpp_av_tex_a.png"}],"materials":[{"alphaMode":"OPAQUE","doubleSided":false,"extras":{"fromFBX":{"isTruePBR":false,"shadingModel":"Phong"}},"name":"rpgpp_av_mat_a","pbrMetallicRoughness":{"baseColorFactor":[1,1,1,1],"baseColorTexture":{"index":0,"texCoord":0},"metallicFactor":0.400000005960464,"roughnessFactor":0.284101665019989}}],"meshes":[{"name":"rpgpp_av_bathtub_wood_01c","primitives":[{"attributes":{"NORMAL":2,"POSITION":1,"TEXCOORD_0":3},"indices":0,"material":0,"mode":4}]}],"nodes":[{"mesh":0,"name":"rpgpp_av_bathtub_wood_01c","rotation":[0,0,0,1],"scale":[1,1,1],"translation":[0,0,0]}],"samplers":[{}],"scene":0,"scenes":[{"name":"Root Scene","nodes":[0]}],"textures":[{"name":"base_color_texture","sampler":0,"source":0}]}