{"accessors":[{"bufferView":0,"byteOffset":0,"componentType":5123,"count":984,"type":"SCALAR"},{"bufferView":1,"byteOffset":0,"componentType":5126,"count":267,"max":[0.0131453117355704,0.00665259594097733,0.00595845049247146],"min":[-0.0132862739265,-0.00000055670739,-0.00593255739659],"type":"VEC3"},{"bufferView":2,"byteOffset":0,"componentType":5126,"count":267,"type":"VEC3"},{"bufferView":3,"byteOffset":0,"componentType":5126,"count":267,"type":"VEC2"}],"asset":{"generator":"FBX2glTF v0.13.0","version":"2.0"},"bufferViews":[{"buffer":0,"byteLength":1968,"byteOffset":0,"target":34963},{"buffer":0,"byteLength":3204,"byteOffset":1968,"target":34962},{"buffer":0,"byteLength":3204,"byteOffset":5172,"target":34962},{"buffer":0,"byteLength":2136,"byteOffset":8376,"target":34962}],"buffers":[{"byteLength":10512,"uri":"rpgpp_av_bed_03a.bin"}],"images":[{"name":"rpgpp_av_tex_a","uri":"../../Textures/rpgpp_av_tex_a.png"}],"materials":[{"alphaMode":"OPAQUE","doubleSided":false,"extras":{"fromFBX":{"isTruePBR":false,"shadingModel":"Phong"}},"name":"rpgpp_av_mat_a","pbrMetallicRoughness":{"baseColorFactor":[1,1,1,1],"baseColorTexture":{"index":0,"texCoord":0},"metallicFactor":0.400000005960464,"roughnessFactor":0.284101665019989}}],"meshes":[{"name":"rpgpp_av_bed_03a","primitives":[{"attributes":{"NORMAL":2,"POSITION":1,"TEXCOORD_0":3},"indices":0,"material":0,"mode":4}]}],"nodes":[{"mesh":0,"name":"rpgpp_av_bed_03a","rotation":[0,0,0,1],"scale":[1,1,1],"translation":[0,0,0]}],"samplers":[{}],"scene":0,"scenes":[{"name":"Root Scene","nodes":[0]}],"textures":[{"name":"base_color_texture","sampler":0,"source":0}]}