{"accessors":[{"bufferView":0,"byteOffset":0,"componentType":5123,"count":276,"type":"SCALAR"},{"bufferView":1,"byteOffset":0,"componentType":5126,"count":69,"max":[0.00644605560228229,0.00529239606112242,0.00191588862799108],"min":[-0.00545791396871,0.00000112195129986503,-0.00216125114821],"type":"VEC3"},{"bufferView":2,"byteOffset":0,"componentType":5126,"count":69,"type":"VEC3"},{"bufferView":3,"byteOffset":0,"componentType":5126,"count":69,"type":"VEC2"}],"asset":{"generator":"FBX2glTF v0.13.0","version":"2.0"},"bufferViews":[{"buffer":0,"byteLength":552,"byteOffset":0,"target":34963},{"buffer":0,"byteLength":828,"byteOffset":552,"target":34962},{"buffer":0,"byteLength":828,"byteOffset":1380,"target":34962},{"buffer":0,"byteLength":552,"byteOffset":2208,"target":34962}],"buffers":[{"byteLength":2760,"uri":"rpgpp_av_bench_wood_03a.bin"}],"images":[{"name":"rpgpp_av_tex_a","uri":"../../Textures/rpgpp_av_tex_a.png"}],"materials":[{"alphaMode":"OPAQUE","doubleSided":false,"extras":{"fromFBX":{"isTruePBR":false,"shadingModel":"Phong"}},"name":"rpgpp_av_mat_a","pbrMetallicRoughness":{"baseColorFactor":[1,1,1,1],"baseColorTexture":{"index":0,"texCoord":0},"metallicFactor":0.400000005960464,"roughnessFactor":0.284101665019989}}],"meshes":[{"name":"rpgpp_av_bench_wood_03a","primitives":[{"attributes":{"NORMAL":2,"POSITION":1,"TEXCOORD_0":3},"indices":0,"material":0,"mode":4}]}],"nodes":[{"mesh":0,"name":"rpgpp_av_bench_wood_03a","rotation":[0,0,0,1],"scale":[1,1,1],"translation":[0,0,0]}],"samplers":[{}],"scene":0,"scenes":[{"name":"Root Scene","nodes":[0]}],"textures":[{"name":"base_color_texture","sampler":0,"source":0}]}