{"accessors":[{"bufferView":0,"byteOffset":0,"componentType":5123,"count":576,"type":"SCALAR"},{"bufferView":1,"byteOffset":0,"componentType":5126,"count":130,"max":[0.00689809955656528,0.0191501621156931,0.00115333998110145],"min":[-0.00464035058394,0.00000165761559856037,-0.01051541045308],"type":"VEC3"},{"bufferView":2,"byteOffset":0,"componentType":5126,"count":130,"type":"VEC3"},{"bufferView":3,"byteOffset":0,"componentType":5126,"count":130,"type":"VEC2"}],"asset":{"generator":"FBX2glTF v0.13.0","version":"2.0"},"bufferViews":[{"buffer":0,"byteLength":1152,"byteOffset":0,"target":34963},{"buffer":0,"byteLength":1560,"byteOffset":1152,"target":34962},{"buffer":0,"byteLength":1560,"byteOffset":2712,"target":34962},{"buffer":0,"byteLength":1040,"byteOffset":4272,"target":34962}],"buffers":[{"byteLength":5312,"uri":"rpgpp_av_road_sign_01a.bin"}],"images":[{"name":"rpgpp_av_tex_a","uri":"../../Textures/rpgpp_av_tex_a.png"}],"materials":[{"alphaMode":"OPAQUE","doubleSided":false,"extras":{"fromFBX":{"isTruePBR":false,"shadingModel":"Phong"}},"name":"rpgpp_av_mat_a","pbrMetallicRoughness":{"baseColorFactor":[1,1,1,1],"baseColorTexture":{"index":0,"texCoord":0},"metallicFactor":0.400000005960464,"roughnessFactor":0.284101665019989}}],"meshes":[{"name":"rpgpp_av_road_sign_01a","primitives":[{"attributes":{"NORMAL":2,"POSITION":1,"TEXCOORD_0":3},"indices":0,"material":0,"mode":4}]}],"nodes":[{"mesh":0,"name":"rpgpp_av_road_sign_01a","rotation":[0,0,0,1],"scale":[1,1,1],"translation":[0,0,0]}],"samplers":[{}],"scene":0,"scenes":[{"name":"Root Scene","nodes":[0]}],"textures":[{"name":"base_color_texture","sampler":0,"source":0}]}