{
  "accessors": [
    {
      "bufferView": 2,
      "componentType": 5126,
      "count": 2673,
      "max": [
        60.08412551879883,
        43.1915168762207,
        110.54524993896484
      ],
      "min": [
        -66.29070281982422,
        -69.02840423583984,
        -18.19194793701172
      ],
      "type": "VEC3"
    },
    {
      "bufferView": 2,
      "byteOffset": 32076,
      "componentType": 5126,
      "count": 2673,
      "max": [
        0.9982081055641174,
        0.9955294728279114,
        0.9990555047988892
      ],
      "min": [
        -0.9996374845504761,
        -0.9987503290176392,
        -0.9999275207519531
      ],
      "type": "VEC3"
    },
    {
      "bufferView": 1,
      "componentType": 5126,
      "count": 2673,
      "max": [
        0.9900000095367432,
        0.9900000095367432
      ],
      "min": [
        0.009999999776482582,
        0.009999999776482582
      ],
      "type": "VEC2"
    },
    {
      "bufferView": 0,
      "componentType": 5125,
      "count": 10806,
      "type": "SCALAR"
    },
    {
      "bufferView": 2,
      "byteOffset": 64152,
      "componentType": 5126,
      "count": 1408,
      "max": [
        85.99850463867188,
        71.98897552490234,
        7.066112041473389
      ],
      "min": [
        -58.95555114746094,
        -81.94688415527344,
        -21.129131317138672
      ],
      "type": "VEC3"
    },
    {
      "bufferView": 2,
      "byteOffset": 81048,
      "componentType": 5126,
      "count": 1408,
      "max": [
        0.9973103404045105,
        0.9984497427940369,
        0.9895558953285217
      ],
      "min": [
        -0.9739532470703125,
        -0.9959501028060913,
        -0.8591941595077515
      ],
      "type": "VEC3"
    },
    {
      "bufferView": 1,
      "byteOffset": 21384,
      "componentType": 5126,
      "count": 1408,
      "max": [
        0.974407970905304,
        1.0
      ],
      "min": [
        0.0,
        0.02237199991941452
      ],
      "type": "VEC2"
    },
    {
      "bufferView": 0,
      "byteOffset": 43224,
      "componentType": 5125,
      "count": 2160,
      "type": "SCALAR"
    },
    {
      "bufferView": 2,
      "byteOffset": 97944,
      "componentType": 5126,
      "count": 904,
      "max": [
        77.13981628417969,
        49.56634521484375,
        174.61468505859375
      ],
      "min": [
        -80.80783081054688,
        -101.4607925415039,
        79.22382354736328
      ],
      "type": "VEC3"
    },
    {
      "bufferView": 2,
      "byteOffset": 108792,
      "componentType": 5126,
      "count": 904,
      "max": [
        0.9846559762954712,
        0.9990744590759277,
        0.998763382434845
      ],
      "min": [
        -0.999086856842041,
        -0.9999511241912842,
        -0.9995716214179993
      ],
      "type": "VEC3"
    },
    {
      "bufferView": 1,
      "byteOffset": 32648,
      "componentType": 5126,
      "count": 904,
      "max": [
        0.9900000095367432,
        0.9900000095367432
      ],
      "min": [
        0.009999999776482582,
        0.014298000372946262
      ],
      "type": "VEC2"
    },
    {
      "bufferView": 0,
      "byteOffset": 51864,
      "componentType": 5125,
      "count": 3876,
      "type": "SCALAR"
    },
    {
      "bufferView": 2,
      "byteOffset": 119640,
      "componentType": 5126,
      "count": 972,
      "max": [
        77.22139739990234,
        54.00362014770508,
        180.2477569580078
      ],
      "min": [
        -89.26773834228516,
        -105.07923889160156,
        73.09078216552734
      ],
      "type": "VEC3"
    },
    {
      "bufferView": 2,
      "byteOffset": 131304,
      "componentType": 5126,
      "count": 972,
      "max": [
        0.990655779838562,
        0.9924834966659546,
        0.9978532195091248
      ],
      "min": [
        -0.995785653591156,
        -0.9895268678665161,
        -0.9942992329597473
      ],
      "type": "VEC3"
    },
    {
      "bufferView": 1,
      "byteOffset": 39880,
      "componentType": 5126,
      "count": 972,
      "max": [
        0.9664030075073242,
        0.9732769727706909
      ],
      "min": [
        0.010029999539256096,
        0.019443999975919724
      ],
      "type": "VEC2"
    },
    {
      "bufferView": 0,
      "byteOffset": 67368,
      "componentType": 5125,
      "count": 1458,
      "type": "SCALAR"
    },
    {
      "bufferView": 2,
      "byteOffset": 142968,
      "componentType": 5126,
      "count": 2663,
      "max": [
        89.19560241699219,
        66.384521484375,
        16.780248641967773
      ],
      "min": [
        -63.9091796875,
        -80.138671875,
        -50.08388900756836
      ],
      "type": "VEC3"
    },
    {
      "bufferView": 2,
      "byteOffset": 174924,
      "componentType": 5126,
      "count": 2663,
      "max": [
        0.9982239007949829,
        0.9992790222167969,
        0.999866783618927
      ],
      "min": [
        -0.9987284541130066,
        -0.9999582171440125,
        -0.9999104738235474
      ],
      "type": "VEC3"
    },
    {
      "bufferView": 1,
      "byteOffset": 47656,
      "componentType": 5126,
      "count": 2663,
      "max": [
        0.9859750270843506,
        0.9900000095367432
      ],
      "min": [
        0.009999999776482582,
        0.009999999776482582
      ],
      "type": "VEC2"
    },
    {
      "bufferView": 0,
      "byteOffset": 73200,
      "componentType": 5125,
      "count": 12048,
      "type": "SCALAR"
    }
  ],
  "asset": {
    "extras": {
      "author": "Frybrix (https://sketchfab.com/Frybrix)",
      "license": "CC-BY-4.0 (http://creativecommons.org/licenses/by/4.0/)",
      "source": "https://sketchfab.com/3d-models/tree-1d419eb4c9d34fc1a7f1e88d6ea8d55a",
      "title": "Tree"
    },
    "generator": "Sketchfab-12.68.0",
    "version": "2.0"
  },
  "bufferViews": [
    {
      "buffer": 0,
      "byteLength": 121392,
      "name": "floatBufferViews",
      "target": 34963
    },
    {
      "buffer": 0,
      "byteLength": 68960,
      "byteOffset": 121392,
      "byteStride": 8,
      "name": "floatBufferViews",
      "target": 34962
    },
    {
      "buffer": 0,
      "byteLength": 206880,
      "byteOffset": 190352,
      "byteStride": 12,
      "name": "floatBufferViews",
      "target": 34962
    }
  ],
  "buffers": [
    {
      "byteLength": 397232,
      "uri": "scene.bin"
    }
  ],
  "extensionsUsed": [
    "KHR_materials_unlit"
  ],
  "images": [
    {
      "uri": "textures/CTBOL_baseColor.png"
    },
    {
      "uri": "textures/Grass_baseColor.png"
    },
    {
      "uri": "textures/Ground_and_rock_baseColor.png"
    },
    {
      "uri": "textures/KPOHA_baseColor.png"
    },
    {
      "uri": "textures/LISTBA_baseColor.png"
    }
  ],
  "materials": [
    {
      "doubleSided": true,
      "extensions": {
        "KHR_materials_unlit": {}
      },
      "name": "CTBOL",
      "pbrMetallicRoughness": {
        "baseColorTexture": {
          "index": 0
        },
        "metallicFactor": 0.0
      }
    },
    {
      "alphaMode": "BLEND",
      "doubleSided": true,
      "extensions": {
        "KHR_materials_unlit": {}
      },
      "name": "Grass",
      "pbrMetallicRoughness": {
        "baseColorTexture": {
          "index": 1
        },
        "metallicFactor": 0.0
      }
    },
    {
      "doubleSided": true,
      "extensions": {
        "KHR_materials_unlit": {}
      },
      "name": "Ground_and_rock",
      "pbrMetallicRoughness": {
        "baseColorTexture": {
          "index": 2
        },
        "metallicFactor": 0.0
      }
    },
    {
      "doubleSided": true,
      "extensions": {
        "KHR_materials_unlit": {}
      },
      "name": "KPOHA",
      "pbrMetallicRoughness": {
        "baseColorTexture": {
          "index": 3
        },
        "metallicFactor": 0.0
      }
    },
    {
      "alphaMode": "BLEND",
      "doubleSided": true,
      "extensions": {
        "KHR_materials_unlit": {}
      },
      "name": "LISTBA",
      "pbrMetallicRoughness": {
        "baseColorTexture": {
          "index": 4
        },
        "metallicFactor": 0.0
      }
    }
  ],
  "meshes": [
    {
      "name": "Object_0",
      "primitives": [
        {
          "attributes": {
            "NORMAL": 1,
            "POSITION": 0,
            "TEXCOORD_0": 2
          },
          "indices": 3,
          "material": 0,
          "mode": 4
        }
      ]
    },
    {
      "name": "Object_1",
      "primitives": [
        {
          "attributes": {
            "NORMAL": 5,
            "POSITION": 4,
            "TEXCOORD_0": 6
          },
          "indices": 7,
          "material": 1,
          "mode": 4
        }
      ]
    },
    {
      "name": "Object_2",
      "primitives": [
        {
          "attributes": {
            "NORMAL": 9,
            "POSITION": 8,
            "TEXCOORD_0": 10
          },
          "indices": 11,
          "material": 3,
          "mode": 4
        }
      ]
    },
    {
      "name": "Object_3",
      "primitives": [
        {
          "attributes": {
            "NORMAL": 13,
            "POSITION": 12,
            "TEXCOORD_0": 14
          },
          "indices": 15,
          "material": 4,
          "mode": 4
        }
      ]
    },
    {
      "name": "Object_4",
      "primitives": [
        {
          "attributes": {
            "NORMAL": 17,
            "POSITION": 16,
            "TEXCOORD_0": 18
          },
          "indices": 19,
          "material": 2,
          "mode": 4
        }
      ]
    }
  ],
  "nodes": [
    {
      "children": [
        1
      ],
      "matrix": [
        0.022587204352021217,
        0.0,
        0.0,
        0.0,
        0.0,
        5.015366866705499e-18,
        -0.022587204352021217,
        0.0,
        0.0,
        0.022587204352021217,
        5.015366866705499e-18,
        0.0,
        0.0,
        0.0,
        0.0,
        1.0
      ],
      "name": "Sketchfab_model"
    },
    {
      "children": [
        2,
        3,
        4,
        5,
        6
      ],
      "name": "Tree.obj.cleaner.materialmerger.gles"
    },
    {
      "mesh": 0,
      "name": "Object_2"
    },
    {
      "mesh": 1,
      "name": "Object_3"
    },
    {
      "mesh": 2,
      "name": "Object_4"
    },
    {
      "mesh": 3,
      "name": "Object_5"
    },
    {
      "mesh": 4,
      "name": "Object_6"
    }
  ],
  "samplers": [
    {
      "magFilter": 9729,
      "minFilter": 9987,
      "wrapS": 10497,
      "wrapT": 10497
    }
  ],
  "scene": 0,
  "scenes": [
    {
      "name": "Sketchfab_Scene",
      "nodes": [
        0
      ]
    }
  ],
  "textures": [
    {
      "sampler": 0,
      "source": 0
    },
    {
      "sampler": 0,
      "source": 1
    },
    {
      "sampler": 0,
      "source": 2
    },
    {
      "sampler": 0,
      "source": 3
    },
    {
      "sampler": 0,
      "source": 4
    }
  ]
}
