{"accessors":[{"bufferView":0,"byteOffset":0,"componentType":5123,"count":1536,"type":"SCALAR"},{"bufferView":1,"byteOffset":0,"componentType":5126,"count":258,"max":[0.210251823067665,0.198661297559738,0.135281726717949],"min":[-0.2216027379036,-0.00227618217468,-0.12657640874386],"type":"VEC3"},{"bufferView":2,"byteOffset":0,"componentType":5126,"count":258,"type":"VEC3"},{"bufferView":3,"byteOffset":0,"componentType":5126,"count":258,"type":"VEC2"}],"asset":{"generator":"FBX2glTF v0.13.1","version":"2.0"},"bufferViews":[{"buffer":0,"byteLength":3072,"byteOffset":0,"target":34963},{"buffer":0,"byteLength":3096,"byteOffset":3072,"target":34962},{"buffer":0,"byteLength":3096,"byteOffset":6168,"target":34962},{"buffer":0,"byteLength":2064,"byteOffset":9264,"target":34962}],"buffers":[{"byteLength":11328,"uri":"rpgpp_av_cloud_01.bin"}],"materials":[{"alphaMode":"OPAQUE","doubleSided":false,"extras":{"fromFBX":{"isTruePBR":false,"shadingModel":"Phong"}},"name":"rpgpp_ne_cloud_mat_a","pbrMetallicRoughness":{"baseColorFactor":[0.800000011920929,0.800000011920929,0.800000011920929,1],"metallicFactor":0.400000005960464,"roughnessFactor":0.272165536880493}}],"meshes":[{"name":"rpgpp_av_cloud_01","primitives":[{"attributes":{"NORMAL":2,"POSITION":1,"TEXCOORD_0":3},"indices":0,"material":0,"mode":4}]}],"nodes":[{"mesh":0,"name":"rpgpp_av_cloud_01","rotation":[0,0,0,1],"scale":[1,1,1],"translation":[0,0,0]}],"samplers":[{}],"scene":0,"scenes":[{"name":"Root Scene","nodes":[0]}]}