{"accessors":[{"bufferView":0,"byteOffset":0,"componentType":5123,"count":3045,"type":"SCALAR"},{"bufferView":1,"byteOffset":0,"componentType":5126,"count":518,"max":[0.548694431781769,0.112369023263454,0.566133320331573],"min":[-0.54770463705063,0,-0.56671911478043],"type":"VEC3"},{"bufferView":2,"byteOffset":0,"componentType":5126,"count":518,"type":"VEC3"},{"bufferView":3,"byteOffset":0,"componentType":5126,"count":518,"type":"VEC2"}],"asset":{"generator":"FBX2glTF v0.13.1","version":"2.0"},"bufferViews":[{"buffer":0,"byteLength":6090,"byteOffset":0,"target":34963},{"buffer":0,"byteLength":6216,"byteOffset":6092,"target":34962},{"buffer":0,"byteLength":6216,"byteOffset":12308,"target":34962},{"buffer":0,"byteLength":4144,"byteOffset":18524,"target":34962}],"buffers":[{"byteLength":22668,"uri":"rpgpp_av_hill_background_02.bin"}],"images":[{"name":"rpgpp_av_tex_a","uri":"../../../Textures/rpgpp_av_tex_a.png"}],"materials":[{"alphaMode":"OPAQUE","doubleSided":false,"extras":{"fromFBX":{"isTruePBR":false,"shadingModel":"Phong"}},"name":"rpgpp_av_mat_a","pbrMetallicRoughness":{"baseColorFactor":[1,1,1,1],"baseColorTexture":{"index":0,"texCoord":0},"metallicFactor":0.400000005960464,"roughnessFactor":0.284101665019989}}],"meshes":[{"name":"rpgpp_av_hill_background_02","primitives":[{"attributes":{"NORMAL":2,"POSITION":1,"TEXCOORD_0":3},"indices":0,"material":0,"mode":4}]}],"nodes":[{"mesh":0,"name":"rpgpp_av_hill_background_02","rotation":[0,0,0,1],"scale":[1,1,1],"translation":[0,0,0]}],"samplers":[{}],"scene":0,"scenes":[{"name":"Root Scene","nodes":[0]}],"textures":[{"name":"base_color_texture","sampler":0,"source":0}]}