{"accessors":[{"bufferView":0,"byteOffset":0,"componentType":5123,"count":2232,"type":"SCALAR"},{"bufferView":1,"byteOffset":0,"componentType":5126,"count":502,"max":[0.199999988079071,0.0038783757481724,0],"min":[0,-0.00115070096217,-0.19999998807907],"type":"VEC3"},{"bufferView":2,"byteOffset":0,"componentType":5126,"count":502,"type":"VEC3"},{"bufferView":3,"byteOffset":0,"componentType":5126,"count":502,"type":"VEC2"}],"asset":{"generator":"FBX2glTF v0.13.1","version":"2.0"},"bufferViews":[{"buffer":0,"byteLength":4464,"byteOffset":0,"target":34963},{"buffer":0,"byteLength":6024,"byteOffset":4464,"target":34962},{"buffer":0,"byteLength":6024,"byteOffset":10488,"target":34962},{"buffer":0,"byteLength":4016,"byteOffset":16512,"target":34962}],"buffers":[{"byteLength":20528,"uri":"rpgpp_av_terrain_path_02_20x20m_grass_soil_a.bin"}],"images":[{"name":"rpgpp_ag_tex_a","uri":"rpgpp_ag_tex_a.png"}],"materials":[{"alphaMode":"OPAQUE","doubleSided":false,"extras":{"fromFBX":{"isTruePBR":false,"shadingModel":"Phong"}},"name":"rpgpp_ag_mat_a","pbrMetallicRoughness":{"baseColorFactor":[1,1,1,1],"baseColorTexture":{"index":0,"texCoord":0},"metallicFactor":0.400000005960464,"roughnessFactor":0.284101665019989}}],"meshes":[{"name":"rpgpp_av_terrain_path_02_20x20m_grass_soil_a","primitives":[{"attributes":{"NORMAL":2,"POSITION":1,"TEXCOORD_0":3},"indices":0,"material":0,"mode":4}]}],"nodes":[{"mesh":0,"name":"rpgpp_av_terrain_path_02_20x20m_grass_soil_a","rotation":[0,0,0,1],"scale":[1,1,1],"translation":[0,0,0]}],"samplers":[{}],"scene":0,"scenes":[{"name":"Root Scene","nodes":[0]}],"textures":[{"name":"base_color_texture","sampler":0,"source":0}]}