{"accessors":[{"bufferView":0,"byteOffset":0,"componentType":5123,"count":780,"type":"SCALAR"},{"bufferView":1,"byteOffset":0,"componentType":5126,"count":165,"max":[0.200000017881393,0.052702821791172,-0],"min":[-0.00000237685094,-0.00000000447035,-0.20000003278255],"type":"VEC3"},{"bufferView":2,"byteOffset":0,"componentType":5126,"count":165,"type":"VEC3"},{"bufferView":3,"byteOffset":0,"componentType":5126,"count":165,"type":"VEC2"}],"asset":{"generator":"FBX2glTF v0.13.1","version":"2.0"},"bufferViews":[{"buffer":0,"byteLength":1560,"byteOffset":0,"target":34963},{"buffer":0,"byteLength":1980,"byteOffset":1560,"target":34962},{"buffer":0,"byteLength":1980,"byteOffset":3540,"target":34962},{"buffer":0,"byteLength":1320,"byteOffset":5520,"target":34962}],"buffers":[{"byteLength":6840,"uri":"rpgpp_av_terrain_lake_04_20x20m.bin"}],"images":[{"name":"rpgpp_av_tex_a","uri":"../../../Textures/rpgpp_av_tex_a.png"}],"materials":[{"alphaMode":"OPAQUE","doubleSided":false,"extras":{"fromFBX":{"isTruePBR":false,"shadingModel":"Phong"}},"name":"rpgpp_av_mat_a","pbrMetallicRoughness":{"baseColorFactor":[1,1,1,1],"baseColorTexture":{"index":0,"texCoord":0},"metallicFactor":0.400000005960464,"roughnessFactor":0.284101665019989}}],"meshes":[{"name":"rpgpp_av_terrain_lake_04_20x20m","primitives":[{"attributes":{"NORMAL":2,"POSITION":1,"TEXCOORD_0":3},"indices":0,"material":0,"mode":4}]}],"nodes":[{"mesh":0,"name":"rpgpp_av_terrain_lake_04_20x20m","rotation":[0,0,0,1],"scale":[1,1,1],"translation":[0,0,0]}],"samplers":[{}],"scene":0,"scenes":[{"name":"Root Scene","nodes":[0]}],"textures":[{"name":"base_color_texture","sampler":0,"source":0}]}