{"accessors":[{"bufferView":0,"byteOffset":0,"componentType":5123,"count":1440,"type":"SCALAR"},{"bufferView":1,"byteOffset":0,"componentType":5126,"count":261,"max":[0.199999988079071,0.0038783757481724,0],"min":[0,-0.00041064954712,-0.19999998807907],"type":"VEC3"},{"bufferView":2,"byteOffset":0,"componentType":5126,"count":261,"type":"VEC3"},{"bufferView":3,"byteOffset":0,"componentType":5126,"count":261,"type":"VEC2"}],"asset":{"generator":"FBX2glTF v0.13.1","version":"2.0"},"bufferViews":[{"buffer":0,"byteLength":2880,"byteOffset":0,"target":34963},{"buffer":0,"byteLength":3132,"byteOffset":2880,"target":34962},{"buffer":0,"byteLength":3132,"byteOffset":6012,"target":34962},{"buffer":0,"byteLength":2088,"byteOffset":9144,"target":34962}],"buffers":[{"byteLength":11232,"uri":"rpgpp_av_terrain_grass_01a_20x20m.bin"}],"images":[{"name":"rpgpp_ag_tex_a","uri":"rpgpp_ag_tex_a.png"}],"materials":[{"alphaMode":"OPAQUE","doubleSided":false,"extras":{"fromFBX":{"isTruePBR":false,"shadingModel":"Phong"}},"name":"rpgpp_ag_mat_a","pbrMetallicRoughness":{"baseColorFactor":[1,1,1,1],"baseColorTexture":{"index":0,"texCoord":0},"metallicFactor":0.400000005960464,"roughnessFactor":0.284101665019989}}],"meshes":[{"name":"rpgpp_av_terrain_grass_01a_20x20m","primitives":[{"attributes":{"NORMAL":2,"POSITION":1,"TEXCOORD_0":3},"indices":0,"material":0,"mode":4}]}],"nodes":[{"mesh":0,"name":"rpgpp_av_terrain_grass_01a_20x20m","rotation":[0,0,0,1],"scale":[1,1,1],"translation":[0,0,0]}],"samplers":[{}],"scene":0,"scenes":[{"name":"Root Scene","nodes":[0]}],"textures":[{"name":"base_color_texture","sampler":0,"source":0}]}