{
  "accessors": [
    {
      "bufferView": 2,
      "componentType": 5126,
      "count": 1801,
      "max": [
        3.041393756866455,
        44.86665725708008,
        0.7164725065231323
      ],
      "min": [
        -11.927610397338867,
        1.0150117874145508,
        -7.3041672706604
      ],
      "type": "VEC3"
    },
    {
      "bufferView": 2,
      "byteOffset": 21612,
      "componentType": 5126,
      "count": 1801,
      "max": [
        0.9999864101409912,
        0.9773443341255188,
        0.9999958872795105
      ],
      "min": [
        -0.9999994039535522,
        -0.9995847344398499,
        -0.9999958872795105
      ],
      "type": "VEC3"
    },
    {
      "bufferView": 1,
      "componentType": 5126,
      "count": 1801,
      "max": [
        0.875,
        1.0
      ],
      "min": [
        0.125,
        0.0
      ],
      "type": "VEC2"
    },
    {
      "bufferView": 0,
      "componentType": 5125,
      "count": 10560,
      "type": "SCALAR"
    },
    {
      "bufferView": 2,
      "byteOffset": 43224,
      "componentType": 5126,
      "count": 15405,
      "max": [
        1.8426592350006104,
        44.65861511230469,
        0.7124790549278259
      ],
      "min": [
        -12.170327186584473,
        0.07661639153957367,
        -7.2265753746032715
      ],
      "type": "VEC3"
    },
    {
      "bufferView": 2,
      "byteOffset": 228084,
      "componentType": 5126,
      "count": 15405,
      "max": [
        0.9999964833259583,
        1.0,
        0.999886155128479
      ],
      "min": [
        -0.9999117851257324,
        -1.0,
        -0.9999409317970276
      ],
      "type": "VEC3"
    },
    {
      "bufferView": 1,
      "byteOffset": 14408,
      "componentType": 5126,
      "count": 15405,
      "max": [
        1.0,
        1.0
      ],
      "min": [
        0.0,
        -0.0052879625000059605
      ],
      "type": "VEC2"
    },
    {
      "bufferView": 0,
      "byteOffset": 42240,
      "componentType": 5125,
      "count": 91200,
      "type": "SCALAR"
    }
  ],
  "asset": {
    "extras": {
      "author": "BishopR (https://sketchfab.com/rsbishop3)",
      "license": "CC-BY-4.0 (http://creativecommons.org/licenses/by/4.0/)",
      "source": "https://sketchfab.com/3d-models/vine-fd2ec98d774a457da3534b5ad646c317",
      "title": "Vine"
    },
    "generator": "Sketchfab-12.63.0",
    "version": "2.0"
  },
  "bufferViews": [
    {
      "buffer": 0,
      "byteLength": 407040,
      "name": "floatBufferViews",
      "target": 34963
    },
    {
      "buffer": 0,
      "byteLength": 137648,
      "byteOffset": 407040,
      "byteStride": 8,
      "name": "floatBufferViews",
      "target": 34962
    },
    {
      "buffer": 0,
      "byteLength": 412944,
      "byteOffset": 544688,
      "byteStride": 12,
      "name": "floatBufferViews",
      "target": 34962
    }
  ],
  "buffers": [
    {
      "byteLength": 957632,
      "uri": "scene.bin"
    }
  ],
  "materials": [
    {
      "doubleSided": true,
      "name": "lambert2",
      "pbrMetallicRoughness": {
        "baseColorFactor": [
          0.14,
          0.0886313,
          0.0287,
          1.0
        ],
        "metallicFactor": 0.0,
        "roughnessFactor": 0.6
      }
    },
    {
      "doubleSided": true,
      "name": "blinn1",
      "pbrMetallicRoughness": {
        "baseColorFactor": [
          0.0155,
          0.0684,
          0.0,
          1.0
        ],
        "metallicFactor": 0.0,
        "roughnessFactor": 0.9262717611840565
      }
    }
  ],
  "meshes": [
    {
      "name": "Vine_1_lambert2_0",
      "primitives": [
        {
          "attributes": {
            "NORMAL": 1,
            "POSITION": 0,
            "TEXCOORD_0": 2
          },
          "indices": 3,
          "material": 0,
          "mode": 4
        }
      ]
    },
    {
      "name": "Vine_2_blinn1_0",
      "primitives": [
        {
          "attributes": {
            "NORMAL": 5,
            "POSITION": 4,
            "TEXCOORD_0": 6
          },
          "indices": 7,
          "material": 1,
          "mode": 4
        }
      ]
    }
  ],
  "nodes": [
    {
      "children": [
        1
      ],
      "matrix": [
        1.0,
        0.0,
        0.0,
        0.0,
        0.0,
        2.220446049250313e-16,
        -1.0,
        0.0,
        0.0,
        1.0,
        2.220446049250313e-16,
        0.0,
        0.0,
        0.0,
        0.0,
        1.0
      ],
      "name": "Sketchfab_model"
    },
    {
      "children": [
        2
      ],
      "matrix": [
        1.0,
        0.0,
        0.0,
        0.0,
        0.0,
        0.0,
        1.0,
        0.0,
        0.0,
        -1.0,
        0.0,
        0.0,
        0.0,
        0.0,
        0.0,
        1.0
      ],
      "name": "b1d22f129a944235ab555056b0189ed0.fbx"
    },
    {
      "children": [
        3,
        5
      ],
      "name": "RootNode"
    },
    {
      "children": [
        4
      ],
      "name": "Vine_1"
    },
    {
      "mesh": 0,
      "name": "Vine_1_lambert2_0"
    },
    {
      "children": [
        6
      ],
      "name": "Vine_2"
    },
    {
      "mesh": 1,
      "name": "Vine_2_blinn1_0"
    }
  ],
  "scene": 0,
  "scenes": [
    {
      "name": "Sketchfab_Scene",
      "nodes": [
        0
      ]
    }
  ]
}
