{"accessors":[{"bufferView":0,"byteOffset":0,"componentType":5123,"count":372,"type":"SCALAR"},{"bufferView":1,"byteOffset":0,"componentType":5126,"count":101,"max":[0.00185781891923398,0.00400922307744622,0.0026961206458509],"min":[-0.00193564011715,-0.00000000804663,-0.00244160485454],"type":"VEC3"},{"bufferView":2,"byteOffset":0,"componentType":5126,"count":101,"type":"VEC3"},{"bufferView":3,"byteOffset":0,"componentType":5126,"count":101,"type":"VEC2"}],"asset":{"generator":"FBX2glTF v0.13.1","version":"2.0"},"bufferViews":[{"buffer":0,"byteLength":744,"byteOffset":0,"target":34963},{"buffer":0,"byteLength":1212,"byteOffset":744,"target":34962},{"buffer":0,"byteLength":1212,"byteOffset":1956,"target":34962},{"buffer":0,"byteLength":808,"byteOffset":3168,"target":34962}],"buffers":[{"byteLength":3976,"uri":"rpgpp_av_stool_02.bin"}],"images":[{"name":"rpgpp_av_tex_a","uri":"../../Textures/rpgpp_av_tex_a.png"}],"materials":[{"alphaMode":"OPAQUE","doubleSided":false,"extras":{"fromFBX":{"isTruePBR":false,"shadingModel":"Phong"}},"name":"rpgpp_av_mat_a","pbrMetallicRoughness":{"baseColorFactor":[1,1,1,1],"baseColorTexture":{"index":0,"texCoord":0},"metallicFactor":0.400000005960464,"roughnessFactor":0.284101665019989}}],"meshes":[{"name":"rpgpp_av_stool_02","primitives":[{"attributes":{"NORMAL":2,"POSITION":1,"TEXCOORD_0":3},"indices":0,"material":0,"mode":4}]}],"nodes":[{"mesh":0,"name":"rpgpp_av_stool_02","rotation":[0,0,0,1],"scale":[1,1,1],"translation":[0,0,0]}],"samplers":[{}],"scene":0,"scenes":[{"name":"Root Scene","nodes":[0]}],"textures":[{"name":"base_color_texture","sampler":0,"source":0}]}