{"accessors":[{"bufferView":0,"byteOffset":0,"componentType":5123,"count":1530,"type":"SCALAR"},{"bufferView":1,"byteOffset":0,"componentType":5126,"count":308,"max":[0.00503542646765709,0.00985171925276518,0.00516617996618152],"min":[-0.00518688745797,0.000000000178813935880484,-0.00671074539423],"type":"VEC3"},{"bufferView":2,"byteOffset":0,"componentType":5126,"count":308,"type":"VEC3"},{"bufferView":3,"byteOffset":0,"componentType":5126,"count":308,"type":"VEC2"}],"asset":{"generator":"FBX2glTF v0.13.1","version":"2.0"},"bufferViews":[{"buffer":0,"byteLength":3060,"byteOffset":0,"target":34963},{"buffer":0,"byteLength":3696,"byteOffset":3060,"target":34962},{"buffer":0,"byteLength":3696,"byteOffset":6756,"target":34962},{"buffer":0,"byteLength":2464,"byteOffset":10452,"target":34962}],"buffers":[{"byteLength":12916,"uri":"rpgpp_av_barrel_01b.bin"}],"images":[{"name":"rpgpp_av_tex_a","uri":"../../Textures/rpgpp_av_tex_a.png"}],"materials":[{"alphaMode":"OPAQUE","doubleSided":false,"extras":{"fromFBX":{"isTruePBR":false,"shadingModel":"Phong"}},"name":"rpgpp_av_mat_a","pbrMetallicRoughness":{"baseColorFactor":[1,1,1,1],"baseColorTexture":{"index":0,"texCoord":0},"metallicFactor":0.400000005960464,"roughnessFactor":0.284101665019989}}],"meshes":[{"name":"rpgpp_av_barrel_01b","primitives":[{"attributes":{"NORMAL":2,"POSITION":1,"TEXCOORD_0":3},"indices":0,"material":0,"mode":4}]}],"nodes":[{"mesh":0,"name":"rpgpp_av_barrel_01b","rotation":[0,0,0,1],"scale":[1,1,1],"translation":[0,0,0]}],"samplers":[{}],"scene":0,"scenes":[{"name":"Root Scene","nodes":[0]}],"textures":[{"name":"base_color_texture","sampler":0,"source":0}]}