{"accessors":[{"bufferView":0,"byteOffset":0,"componentType":5123,"count":1542,"type":"SCALAR"},{"bufferView":1,"byteOffset":0,"componentType":5126,"count":321,"max":[0.00535350805148482,0.00478259241208434,0.00381947355344892],"min":[-0.00540238292888,-0.00316743459553,-0.00395254744217],"type":"VEC3"},{"bufferView":2,"byteOffset":0,"componentType":5126,"count":321,"type":"VEC3"},{"bufferView":3,"byteOffset":0,"componentType":5126,"count":321,"type":"VEC2"}],"asset":{"generator":"FBX2glTF v0.13.1","version":"2.0"},"bufferViews":[{"buffer":0,"byteLength":3084,"byteOffset":0,"target":34963},{"buffer":0,"byteLength":3852,"byteOffset":3084,"target":34962},{"buffer":0,"byteLength":3852,"byteOffset":6936,"target":34962},{"buffer":0,"byteLength":2568,"byteOffset":10788,"target":34962}],"buffers":[{"byteLength":13356,"uri":"rpgpp_av_cage_02a.bin"}],"images":[{"name":"rpgpp_av_tex_a","uri":"../../Textures/rpgpp_av_tex_a.png"}],"materials":[{"alphaMode":"OPAQUE","doubleSided":false,"extras":{"fromFBX":{"isTruePBR":false,"shadingModel":"Phong"}},"name":"rpgpp_av_mat_a","pbrMetallicRoughness":{"baseColorFactor":[1,1,1,1],"baseColorTexture":{"index":0,"texCoord":0},"metallicFactor":0.400000005960464,"roughnessFactor":0.284101665019989}}],"meshes":[{"name":"rpgpp_av_cage_02a","primitives":[{"attributes":{"NORMAL":2,"POSITION":1,"TEXCOORD_0":3},"indices":0,"material":0,"mode":4}]}],"nodes":[{"mesh":0,"name":"rpgpp_av_cage_02a","rotation":[0,0,0,1],"scale":[1,1,1],"translation":[0,0,0]}],"samplers":[{}],"scene":0,"scenes":[{"name":"Root Scene","nodes":[0]}],"textures":[{"name":"base_color_texture","sampler":0,"source":0}]}