{"accessors":[{"bufferView":0,"byteOffset":0,"componentType":5123,"count":510,"type":"SCALAR"},{"bufferView":1,"byteOffset":0,"componentType":5126,"count":87,"max":[0.0018706078408286,0.00498789828270674,0.00196687318384647],"min":[-0.00187060784083,0,-0.00196687341668],"type":"VEC3"},{"bufferView":2,"byteOffset":0,"componentType":5126,"count":87,"type":"VEC3"},{"bufferView":3,"byteOffset":0,"componentType":5126,"count":87,"type":"VEC2"}],"asset":{"generator":"FBX2glTF v0.13.1","version":"2.0"},"bufferViews":[{"buffer":0,"byteLength":1020,"byteOffset":0,"target":34963},{"buffer":0,"byteLength":1044,"byteOffset":1020,"target":34962},{"buffer":0,"byteLength":1044,"byteOffset":2064,"target":34962},{"buffer":0,"byteLength":696,"byteOffset":3108,"target":34962}],"buffers":[{"byteLength":3804,"uri":"rpgpp_av_vase_01a.bin"}],"images":[{"name":"rpgpp_av_tex_a","uri":"../../Textures/rpgpp_av_tex_a.png"}],"materials":[{"alphaMode":"OPAQUE","doubleSided":false,"extras":{"fromFBX":{"isTruePBR":false,"shadingModel":"Phong"}},"name":"rpgpp_av_mat_a","pbrMetallicRoughness":{"baseColorFactor":[1,1,1,1],"baseColorTexture":{"index":0,"texCoord":0},"metallicFactor":0.400000005960464,"roughnessFactor":0.284101665019989}}],"meshes":[{"name":"rpgpp_av_vase_01a","primitives":[{"attributes":{"NORMAL":2,"POSITION":1,"TEXCOORD_0":3},"indices":0,"material":0,"mode":4}]}],"nodes":[{"mesh":0,"name":"rpgpp_av_vase_01a","rotation":[0,0,0,1],"scale":[1,1,1],"translation":[0,0,0]}],"samplers":[{}],"scene":0,"scenes":[{"name":"Root Scene","nodes":[0]}],"textures":[{"name":"base_color_texture","sampler":0,"source":0}]}