{"accessors":[{"bufferView":0,"byteOffset":0,"componentType":5123,"count":1770,"type":"SCALAR"},{"bufferView":1,"byteOffset":0,"componentType":5126,"count":340,"max":[0.004196188878268,0.0098562128841877,0.00480436952784657],"min":[-0.00432240637019,-0.0000699727243,-0.00568027468398],"type":"VEC3"},{"bufferView":2,"byteOffset":0,"componentType":5126,"count":340,"type":"VEC3"},{"bufferView":3,"byteOffset":0,"componentType":5126,"count":340,"type":"VEC2"}],"asset":{"generator":"FBX2glTF v0.13.1","version":"2.0"},"bufferViews":[{"buffer":0,"byteLength":3540,"byteOffset":0,"target":34963},{"buffer":0,"byteLength":4080,"byteOffset":3540,"target":34962},{"buffer":0,"byteLength":4080,"byteOffset":7620,"target":34962},{"buffer":0,"byteLength":2720,"byteOffset":11700,"target":34962}],"buffers":[{"byteLength":14420,"uri":"rpgpp_av_barrel_03b.bin"}],"images":[{"name":"rpgpp_av_tex_a","uri":"../../Textures/rpgpp_av_tex_a.png"}],"materials":[{"alphaMode":"OPAQUE","doubleSided":false,"extras":{"fromFBX":{"isTruePBR":false,"shadingModel":"Phong"}},"name":"rpgpp_av_mat_a","pbrMetallicRoughness":{"baseColorFactor":[1,1,1,1],"baseColorTexture":{"index":0,"texCoord":0},"metallicFactor":0.400000005960464,"roughnessFactor":0.284101665019989}}],"meshes":[{"name":"rpgpp_av_barrel_03b","primitives":[{"attributes":{"NORMAL":2,"POSITION":1,"TEXCOORD_0":3},"indices":0,"material":0,"mode":4}]}],"nodes":[{"mesh":0,"name":"rpgpp_av_barrel_03b","rotation":[0,0,0,1],"scale":[1,1,1],"translation":[0,0,0]}],"samplers":[{}],"scene":0,"scenes":[{"name":"Root Scene","nodes":[0]}],"textures":[{"name":"base_color_texture","sampler":0,"source":0}]}