{"accessors":[{"bufferView":0,"byteOffset":0,"componentType":5123,"count":867,"type":"SCALAR"},{"bufferView":1,"byteOffset":0,"componentType":5126,"count":186,"max":[0.00277874013409019,0.0207065586000681,0.00115333998110145],"min":[-0.01148773916066,0.0000016576051393713,-0.00814283452928],"type":"VEC3"},{"bufferView":2,"byteOffset":0,"componentType":5126,"count":186,"type":"VEC3"},{"bufferView":3,"byteOffset":0,"componentType":5126,"count":186,"type":"VEC2"}],"asset":{"generator":"FBX2glTF v0.13.1","version":"2.0"},"bufferViews":[{"buffer":0,"byteLength":1734,"byteOffset":0,"target":34963},{"buffer":0,"byteLength":2232,"byteOffset":1736,"target":34962},{"buffer":0,"byteLength":2232,"byteOffset":3968,"target":34962},{"buffer":0,"byteLength":1488,"byteOffset":6200,"target":34962}],"buffers":[{"byteLength":7688,"uri":"rpgpp_av_road_sign_01c.bin"}],"images":[{"name":"rpgpp_av_tex_a","uri":"../../Textures/rpgpp_av_tex_a.png"}],"materials":[{"alphaMode":"OPAQUE","doubleSided":false,"extras":{"fromFBX":{"isTruePBR":false,"shadingModel":"Phong"}},"name":"rpgpp_av_mat_a","pbrMetallicRoughness":{"baseColorFactor":[1,1,1,1],"baseColorTexture":{"index":0,"texCoord":0},"metallicFactor":0.400000005960464,"roughnessFactor":0.284101665019989}}],"meshes":[{"name":"rpgpp_av_road_sign_01c","primitives":[{"attributes":{"NORMAL":2,"POSITION":1,"TEXCOORD_0":3},"indices":0,"material":0,"mode":4}]}],"nodes":[{"mesh":0,"name":"rpgpp_av_road_sign_01c","rotation":[0,0,0,1],"scale":[1,1,1],"translation":[0,0,0]}],"samplers":[{}],"scene":0,"scenes":[{"name":"Root Scene","nodes":[0]}],"textures":[{"name":"base_color_texture","sampler":0,"source":0}]}