{"accessors":[{"bufferView":0,"byteOffset":0,"componentType":5123,"count":591,"type":"SCALAR"},{"bufferView":1,"byteOffset":0,"componentType":5126,"count":138,"max":[0.00641767075285316,0.00431560212746263,0.002700116019696],"min":[-0.00676926551387,-0.00000000059605,-0.0024235851597],"type":"VEC3"},{"bufferView":2,"byteOffset":0,"componentType":5126,"count":138,"type":"VEC3"},{"bufferView":3,"byteOffset":0,"componentType":5126,"count":138,"type":"VEC2"}],"asset":{"generator":"FBX2glTF v0.13.1","version":"2.0"},"bufferViews":[{"buffer":0,"byteLength":1182,"byteOffset":0,"target":34963},{"buffer":0,"byteLength":1656,"byteOffset":1184,"target":34962},{"buffer":0,"byteLength":1656,"byteOffset":2840,"target":34962},{"buffer":0,"byteLength":1104,"byteOffset":4496,"target":34962}],"buffers":[{"byteLength":5600,"uri":"rpgpp_av_bench_wood_04c.bin"}],"images":[{"name":"rpgpp_av_tex_a","uri":"../../Textures/rpgpp_av_tex_a.png"}],"materials":[{"alphaMode":"OPAQUE","doubleSided":false,"extras":{"fromFBX":{"isTruePBR":false,"shadingModel":"Phong"}},"name":"rpgpp_av_mat_a","pbrMetallicRoughness":{"baseColorFactor":[1,1,1,1],"baseColorTexture":{"index":0,"texCoord":0},"metallicFactor":0.400000005960464,"roughnessFactor":0.284101665019989}}],"meshes":[{"name":"rpgpp_av_bench_wood_04c","primitives":[{"attributes":{"NORMAL":2,"POSITION":1,"TEXCOORD_0":3},"indices":0,"material":0,"mode":4}]}],"nodes":[{"mesh":0,"name":"rpgpp_av_bench_wood_04c","rotation":[0,0,0,1],"scale":[1,1,1],"translation":[0,0,0]}],"samplers":[{}],"scene":0,"scenes":[{"name":"Root Scene","nodes":[0]}],"textures":[{"name":"base_color_texture","sampler":0,"source":0}]}