{"accessors":[{"bufferView":0,"byteOffset":0,"componentType":5123,"count":1464,"type":"SCALAR"},{"bufferView":1,"byteOffset":0,"componentType":5126,"count":291,"max":[0.0183377396315336,0.0264396369457245,0.0070360004901886],"min":[-0.01909369044006,-0.00070239667548,-0.00917704124004],"type":"VEC3"},{"bufferView":2,"byteOffset":0,"componentType":5126,"count":291,"type":"VEC3"},{"bufferView":3,"byteOffset":0,"componentType":5126,"count":291,"type":"VEC2"}],"asset":{"generator":"FBX2glTF v0.13.1","version":"2.0"},"bufferViews":[{"buffer":0,"byteLength":2928,"byteOffset":0,"target":34963},{"buffer":0,"byteLength":3492,"byteOffset":2928,"target":34962},{"buffer":0,"byteLength":3492,"byteOffset":6420,"target":34962},{"buffer":0,"byteLength":2328,"byteOffset":9912,"target":34962}],"buffers":[{"byteLength":12240,"uri":"rpgpp_av_hanger_wood_04.bin"}],"images":[{"name":"rpgpp_av_tex_a","uri":"../../Textures/rpgpp_av_tex_a.png"}],"materials":[{"alphaMode":"OPAQUE","doubleSided":false,"extras":{"fromFBX":{"isTruePBR":false,"shadingModel":"Phong"}},"name":"rpgpp_av_mat_a","pbrMetallicRoughness":{"baseColorFactor":[1,1,1,1],"baseColorTexture":{"index":0,"texCoord":0},"metallicFactor":0.400000005960464,"roughnessFactor":0.284101665019989}}],"meshes":[{"name":"rpgpp_av_hanger_wood_04","primitives":[{"attributes":{"NORMAL":2,"POSITION":1,"TEXCOORD_0":3},"indices":0,"material":0,"mode":4}]}],"nodes":[{"mesh":0,"name":"rpgpp_av_hanger_wood_04","rotation":[0,0,0,1],"scale":[1,1,1],"translation":[0,0,0]}],"samplers":[{}],"scene":0,"scenes":[{"name":"Root Scene","nodes":[0]}],"textures":[{"name":"base_color_texture","sampler":0,"source":0}]}