{"accessors":[{"bufferView":0,"byteOffset":0,"componentType":5123,"count":312,"type":"SCALAR"},{"bufferView":1,"byteOffset":0,"componentType":5126,"count":54,"max":[0.00130150059703737,0.00165310525335371,0.00137710059061646],"min":[-0.00139054097235,-0.00000001517683,-0.00126339623239],"type":"VEC3"},{"bufferView":2,"byteOffset":0,"componentType":5126,"count":54,"type":"VEC3"},{"bufferView":3,"byteOffset":0,"componentType":5126,"count":54,"type":"VEC2"}],"asset":{"generator":"FBX2glTF v0.13.1","version":"2.0"},"bufferViews":[{"buffer":0,"byteLength":624,"byteOffset":0,"target":34963},{"buffer":0,"byteLength":648,"byteOffset":624,"target":34962},{"buffer":0,"byteLength":648,"byteOffset":1272,"target":34962},{"buffer":0,"byteLength":432,"byteOffset":1920,"target":34962}],"buffers":[{"byteLength":2352,"uri":"rpgpp_av_bowl_wood_02.bin"}],"images":[{"name":"rpgpp_av_tex_a","uri":"../../Textures/rpgpp_av_tex_a.png"}],"materials":[{"alphaMode":"OPAQUE","doubleSided":false,"extras":{"fromFBX":{"isTruePBR":false,"shadingModel":"Phong"}},"name":"rpgpp_av_mat_a","pbrMetallicRoughness":{"baseColorFactor":[1,1,1,1],"baseColorTexture":{"index":0,"texCoord":0},"metallicFactor":0.400000005960464,"roughnessFactor":0.284101665019989}}],"meshes":[{"name":"rpgpp_av_bowl_wood_02","primitives":[{"attributes":{"NORMAL":2,"POSITION":1,"TEXCOORD_0":3},"indices":0,"material":0,"mode":4}]}],"nodes":[{"mesh":0,"name":"rpgpp_av_bowl_wood_02","rotation":[0,0,0,1],"scale":[1,1,1],"translation":[0,0,0]}],"samplers":[{}],"scene":0,"scenes":[{"name":"Root Scene","nodes":[0]}],"textures":[{"name":"base_color_texture","sampler":0,"source":0}]}