{"accessors":[{"bufferView":0,"byteOffset":0,"componentType":5123,"count":816,"type":"SCALAR"},{"bufferView":1,"byteOffset":0,"componentType":5126,"count":203,"max":[0.00735531374812126,0.00887398421764374,0.0063155023381114],"min":[-0.00607326626778,-0.00005595803304,-0.00541754486039],"type":"VEC3"},{"bufferView":2,"byteOffset":0,"componentType":5126,"count":203,"type":"VEC3"},{"bufferView":3,"byteOffset":0,"componentType":5126,"count":203,"type":"VEC2"}],"asset":{"generator":"FBX2glTF v0.13.1","version":"2.0"},"bufferViews":[{"buffer":0,"byteLength":1632,"byteOffset":0,"target":34963},{"buffer":0,"byteLength":2436,"byteOffset":1632,"target":34962},{"buffer":0,"byteLength":2436,"byteOffset":4068,"target":34962},{"buffer":0,"byteLength":1624,"byteOffset":6504,"target":34962}],"buffers":[{"byteLength":8128,"uri":"rpgpp_av_table_small_01a.bin"}],"images":[{"name":"rpgpp_av_tex_a","uri":"../../Textures/rpgpp_av_tex_a.png"}],"materials":[{"alphaMode":"OPAQUE","doubleSided":false,"extras":{"fromFBX":{"isTruePBR":false,"shadingModel":"Phong"}},"name":"rpgpp_av_mat_a","pbrMetallicRoughness":{"baseColorFactor":[1,1,1,1],"baseColorTexture":{"index":0,"texCoord":0},"metallicFactor":0.400000005960464,"roughnessFactor":0.284101665019989}}],"meshes":[{"name":"rpgpp_av_table_small_01a","primitives":[{"attributes":{"NORMAL":2,"POSITION":1,"TEXCOORD_0":3},"indices":0,"material":0,"mode":4}]}],"nodes":[{"mesh":0,"name":"rpgpp_av_table_small_01a","rotation":[0,0,0,1],"scale":[1,1,1],"translation":[0,0,0]}],"samplers":[{}],"scene":0,"scenes":[{"name":"Root Scene","nodes":[0]}],"textures":[{"name":"base_color_texture","sampler":0,"source":0}]}