{"accessors":[{"bufferView":0,"byteOffset":0,"componentType":5123,"count":1053,"type":"SCALAR"},{"bufferView":1,"byteOffset":0,"componentType":5126,"count":245,"max":[0.00281617580913007,0.00844694580882788,0.00082970346556976],"min":[-0.00311928684823,-0.0000184889941,-0.00444216700271],"type":"VEC3"},{"bufferView":2,"byteOffset":0,"componentType":5126,"count":245,"type":"VEC3"},{"bufferView":3,"byteOffset":0,"componentType":5126,"count":245,"type":"VEC2"}],"asset":{"generator":"FBX2glTF v0.13.1","version":"2.0"},"bufferViews":[{"buffer":0,"byteLength":2106,"byteOffset":0,"target":34963},{"buffer":0,"byteLength":2940,"byteOffset":2108,"target":34962},{"buffer":0,"byteLength":2940,"byteOffset":5048,"target":34962},{"buffer":0,"byteLength":1960,"byteOffset":7988,"target":34962}],"buffers":[{"byteLength":9948,"uri":"rpgpp_av_chair_02a.bin"}],"images":[{"name":"rpgpp_av_tex_a","uri":"../../Textures/rpgpp_av_tex_a.png"}],"materials":[{"alphaMode":"OPAQUE","doubleSided":false,"extras":{"fromFBX":{"isTruePBR":false,"shadingModel":"Phong"}},"name":"rpgpp_av_mat_a","pbrMetallicRoughness":{"baseColorFactor":[1,1,1,1],"baseColorTexture":{"index":0,"texCoord":0},"metallicFactor":0.400000005960464,"roughnessFactor":0.284101665019989}}],"meshes":[{"name":"rpgpp_av_chair_02a","primitives":[{"attributes":{"NORMAL":2,"POSITION":1,"TEXCOORD_0":3},"indices":0,"material":0,"mode":4}]}],"nodes":[{"mesh":0,"name":"rpgpp_av_chair_02a","rotation":[0,0,0,1],"scale":[0.900000035762787,0.900000035762787,0.900000035762787],"translation":[0,0,0]}],"samplers":[{}],"scene":0,"scenes":[{"name":"Root Scene","nodes":[0]}],"textures":[{"name":"base_color_texture","sampler":0,"source":0}]}