{"accessors":[{"bufferView":0,"byteOffset":0,"componentType":5123,"count":864,"type":"SCALAR"},{"bufferView":1,"byteOffset":0,"componentType":5126,"count":194,"max":[0.00661569833755493,0.00873844418674707,0.00704538449645042],"min":[-0.00527812726796,-0.00002923011743,-0.00473540695384],"type":"VEC3"},{"bufferView":2,"byteOffset":0,"componentType":5126,"count":194,"type":"VEC3"},{"bufferView":3,"byteOffset":0,"componentType":5126,"count":194,"type":"VEC2"}],"asset":{"generator":"FBX2glTF v0.13.1","version":"2.0"},"bufferViews":[{"buffer":0,"byteLength":1728,"byteOffset":0,"target":34963},{"buffer":0,"byteLength":2328,"byteOffset":1728,"target":34962},{"buffer":0,"byteLength":2328,"byteOffset":4056,"target":34962},{"buffer":0,"byteLength":1552,"byteOffset":6384,"target":34962}],"buffers":[{"byteLength":7936,"uri":"rpgpp_av_table_02.bin"}],"images":[{"name":"rpgpp_av_tex_a","uri":"../../Textures/rpgpp_av_tex_a.png"}],"materials":[{"alphaMode":"OPAQUE","doubleSided":false,"extras":{"fromFBX":{"isTruePBR":false,"shadingModel":"Phong"}},"name":"rpgpp_av_mat_a","pbrMetallicRoughness":{"baseColorFactor":[1,1,1,1],"baseColorTexture":{"index":0,"texCoord":0},"metallicFactor":0.400000005960464,"roughnessFactor":0.284101665019989}}],"meshes":[{"name":"rpgpp_av_table_02","primitives":[{"attributes":{"NORMAL":2,"POSITION":1,"TEXCOORD_0":3},"indices":0,"material":0,"mode":4}]}],"nodes":[{"mesh":0,"name":"rpgpp_av_table_02","rotation":[0,0,0,1],"scale":[1,1,1],"translation":[0,0,0]}],"samplers":[{}],"scene":0,"scenes":[{"name":"Root Scene","nodes":[0]}],"textures":[{"name":"base_color_texture","sampler":0,"source":0}]}