{"accessors":[{"bufferView":0,"byteOffset":0,"componentType":5123,"count":1896,"type":"SCALAR"},{"bufferView":1,"byteOffset":0,"componentType":5126,"count":373,"max":[0.00463102292269468,0.00998757965862751,0.00524820480495691],"min":[-0.00482338201255,0.0000303204342344543,-0.00496653886512],"type":"VEC3"},{"bufferView":2,"byteOffset":0,"componentType":5126,"count":373,"type":"VEC3"},{"bufferView":3,"byteOffset":0,"componentType":5126,"count":373,"type":"VEC2"}],"asset":{"generator":"FBX2glTF v0.13.1","version":"2.0"},"bufferViews":[{"buffer":0,"byteLength":3792,"byteOffset":0,"target":34963},{"buffer":0,"byteLength":4476,"byteOffset":3792,"target":34962},{"buffer":0,"byteLength":4476,"byteOffset":8268,"target":34962},{"buffer":0,"byteLength":2984,"byteOffset":12744,"target":34962}],"buffers":[{"byteLength":15728,"uri":"rpgpp_av_barrel_02b.bin"}],"images":[{"name":"rpgpp_av_tex_a","uri":"../../Textures/rpgpp_av_tex_a.png"}],"materials":[{"alphaMode":"OPAQUE","doubleSided":false,"extras":{"fromFBX":{"isTruePBR":false,"shadingModel":"Phong"}},"name":"rpgpp_av_mat_a","pbrMetallicRoughness":{"baseColorFactor":[1,1,1,1],"baseColorTexture":{"index":0,"texCoord":0},"metallicFactor":0.400000005960464,"roughnessFactor":0.284101665019989}}],"meshes":[{"name":"rpgpp_av_barrel_02b","primitives":[{"attributes":{"NORMAL":2,"POSITION":1,"TEXCOORD_0":3},"indices":0,"material":0,"mode":4}]}],"nodes":[{"mesh":0,"name":"rpgpp_av_barrel_02b","rotation":[0,0,0,1],"scale":[1,1,1],"translation":[0,0,0]}],"samplers":[{}],"scene":0,"scenes":[{"name":"Root Scene","nodes":[0]}],"textures":[{"name":"base_color_texture","sampler":0,"source":0}]}