{"accessors":[{"bufferView":0,"byteOffset":0,"componentType":5123,"count":906,"type":"SCALAR"},{"bufferView":1,"byteOffset":0,"componentType":5126,"count":204,"max":[0.00199999986216426,0.00937434937804937,0.00199999986216426],"min":[-0.00203945254907,0.000000212982115499472,-0.00262400740758],"type":"VEC3"},{"bufferView":2,"byteOffset":0,"componentType":5126,"count":204,"type":"VEC3"},{"bufferView":3,"byteOffset":0,"componentType":5126,"count":204,"type":"VEC2"}],"asset":{"generator":"FBX2glTF v0.13.1","version":"2.0"},"bufferViews":[{"buffer":0,"byteLength":1812,"byteOffset":0,"target":34963},{"buffer":0,"byteLength":2448,"byteOffset":1812,"target":34962},{"buffer":0,"byteLength":2448,"byteOffset":4260,"target":34962},{"buffer":0,"byteLength":1632,"byteOffset":6708,"target":34962}],"buffers":[{"byteLength":8340,"uri":"rpgpp_av_chair_01a.bin"}],"images":[{"name":"rpgpp_av_tex_a","uri":"../../Textures/rpgpp_av_tex_a.png"}],"materials":[{"alphaMode":"OPAQUE","doubleSided":false,"extras":{"fromFBX":{"isTruePBR":false,"shadingModel":"Phong"}},"name":"rpgpp_av_mat_a","pbrMetallicRoughness":{"baseColorFactor":[1,1,1,1],"baseColorTexture":{"index":0,"texCoord":0},"metallicFactor":0.400000005960464,"roughnessFactor":0.284101665019989}}],"meshes":[{"name":"rpgpp_av_chair_01a","primitives":[{"attributes":{"NORMAL":2,"POSITION":1,"TEXCOORD_0":3},"indices":0,"material":0,"mode":4}]}],"nodes":[{"mesh":0,"name":"rpgpp_av_chair_01a","rotation":[0,0,0,1],"scale":[1,1,1],"translation":[0,0,0]}],"samplers":[{}],"scene":0,"scenes":[{"name":"Root Scene","nodes":[0]}],"textures":[{"name":"base_color_texture","sampler":0,"source":0}]}