{"accessors":[{"bufferView":0,"byteOffset":0,"componentType":5123,"count":396,"type":"SCALAR"},{"bufferView":1,"byteOffset":0,"componentType":5126,"count":92,"max":[0.00615905737504363,0.00150443741586059,0.00306687178090215],"min":[-0.00013225877774,-0.00000657460168,-0.00316105876118],"type":"VEC3"},{"bufferView":2,"byteOffset":0,"componentType":5126,"count":92,"type":"VEC3"},{"bufferView":3,"byteOffset":0,"componentType":5126,"count":92,"type":"VEC2"}],"asset":{"generator":"FBX2glTF v0.13.1","version":"2.0"},"bufferViews":[{"buffer":0,"byteLength":792,"byteOffset":0,"target":34963},{"buffer":0,"byteLength":1104,"byteOffset":792,"target":34962},{"buffer":0,"byteLength":1104,"byteOffset":1896,"target":34962},{"buffer":0,"byteLength":736,"byteOffset":3000,"target":34962}],"buffers":[{"byteLength":3736,"uri":"rpgpp_av_rake_01.bin"}],"images":[{"name":"rpgpp_av_tex_a","uri":"../../Textures/rpgpp_av_tex_a.png"}],"materials":[{"alphaMode":"OPAQUE","doubleSided":false,"extras":{"fromFBX":{"isTruePBR":false,"shadingModel":"Phong"}},"name":"rpgpp_av_mat_a","pbrMetallicRoughness":{"baseColorFactor":[1,1,1,1],"baseColorTexture":{"index":0,"texCoord":0},"metallicFactor":0.400000005960464,"roughnessFactor":0.284101665019989}}],"meshes":[{"name":"rpgpp_av_rake_01","primitives":[{"attributes":{"NORMAL":2,"POSITION":1,"TEXCOORD_0":3},"indices":0,"material":0,"mode":4}]}],"nodes":[{"mesh":0,"name":"rpgpp_av_rake_01","rotation":[0,0,0,1],"scale":[1,1,1],"translation":[0,0,0]}],"samplers":[{}],"scene":0,"scenes":[{"name":"Root Scene","nodes":[0]}],"textures":[{"name":"base_color_texture","sampler":0,"source":0}]}