{"accessors":[{"bufferView":0,"byteOffset":0,"componentType":5123,"count":810,"type":"SCALAR"},{"bufferView":1,"byteOffset":0,"componentType":5126,"count":154,"max":[0.00270359683781862,0.0152653260156512,0.00285240705125034],"min":[-0.00505019631237,-0.00000649094545,-0.00316661805846],"type":"VEC3"},{"bufferView":2,"byteOffset":0,"componentType":5126,"count":154,"type":"VEC3"},{"bufferView":3,"byteOffset":0,"componentType":5126,"count":154,"type":"VEC2"}],"asset":{"generator":"FBX2glTF v0.13.1","version":"2.0"},"bufferViews":[{"buffer":0,"byteLength":1620,"byteOffset":0,"target":34963},{"buffer":0,"byteLength":1848,"byteOffset":1620,"target":34962},{"buffer":0,"byteLength":1848,"byteOffset":3468,"target":34962},{"buffer":0,"byteLength":1232,"byteOffset":5316,"target":34962}],"buffers":[{"byteLength":6548,"uri":"rpgpp_av_hanger_wood_03.bin"}],"images":[{"name":"rpgpp_av_tex_a","uri":"../../Textures/rpgpp_av_tex_a.png"}],"materials":[{"alphaMode":"OPAQUE","doubleSided":false,"extras":{"fromFBX":{"isTruePBR":false,"shadingModel":"Phong"}},"name":"rpgpp_av_mat_a","pbrMetallicRoughness":{"baseColorFactor":[1,1,1,1],"baseColorTexture":{"index":0,"texCoord":0},"metallicFactor":0.400000005960464,"roughnessFactor":0.284101665019989}}],"meshes":[{"name":"rpgpp_av_hanger_wood_03","primitives":[{"attributes":{"NORMAL":2,"POSITION":1,"TEXCOORD_0":3},"indices":0,"material":0,"mode":4}]}],"nodes":[{"mesh":0,"name":"rpgpp_av_hanger_wood_03","rotation":[0,0,0,1],"scale":[1,1,1],"translation":[0,0,0]}],"samplers":[{}],"scene":0,"scenes":[{"name":"Root Scene","nodes":[0]}],"textures":[{"name":"base_color_texture","sampler":0,"source":0}]}