{"accessors":[{"bufferView":0,"byteOffset":0,"componentType":5123,"count":1134,"type":"SCALAR"},{"bufferView":1,"byteOffset":0,"componentType":5126,"count":274,"max":[0.00298399431630969,0.0077842827886343,0.00292777107097208],"min":[-0.00267874146812,-0.00000001095944,-0.00544687593356],"type":"VEC3"},{"bufferView":2,"byteOffset":0,"componentType":5126,"count":274,"type":"VEC3"},{"bufferView":3,"byteOffset":0,"componentType":5126,"count":274,"type":"VEC2"}],"asset":{"generator":"FBX2glTF v0.13.1","version":"2.0"},"bufferViews":[{"buffer":0,"byteLength":2268,"byteOffset":0,"target":34963},{"buffer":0,"byteLength":3288,"byteOffset":2268,"target":34962},{"buffer":0,"byteLength":3288,"byteOffset":5556,"target":34962},{"buffer":0,"byteLength":2192,"byteOffset":8844,"target":34962}],"buffers":[{"byteLength":11036,"uri":"rpgpp_av_chair_04b.bin"}],"images":[{"name":"rpgpp_av_tex_a","uri":"../../Textures/rpgpp_av_tex_a.png"}],"materials":[{"alphaMode":"OPAQUE","doubleSided":false,"extras":{"fromFBX":{"isTruePBR":false,"shadingModel":"Phong"}},"name":"rpgpp_av_mat_a","pbrMetallicRoughness":{"baseColorFactor":[1,1,1,1],"baseColorTexture":{"index":0,"texCoord":0},"metallicFactor":0.400000005960464,"roughnessFactor":0.284101665019989}}],"meshes":[{"name":"rpgpp_av_chair_04b","primitives":[{"attributes":{"NORMAL":2,"POSITION":1,"TEXCOORD_0":3},"indices":0,"material":0,"mode":4}]}],"nodes":[{"mesh":0,"name":"rpgpp_av_chair_04b","rotation":[0,0,0,1],"scale":[1,1,1],"translation":[0,0,0]}],"samplers":[{}],"scene":0,"scenes":[{"name":"Root Scene","nodes":[0]}],"textures":[{"name":"base_color_texture","sampler":0,"source":0}]}