{"accessors":[{"bufferView":0,"byteOffset":0,"componentType":5123,"count":1110,"type":"SCALAR"},{"bufferView":1,"byteOffset":0,"componentType":5126,"count":207,"max":[0.0178145598620176,0.0663361772894859,0.0137295955792069],"min":[-0.02277131564915,0,-0.00926247984171],"type":"VEC3"},{"bufferView":2,"byteOffset":0,"componentType":5126,"count":207,"type":"VEC3"},{"bufferView":3,"byteOffset":0,"componentType":5126,"count":207,"type":"VEC2"}],"asset":{"generator":"FBX2glTF v0.13.0","version":"2.0"},"bufferViews":[{"buffer":0,"byteLength":2220,"byteOffset":0,"target":34963},{"buffer":0,"byteLength":2484,"byteOffset":2220,"target":34962},{"buffer":0,"byteLength":2484,"byteOffset":4704,"target":34962},{"buffer":0,"byteLength":1656,"byteOffset":7188,"target":34962}],"buffers":[{"byteLength":8844,"uri":"rpgpp_av_tree_dead_01.bin"}],"images":[{"name":"rpgpp_ag_tex_a","uri":"rpgpp_ag_tex_a.png"}],"materials":[{"alphaMode":"OPAQUE","doubleSided":false,"extras":{"fromFBX":{"isTruePBR":false,"shadingModel":"Phong"}},"name":"rpgpp_ag_mat_a","pbrMetallicRoughness":{"baseColorFactor":[1,1,1,1],"baseColorTexture":{"index":0,"texCoord":0},"metallicFactor":0.400000005960464,"roughnessFactor":0.284101665019989}}],"meshes":[{"name":"rpgpp_av_tree_dead_01","primitives":[{"attributes":{"NORMAL":2,"POSITION":1,"TEXCOORD_0":3},"indices":0,"material":0,"mode":4}]}],"nodes":[{"mesh":0,"name":"rpgpp_av_tree_dead_01","rotation":[0,0,0,1],"scale":[1,1,1],"translation":[0,0,0]}],"samplers":[{}],"scene":0,"scenes":[{"name":"Root Scene","nodes":[0]}],"textures":[{"name":"base_color_texture","sampler":0,"source":0}]}