{
  "accessors": [
    {
      "bufferView": 2,
      "componentType": 5126,
      "count": 2750,
      "max": [
        6.887322902679443,
        3.515855073928833,
        1.7144920825958252
      ],
      "min": [
        -7.723208904266357,
        0.02284800074994564,
        -1.7006139755249023
      ],
      "type": "VEC3"
    },
    {
      "bufferView": 2,
      "byteOffset": 33000,
      "componentType": 5126,
      "count": 2750,
      "max": [
        1.0,
        1.0,
        1.0
      ],
      "min": [
        -1.0,
        -1.0,
        -1.0
      ],
      "type": "VEC3"
    },
    {
      "bufferView": 3,
      "componentType": 5126,
      "count": 2750,
      "max": [
        1.0,
        1.0,
        1.0,
        1.0
      ],
      "min": [
        -1.0,
        -0.9999971985816956,
        -1.0,
        -1.0
      ],
      "type": "VEC4"
    },
    {
      "bufferView": 1,
      "componentType": 5126,
      "count": 2750,
      "max": [
        -3.0018229484558105,
        0.9984470009803772
      ],
      "min": [
        -4.99720573425293,
        0.0027899742126464844
      ],
      "type": "VEC2"
    },
    {
      "bufferView": 1,
      "byteOffset": 22000,
      "componentType": 5126,
      "count": 2750,
      "max": [
        -3.0018229484558105,
        0.9984470009803772
      ],
      "min": [
        -4.99720573425293,
        0.0027899742126464844
      ],
      "type": "VEC2"
    },
    {
      "bufferView": 0,
      "componentType": 5125,
      "count": 9081,
      "type": "SCALAR"
    },
    {
      "bufferView": 2,
      "byteOffset": 66000,
      "componentType": 5126,
      "count": 2647,
      "max": [
        6.803202152252197,
        3.0319459438323975,
        1.8924710750579834
      ],
      "min": [
        -7.826128005981445,
        0.02075899951159954,
        -1.7551889419555664
      ],
      "type": "VEC3"
    },
    {
      "bufferView": 2,
      "byteOffset": 97764,
      "componentType": 5126,
      "count": 2647,
      "max": [
        1.0,
        1.0,
        1.0
      ],
      "min": [
        -1.0,
        -1.0,
        -1.0
      ],
      "type": "VEC3"
    },
    {
      "bufferView": 3,
      "byteOffset": 44000,
      "componentType": 5126,
      "count": 2647,
      "max": [
        1.0,
        0.999987006187439,
        1.0,
        1.0
      ],
      "min": [
        -1.0,
        -1.0,
        -1.0,
        -1.0
      ],
      "type": "VEC4"
    },
    {
      "bufferView": 1,
      "byteOffset": 44000,
      "componentType": 5126,
      "count": 2647,
      "max": [
        -1.0002119541168213,
        0.9990569949150085
      ],
      "min": [
        -4.829938888549805,
        0.0034109950065612793
      ],
      "type": "VEC2"
    },
    {
      "bufferView": 1,
      "byteOffset": 65176,
      "componentType": 5126,
      "count": 2647,
      "max": [
        -1.0002119541168213,
        0.9990569949150085
      ],
      "min": [
        -4.829938888549805,
        0.0034109950065612793
      ],
      "type": "VEC2"
    },
    {
      "bufferView": 0,
      "byteOffset": 36324,
      "componentType": 5125,
      "count": 8112,
      "type": "SCALAR"
    },
    {
      "bufferView": 2,
      "byteOffset": 129528,
      "componentType": 5126,
      "count": 1565,
      "max": [
        6.850307941436768,
        3.810473918914795,
        1.6985149383544922
      ],
      "min": [
        -7.299281120300293,
        0.11856099963188171,
        -1.6747369766235352
      ],
      "type": "VEC3"
    },
    {
      "bufferView": 2,
      "byteOffset": 148308,
      "componentType": 5126,
      "count": 1565,
      "max": [
        1.0,
        1.0,
        1.0
      ],
      "min": [
        -1.0,
        -0.9994423985481262,
        -1.0
      ],
      "type": "VEC3"
    },
    {
      "bufferView": 3,
      "byteOffset": 86352,
      "componentType": 5126,
      "count": 1565,
      "max": [
        1.0,
        0.9999978542327881,
        1.0,
        1.0
      ],
      "min": [
        -1.0,
        -1.0,
        -0.9999993443489075,
        -1.0
      ],
      "type": "VEC4"
    },
    {
      "bufferView": 1,
      "byteOffset": 86352,
      "componentType": 5126,
      "count": 1565,
      "max": [
        -3.0038270950317383,
        0.9968680143356323
      ],
      "min": [
        -4.9977521896362305,
        0.00533902645111084
      ],
      "type": "VEC2"
    },
    {
      "bufferView": 1,
      "byteOffset": 98872,
      "componentType": 5126,
      "count": 1565,
      "max": [
        -3.0038270950317383,
        0.9968680143356323
      ],
      "min": [
        -4.9977521896362305,
        0.00533902645111084
      ],
      "type": "VEC2"
    },
    {
      "bufferView": 0,
      "byteOffset": 68772,
      "componentType": 5125,
      "count": 5007,
      "type": "SCALAR"
    },
    {
      "bufferView": 2,
      "byteOffset": 167088,
      "componentType": 5126,
      "count": 2712,
      "max": [
        6.856706142425537,
        3.3785059452056885,
        1.6495829820632935
      ],
      "min": [
        -7.651713848114014,
        0.2883540093898773,
        -1.674767017364502
      ],
      "type": "VEC3"
    },
    {
      "bufferView": 2,
      "byteOffset": 199632,
      "componentType": 5126,
      "count": 2712,
      "max": [
        1.0,
        1.0,
        1.0
      ],
      "min": [
        -1.0,
        -1.0,
        -1.0
      ],
      "type": "VEC3"
    },
    {
      "bufferView": 3,
      "byteOffset": 111392,
      "componentType": 5126,
      "count": 2712,
      "max": [
        1.0,
        1.0,
        1.0,
        1.0
      ],
      "min": [
        -1.0,
        -1.0,
        -1.0,
        -1.0
      ],
      "type": "VEC4"
    },
    {
      "bufferView": 1,
      "byteOffset": 111392,
      "componentType": 5126,
      "count": 2712,
      "max": [
        0.9972869753837585,
        0.9981549978256226
      ],
      "min": [
        -1.9991350173950195,
        0.002402007579803467
      ],
      "type": "VEC2"
    },
    {
      "bufferView": 1,
      "byteOffset": 133088,
      "componentType": 5126,
      "count": 2712,
      "max": [
        0.9972869753837585,
        0.9981549978256226
      ],
      "min": [
        -1.9991350173950195,
        0.002402007579803467
      ],
      "type": "VEC2"
    },
    {
      "bufferView": 0,
      "byteOffset": 88800,
      "componentType": 5125,
      "count": 6567,
      "type": "SCALAR"
    },
    {
      "bufferView": 2,
      "byteOffset": 232176,
      "componentType": 5126,
      "count": 25718,
      "max": [
        6.554388046264648,
        3.3300559520721436,
        1.5382869243621826
      ],
      "min": [
        -7.48971700668335,
        0.006171999964863062,
        -2.4795920848846436
      ],
      "type": "VEC3"
    },
    {
      "bufferView": 2,
      "byteOffset": 540792,
      "componentType": 5126,
      "count": 25718,
      "max": [
        1.0,
        1.0,
        1.0
      ],
      "min": [
        -1.0,
        -1.0,
        -1.0
      ],
      "type": "VEC3"
    },
    {
      "bufferView": 3,
      "byteOffset": 154784,
      "componentType": 5126,
      "count": 25718,
      "max": [
        1.0,
        1.0,
        1.0,
        1.0
      ],
      "min": [
        -1.0,
        -1.0,
        -1.0,
        -1.0
      ],
      "type": "VEC4"
    },
    {
      "bufferView": 1,
      "byteOffset": 154784,
      "componentType": 5126,
      "count": 25718,
      "max": [
        2.998811960220337,
        0.9963619709014893
      ],
      "min": [
        1.999377965927124,
        0.0015270113945007324
      ],
      "type": "VEC2"
    },
    {
      "bufferView": 1,
      "byteOffset": 360528,
      "componentType": 5126,
      "count": 25718,
      "max": [
        2.998811960220337,
        0.9963619709014893
      ],
      "min": [
        1.999377965927124,
        0.0015270113945007324
      ],
      "type": "VEC2"
    },
    {
      "bufferView": 0,
      "byteOffset": 115068,
      "componentType": 5125,
      "count": 94410,
      "type": "SCALAR"
    },
    {
      "bufferView": 2,
      "byteOffset": 849408,
      "componentType": 5126,
      "count": 31,
      "max": [
        5.884486198425293,
        0.5972179770469666,
        1.5388619899749756
      ],
      "min": [
        -7.278811931610107,
        0.2883540093898773,
        -1.4993129968643188
      ],
      "type": "VEC3"
    },
    {
      "bufferView": 2,
      "byteOffset": 849780,
      "componentType": 5126,
      "count": 31,
      "max": [
        0.015697501599788666,
        1.0,
        -3.6961864680051804e-09
      ],
      "min": [
        -0.17186975479125977,
        0.9843449592590332,
        -0.07848753035068512
      ],
      "type": "VEC3"
    },
    {
      "bufferView": 3,
      "byteOffset": 566272,
      "componentType": 5126,
      "count": 31,
      "max": [
        0.00046675404882989824,
        0.07849650830030441,
        1.0,
        1.0
      ],
      "min": [
        -0.0005275793955661356,
        3.6961855798267607e-09,
        0.9969143867492676,
        1.0
      ],
      "type": "VEC4"
    },
    {
      "bufferView": 1,
      "byteOffset": 566272,
      "componentType": 5126,
      "count": 31,
      "max": [
        1.6874970197677612,
        5.644986152648926
      ],
      "min": [
        -0.6874970197677612,
        -4.644986152648926
      ],
      "type": "VEC2"
    },
    {
      "bufferView": 1,
      "byteOffset": 566520,
      "componentType": 5126,
      "count": 31,
      "max": [
        1.6874970197677612,
        5.644986152648926
      ],
      "min": [
        -0.6874970197677612,
        -4.644986152648926
      ],
      "type": "VEC2"
    },
    {
      "bufferView": 0,
      "byteOffset": 492708,
      "componentType": 5125,
      "count": 87,
      "type": "SCALAR"
    },
    {
      "bufferView": 2,
      "byteOffset": 850152,
      "componentType": 5126,
      "count": 47,
      "max": [
        6.850308895111084,
        0.4500829875469208,
        1.7144920825958252
      ],
      "min": [
        -7.283623218536377,
        0.02075899951159954,
        -1.5988640785217285
      ],
      "type": "VEC3"
    },
    {
      "bufferView": 2,
      "byteOffset": 850716,
      "componentType": 5126,
      "count": 47,
      "max": [
        0.1961161196231842,
        -0.9730055332183838,
        0.13339591026306152
      ],
      "min": [
        -0.01574169285595417,
        -1.0,
        -3.725290298461914e-09
      ],
      "type": "VEC3"
    },
    {
      "bufferView": 3,
      "byteOffset": 566768,
      "componentType": 5126,
      "count": 47,
      "max": [
        0.0058703674003481865,
        3.725290298461914e-09,
        -0.9907112717628479,
        1.0
      ],
      "min": [
        -0.0011618294520303607,
        -0.13597969710826874,
        -1.0,
        1.0
      ],
      "type": "VEC4"
    },
    {
      "bufferView": 1,
      "byteOffset": 566768,
      "componentType": 5126,
      "count": 47,
      "max": [
        -6.611540794372559,
        4.033511161804199
      ],
      "min": [
        -7.601902008056641,
        -0.18927693367004395
      ],
      "type": "VEC2"
    },
    {
      "bufferView": 1,
      "byteOffset": 567144,
      "componentType": 5126,
      "count": 47,
      "max": [
        -6.611540794372559,
        4.033511161804199
      ],
      "min": [
        -7.601902008056641,
        -0.18927693367004395
      ],
      "type": "VEC2"
    },
    {
      "bufferView": 0,
      "byteOffset": 493056,
      "componentType": 5125,
      "count": 138,
      "type": "SCALAR"
    }
  ],
  "asset": {
    "extras": {
      "author": "o0ozexo0o (https://sketchfab.com/dadndan0091)",
      "license": "CC-BY-4.0 (http://creativecommons.org/licenses/by/4.0/)",
      "source": "https://sketchfab.com/3d-models/destroyed-bus-01-fdf39ca893a64368af45f82a6b6d68a4",
      "title": "destroyed Bus 01"
    },
    "generator": "Sketchfab-12.67.0",
    "version": "2.0"
  },
  "bufferViews": [
    {
      "buffer": 0,
      "byteLength": 493608,
      "name": "floatBufferViews",
      "target": 34963
    },
    {
      "buffer": 0,
      "byteLength": 567520,
      "byteOffset": 493608,
      "byteStride": 8,
      "name": "floatBufferViews",
      "target": 34962
    },
    {
      "buffer": 0,
      "byteLength": 851280,
      "byteOffset": 1061128,
      "byteStride": 12,
      "name": "floatBufferViews",
      "target": 34962
    },
    {
      "buffer": 0,
      "byteLength": 567520,
      "byteOffset": 1912408,
      "byteStride": 16,
      "name": "floatBufferViews",
      "target": 34962
    }
  ],
  "buffers": [
    {
      "byteLength": 2479928,
      "uri": "scene.bin"
    }
  ],
  "images": [
    {
      "uri": "textures/vehbus_01_baseColor.png"
    },
    {
      "uri": "textures/vehbus_01_normal.png"
    },
    {
      "uri": "textures/vehbus_02_baseColor.png"
    },
    {
      "uri": "textures/vehbus_02_normal.png"
    },
    {
      "uri": "textures/vehbus_03_baseColor.png"
    },
    {
      "uri": "textures/vehbus_03_normal.png"
    },
    {
      "uri": "textures/vehbus_04_baseColor.png"
    },
    {
      "uri": "textures/vehbus_04_normal.png"
    },
    {
      "uri": "textures/vehbus_05_baseColor.png"
    },
    {
      "uri": "textures/vehbus_05_normal.png"
    },
    {
      "uri": "textures/metalmetal_tile_baseColor.png"
    },
    {
      "uri": "textures/metalmetal_tile_normal.png"
    },
    {
      "uri": "textures/materialsrustedmetal_baseColor.png"
    },
    {
      "uri": "textures/materialsrustedmetal_normal.png"
    }
  ],
  "materials": [
    {
      "doubleSided": true,
      "name": "vehbus_01",
      "normalTexture": {
        "index": 1
      },
      "pbrMetallicRoughness": {
        "baseColorTexture": {
          "index": 0
        },
        "metallicFactor": 0.0
      }
    },
    {
      "doubleSided": true,
      "name": "vehbus_02",
      "normalTexture": {
        "index": 3
      },
      "pbrMetallicRoughness": {
        "baseColorTexture": {
          "index": 2
        },
        "metallicFactor": 0.0
      }
    },
    {
      "doubleSided": true,
      "name": "vehbus_03",
      "normalTexture": {
        "index": 5
      },
      "pbrMetallicRoughness": {
        "baseColorTexture": {
          "index": 4
        },
        "metallicFactor": 0.0
      }
    },
    {
      "doubleSided": true,
      "name": "vehbus_04",
      "normalTexture": {
        "index": 7
      },
      "pbrMetallicRoughness": {
        "baseColorTexture": {
          "index": 6
        },
        "metallicFactor": 0.0
      }
    },
    {
      "doubleSided": true,
      "name": "vehbus_05",
      "normalTexture": {
        "index": 9
      },
      "pbrMetallicRoughness": {
        "baseColorTexture": {
          "index": 8
        },
        "metallicFactor": 0.0
      }
    },
    {
      "doubleSided": true,
      "name": "metalmetal_tile",
      "normalTexture": {
        "index": 11
      },
      "pbrMetallicRoughness": {
        "baseColorTexture": {
          "index": 10
        },
        "metallicFactor": 0.0
      }
    },
    {
      "doubleSided": true,
      "name": "materialsrustedmetal",
      "normalTexture": {
        "index": 13
      },
      "pbrMetallicRoughness": {
        "baseColorTexture": {
          "index": 12
        },
        "metallicFactor": 0.0
      }
    }
  ],
  "meshes": [
    {
      "name": "mesh_0_veh\\bus_01_0",
      "primitives": [
        {
          "attributes": {
            "NORMAL": 1,
            "POSITION": 0,
            "TANGENT": 2,
            "TEXCOORD_0": 3,
            "TEXCOORD_1": 4
          },
          "indices": 5,
          "material": 0,
          "mode": 4
        }
      ]
    },
    {
      "name": "mesh_1_veh\\bus_02_0",
      "primitives": [
        {
          "attributes": {
            "NORMAL": 7,
            "POSITION": 6,
            "TANGENT": 8,
            "TEXCOORD_0": 9,
            "TEXCOORD_1": 10
          },
          "indices": 11,
          "material": 1,
          "mode": 4
        }
      ]
    },
    {
      "name": "mesh_2_veh\\bus_03_0",
      "primitives": [
        {
          "attributes": {
            "NORMAL": 13,
            "POSITION": 12,
            "TANGENT": 14,
            "TEXCOORD_0": 15,
            "TEXCOORD_1": 16
          },
          "indices": 17,
          "material": 2,
          "mode": 4
        }
      ]
    },
    {
      "name": "mesh_3_veh\\bus_04_0",
      "primitives": [
        {
          "attributes": {
            "NORMAL": 19,
            "POSITION": 18,
            "TANGENT": 20,
            "TEXCOORD_0": 21,
            "TEXCOORD_1": 22
          },
          "indices": 23,
          "material": 3,
          "mode": 4
        }
      ]
    },
    {
      "name": "mesh_4_veh\\bus_05_0",
      "primitives": [
        {
          "attributes": {
            "NORMAL": 25,
            "POSITION": 24,
            "TANGENT": 26,
            "TEXCOORD_0": 27,
            "TEXCOORD_1": 28
          },
          "indices": 29,
          "material": 4,
          "mode": 4
        }
      ]
    },
    {
      "name": "mesh_5_metal\\metal_tile_0",
      "primitives": [
        {
          "attributes": {
            "NORMAL": 31,
            "POSITION": 30,
            "TANGENT": 32,
            "TEXCOORD_0": 33,
            "TEXCOORD_1": 34
          },
          "indices": 35,
          "material": 5,
          "mode": 4
        }
      ]
    },
    {
      "name": "mesh_6_materials\\rustedmetal_0",
      "primitives": [
        {
          "attributes": {
            "NORMAL": 37,
            "POSITION": 36,
            "TANGENT": 38,
            "TEXCOORD_0": 39,
            "TEXCOORD_1": 40
          },
          "indices": 41,
          "material": 6,
          "mode": 4
        }
      ]
    }
  ],
  "nodes": [
    {
      "children": [
        1
      ],
      "matrix": [
        1.0,
        0.0,
        0.0,
        0.0,
        0.0,
        2.220446049250313e-16,
        -1.0,
        0.0,
        0.0,
        1.0,
        2.220446049250313e-16,
        0.0,
        0.0,
        0.0,
        0.0,
        1.0
      ],
      "name": "Sketchfab_model"
    },
    {
      "children": [
        2
      ],
      "matrix": [
        1.0,
        0.0,
        0.0,
        0.0,
        0.0,
        0.0,
        1.0,
        0.0,
        0.0,
        -1.0,
        0.0,
        0.0,
        0.0,
        0.0,
        0.0,
        1.0
      ],
      "name": "c1951fb0b08a403aa085f71b754c6219.fbx"
    },
    {
      "children": [
        3,
        5,
        7,
        9,
        11,
        13,
        15
      ],
      "name": "RootNode"
    },
    {
      "children": [
        4
      ],
      "name": "mesh_0"
    },
    {
      "mesh": 0,
      "name": "mesh_0_veh\\bus_01_0"
    },
    {
      "children": [
        6
      ],
      "name": "mesh_1"
    },
    {
      "mesh": 1,
      "name": "mesh_1_veh\\bus_02_0"
    },
    {
      "children": [
        8
      ],
      "name": "mesh_2"
    },
    {
      "mesh": 2,
      "name": "mesh_2_veh\\bus_03_0"
    },
    {
      "children": [
        10
      ],
      "name": "mesh_3"
    },
    {
      "mesh": 3,
      "name": "mesh_3_veh\\bus_04_0"
    },
    {
      "children": [
        12
      ],
      "name": "mesh_4"
    },
    {
      "mesh": 4,
      "name": "mesh_4_veh\\bus_05_0"
    },
    {
      "children": [
        14
      ],
      "name": "mesh_5"
    },
    {
      "mesh": 5,
      "name": "mesh_5_metal\\metal_tile_0"
    },
    {
      "children": [
        16
      ],
      "name": "mesh_6"
    },
    {
      "mesh": 6,
      "name": "mesh_6_materials\\rustedmetal_0"
    }
  ],
  "samplers": [
    {
      "magFilter": 9729,
      "minFilter": 9987,
      "wrapS": 10497,
      "wrapT": 10497
    }
  ],
  "scene": 0,
  "scenes": [
    {
      "name": "Sketchfab_Scene",
      "nodes": [
        0
      ]
    }
  ],
  "textures": [
    {
      "sampler": 0,
      "source": 0
    },
    {
      "sampler": 0,
      "source": 1
    },
    {
      "sampler": 0,
      "source": 2
    },
    {
      "sampler": 0,
      "source": 3
    },
    {
      "sampler": 0,
      "source": 4
    },
    {
      "sampler": 0,
      "source": 5
    },
    {
      "sampler": 0,
      "source": 6
    },
    {
      "sampler": 0,
      "source": 7
    },
    {
      "sampler": 0,
      "source": 8
    },
    {
      "sampler": 0,
      "source": 9
    },
    {
      "sampler": 0,
      "source": 10
    },
    {
      "sampler": 0,
      "source": 11
    },
    {
      "sampler": 0,
      "source": 12
    },
    {
      "sampler": 0,
      "source": 13
    }
  ]
}
