{
  "accessors": [
    {
      "bufferView": 2,
      "componentType": 5126,
      "count": 4018,
      "max": [
        2.1109299659729004,
        2.1108601093292236,
        7.648169994354248
      ],
      "min": [
        -2.1109299659729004,
        -2.1110000610351563,
        0.0
      ],
      "type": "VEC3"
    },
    {
      "bufferView": 2,
      "byteOffset": 48216,
      "componentType": 5126,
      "count": 4018,
      "max": [
        1.0,
        1.0,
        1.0
      ],
      "min": [
        -1.0,
        -1.0,
        -1.0
      ],
      "type": "VEC3"
    },
    {
      "bufferView": 3,
      "componentType": 5126,
      "count": 4018,
      "max": [
        1.0,
        1.0,
        1.0,
        1.0
      ],
      "min": [
        -1.0,
        -1.0,
        -0.5152655839920044,
        1.0
      ],
      "type": "VEC4"
    },
    {
      "bufferView": 1,
      "componentType": 5126,
      "count": 4018,
      "max": [
        0.9960600137710571,
        0.9995899796485901
      ],
      "min": [
        0.00041000000783242285,
        0.00041000000783242285
      ],
      "type": "VEC2"
    },
    {
      "bufferView": 1,
      "byteOffset": 32144,
      "componentType": 5126,
      "count": 4018,
      "max": [
        0.9960600137710571,
        0.9995899796485901
      ],
      "min": [
        0.00041000000783242285,
        0.00041000000783242285
      ],
      "type": "VEC2"
    },
    {
      "bufferView": 0,
      "componentType": 5125,
      "count": 6108,
      "type": "SCALAR"
    }
  ],
  "asset": {
    "extras": {
      "author": "3DHaupt (https://sketchfab.com/dennish2010)",
      "license": "CC-BY-NC-4.0 (http://creativecommons.org/licenses/by-nc/4.0/)",
      "source": "https://sketchfab.com/3d-models/watch-tower-made-of-wood-low-poly-6424710c482f4431b85ea253155420c8",
      "title": "Watch tower made of wood (Low-Poly)"
    },
    "generator": "Sketchfab-12.63.0",
    "version": "2.0"
  },
  "bufferViews": [
    {
      "buffer": 0,
      "byteLength": 24432,
      "name": "floatBufferViews",
      "target": 34963
    },
    {
      "buffer": 0,
      "byteLength": 64288,
      "byteOffset": 24432,
      "byteStride": 8,
      "name": "floatBufferViews",
      "target": 34962
    },
    {
      "buffer": 0,
      "byteLength": 96432,
      "byteOffset": 88720,
      "byteStride": 12,
      "name": "floatBufferViews",
      "target": 34962
    },
    {
      "buffer": 0,
      "byteLength": 64288,
      "byteOffset": 185152,
      "byteStride": 16,
      "name": "floatBufferViews",
      "target": 34962
    }
  ],
  "buffers": [
    {
      "byteLength": 249440,
      "uri": "scene.bin"
    }
  ],
  "images": [
    {
      "uri": "textures/watchtower_baseColor.jpeg"
    },
    {
      "uri": "textures/watchtower_metallicRoughness.png"
    },
    {
      "uri": "textures/watchtower_normal.png"
    }
  ],
  "materials": [
    {
      "doubleSided": true,
      "name": "watchtower",
      "normalTexture": {
        "index": 2
      },
      "pbrMetallicRoughness": {
        "baseColorTexture": {
          "index": 0
        },
        "metallicFactor": 0.0,
        "metallicRoughnessTexture": {
          "index": 1
        }
      }
    }
  ],
  "meshes": [
    {
      "name": "watchtowerHigh_0",
      "primitives": [
        {
          "attributes": {
            "NORMAL": 1,
            "POSITION": 0,
            "TANGENT": 2,
            "TEXCOORD_0": 3,
            "TEXCOORD_1": 4
          },
          "indices": 5,
          "material": 0,
          "mode": 4
        }
      ]
    }
  ],
  "nodes": [
    {
      "children": [
        1
      ],
      "matrix": [
        1.7052910327911377,
        0.0,
        0.0,
        0.0,
        0.0,
        3.786506736583068e-16,
        -1.7052910327911377,
        0.0,
        0.0,
        1.7052910327911377,
        3.786506736583068e-16,
        0.0,
        0.0,
        0.0,
        0.0,
        1.0
      ],
      "name": "Sketchfab_model"
    },
    {
      "children": [
        2
      ],
      "name": "Root"
    },
    {
      "children": [
        3
      ],
      "matrix": [
        1.0,
        0.0,
        0.0,
        0.0,
        0.0,
        1.0,
        0.0,
        0.0,
        0.0,
        0.0,
        1.0,
        0.0,
        0.0,
        0.0,
        0.6715000000000001,
        1.0
      ],
      "name": "watchtowerHigh"
    },
    {
      "mesh": 0,
      "name": "watchtowerHigh_0"
    }
  ],
  "samplers": [
    {
      "magFilter": 9729,
      "minFilter": 9987,
      "wrapS": 10497,
      "wrapT": 10497
    }
  ],
  "scene": 0,
  "scenes": [
    {
      "name": "Sketchfab_Scene",
      "nodes": [
        0
      ]
    }
  ],
  "textures": [
    {
      "sampler": 0,
      "source": 0
    },
    {
      "sampler": 0,
      "source": 1
    },
    {
      "sampler": 0,
      "source": 2
    }
  ]
}
