{"accessors":[{"bufferView":0,"byteOffset":0,"componentType":5123,"count":342,"type":"SCALAR"},{"bufferView":1,"byteOffset":0,"componentType":5126,"count":59,"max":[0.0151922460645437,0.0234615132212639,0.0145067172124982],"min":[-0.018833424896,-0.00270627741702,-0.0134661803022],"type":"VEC3"},{"bufferView":2,"byteOffset":0,"componentType":5126,"count":59,"type":"VEC3"},{"bufferView":3,"byteOffset":0,"componentType":5126,"count":59,"type":"VEC2"}],"asset":{"generator":"FBX2glTF v0.13.0","version":"2.0"},"bufferViews":[{"buffer":0,"byteLength":684,"byteOffset":0,"target":34963},{"buffer":0,"byteLength":708,"byteOffset":684,"target":34962},{"buffer":0,"byteLength":708,"byteOffset":1392,"target":34962},{"buffer":0,"byteLength":472,"byteOffset":2100,"target":34962}],"buffers":[{"byteLength":2572,"uri":"rpgpp_av_rock_01.bin"}],"images":[{"name":"rpgpp_ne_tex_a","uri":"rpgpp_ne_tex_a.png"}],"materials":[{"alphaMode":"OPAQUE","doubleSided":false,"extras":{"fromFBX":{"isTruePBR":false,"shadingModel":"Phong"}},"name":"rpgpp_ne_mat_a.004","pbrMetallicRoughness":{"baseColorFactor":[1,1,1,1],"baseColorTexture":{"index":0,"texCoord":0},"metallicFactor":0.400000005960464,"roughnessFactor":0.272165536880493}}],"meshes":[{"name":"rpgpp_av_rock_01","primitives":[{"attributes":{"NORMAL":2,"POSITION":1,"TEXCOORD_0":3},"indices":0,"material":0,"mode":4}]}],"nodes":[{"mesh":0,"name":"rpgpp_av_rock_01","rotation":[0,0,0,1],"scale":[1,1,1],"translation":[0,0,0]}],"samplers":[{}],"scene":0,"scenes":[{"name":"Root Scene","nodes":[0]}],"textures":[{"name":"base_color_texture","sampler":0,"source":0}]}