{
  "accessors": [
    {
      "bufferView": 2,
      "componentType": 5126,
      "count": 1441,
      "max": [
        63.89447021484375,
        39.11838150024414,
        29.07358741760254
      ],
      "min": [
        -62.63734817504883,
        -1.3682241439819336,
        -29.07358741760254
      ],
      "type": "VEC3"
    },
    {
      "bufferView": 2,
      "byteOffset": 17292,
      "componentType": 5126,
      "count": 1441,
      "max": [
        1.0,
        1.0,
        1.0
      ],
      "min": [
        -1.0,
        -1.0,
        -1.0
      ],
      "type": "VEC3"
    },
    {
      "bufferView": 3,
      "componentType": 5126,
      "count": 1441,
      "max": [
        1.0,
        1.0,
        1.0,
        1.0
      ],
      "min": [
        -1.0,
        -1.0,
        -1.0,
        -1.0
      ],
      "type": "VEC4"
    },
    {
      "bufferView": 1,
      "componentType": 5126,
      "count": 1441,
      "max": [
        0.9956480860710144,
        0.9974186420440674
      ],
      "min": [
        0.0029283305630087852,
        0.0026528083253651857
      ],
      "type": "VEC2"
    },
    {
      "bufferView": 0,
      "componentType": 5125,
      "count": 4368,
      "type": "SCALAR"
    },
    {
      "bufferView": 2,
      "byteOffset": 34584,
      "componentType": 5126,
      "count": 56,
      "max": [
        14.215011596679688,
        6.043632507324219,
        26.397533416748047
      ],
      "min": [
        -50.90449905395508,
        -6.165475368499756,
        -26.47470474243164
      ],
      "type": "VEC3"
    },
    {
      "bufferView": 2,
      "byteOffset": 35256,
      "componentType": 5126,
      "count": 56,
      "max": [
        0.799781084060669,
        0.6958779096603394,
        0.8990751504898071
      ],
      "min": [
        -0.7997811436653137,
        -0.6958626508712769,
        -0.8990751504898071
      ],
      "type": "VEC3"
    },
    {
      "bufferView": 1,
      "byteOffset": 11528,
      "componentType": 5126,
      "count": 56,
      "max": [
        0.9979999661445618,
        0.9712947010993958
      ],
      "min": [
        0.0020000000949949026,
        0.0020000000949949026
      ],
      "type": "VEC2"
    },
    {
      "bufferView": 1,
      "byteOffset": 11976,
      "componentType": 5126,
      "count": 56,
      "max": [
        0.9979999661445618,
        0.9712947010993958
      ],
      "min": [
        0.0020000000949949026,
        0.0020000000949949026
      ],
      "type": "VEC2"
    },
    {
      "bufferView": 0,
      "byteOffset": 17472,
      "componentType": 5125,
      "count": 96,
      "type": "SCALAR"
    }
  ],
  "asset": {
    "extras": {
      "author": "Renafox (https://sketchfab.com/kryik1023)",
      "license": "CC-BY-NC-4.0 (http://creativecommons.org/licenses/by-nc/4.0/)",
      "source": "https://sketchfab.com/3d-models/tiny-ruined-coupe-c9df5edb818248c49cda85742f85d501",
      "title": "Tiny Ruined Coupe"
    },
    "generator": "Sketchfab-12.68.0",
    "version": "2.0"
  },
  "bufferViews": [
    {
      "buffer": 0,
      "byteLength": 17856,
      "name": "floatBufferViews",
      "target": 34963
    },
    {
      "buffer": 0,
      "byteLength": 12424,
      "byteOffset": 17856,
      "byteStride": 8,
      "name": "floatBufferViews",
      "target": 34962
    },
    {
      "buffer": 0,
      "byteLength": 35928,
      "byteOffset": 30280,
      "byteStride": 12,
      "name": "floatBufferViews",
      "target": 34962
    },
    {
      "buffer": 0,
      "byteLength": 23056,
      "byteOffset": 66208,
      "byteStride": 16,
      "name": "floatBufferViews",
      "target": 34962
    }
  ],
  "buffers": [
    {
      "byteLength": 89264,
      "uri": "scene.bin"
    }
  ],
  "images": [
    {
      "uri": "textures/Material_6_baseColor.png"
    },
    {
      "uri": "textures/Material_6_metallicRoughness.png"
    },
    {
      "uri": "textures/Material_6_normal.png"
    },
    {
      "uri": "textures/Material_4_baseColor.png"
    },
    {
      "uri": "textures/Material_4_metallicRoughness.png"
    }
  ],
  "materials": [
    {
      "doubleSided": true,
      "name": "Material_6",
      "normalTexture": {
        "index": 2
      },
      "occlusionTexture": {
        "index": 1
      },
      "pbrMetallicRoughness": {
        "baseColorTexture": {
          "index": 0
        },
        "metallicRoughnessTexture": {
          "index": 1
        }
      }
    },
    {
      "alphaCutoff": 0.1,
      "alphaMode": "MASK",
      "doubleSided": true,
      "name": "Material_4",
      "pbrMetallicRoughness": {
        "baseColorTexture": {
          "index": 3
        },
        "metallicFactor": 0.18,
        "metallicRoughnessTexture": {
          "index": 4
        }
      }
    }
  ],
  "meshes": [
    {
      "name": "Box002_Material #6_0",
      "primitives": [
        {
          "attributes": {
            "NORMAL": 1,
            "POSITION": 0,
            "TANGENT": 2,
            "TEXCOORD_0": 3
          },
          "indices": 4,
          "material": 0,
          "mode": 4
        }
      ]
    },
    {
      "name": "Plane002_Material #4_0",
      "primitives": [
        {
          "attributes": {
            "NORMAL": 6,
            "POSITION": 5,
            "TEXCOORD_0": 7,
            "TEXCOORD_1": 8
          },
          "indices": 9,
          "material": 1,
          "mode": 4
        }
      ]
    }
  ],
  "nodes": [
    {
      "children": [
        1
      ],
      "matrix": [
        1.0,
        0.0,
        0.0,
        0.0,
        0.0,
        2.220446049250313e-16,
        -1.0,
        0.0,
        0.0,
        1.0,
        2.220446049250313e-16,
        0.0,
        0.0,
        0.0,
        0.0,
        1.0
      ],
      "name": "Sketchfab_model"
    },
    {
      "children": [
        2
      ],
      "matrix": [
        1.0,
        0.0,
        0.0,
        0.0,
        0.0,
        0.0,
        1.0,
        0.0,
        0.0,
        -1.0,
        0.0,
        0.0,
        0.0,
        0.0,
        0.0,
        1.0
      ],
      "name": "carfinal.FBX"
    },
    {
      "children": [
        3,
        5
      ],
      "name": "RootNode"
    },
    {
      "children": [
        4
      ],
      "matrix": [
        1.6292068460987963e-07,
        0.0,
        0.9999999999999867,
        0.0,
        -4.371138822550499e-08,
        0.999999999999999,
        7.121489295963928e-15,
        0.0,
        -0.9999999999999858,
        -4.371138822550557e-08,
        1.6292068460987963e-07,
        0.0,
        1.3037013957273302e-07,
        7.468437194824219,
        -2.982520818710327,
        1.0
      ],
      "name": "Box002"
    },
    {
      "mesh": 0,
      "name": "Box002_Material #6_0"
    },
    {
      "children": [
        6
      ],
      "matrix": [
        1.6292068460987963e-07,
        0.0,
        0.9999999999999867,
        0.0,
        -4.371138822550499e-08,
        0.999999999999999,
        7.121489295963928e-15,
        0.0,
        -0.9999999999999858,
        -4.371138822550557e-08,
        1.6292068460987963e-07,
        0.0,
        -1.0848757483472582e-06,
        37.922645568847656,
        24.81906509399414,
        1.0
      ],
      "name": "Plane002"
    },
    {
      "mesh": 1,
      "name": "Plane002_Material #4_0"
    }
  ],
  "samplers": [
    {
      "magFilter": 9729,
      "minFilter": 9987,
      "wrapS": 10497,
      "wrapT": 10497
    }
  ],
  "scene": 0,
  "scenes": [
    {
      "name": "Sketchfab_Scene",
      "nodes": [
        0
      ]
    }
  ],
  "textures": [
    {
      "sampler": 0,
      "source": 0
    },
    {
      "sampler": 0,
      "source": 1
    },
    {
      "sampler": 0,
      "source": 2
    },
    {
      "sampler": 0,
      "source": 3
    },
    {
      "sampler": 0,
      "source": 4
    }
  ]
}
