{"accessors":[{"bufferView":0,"byteOffset":0,"componentType":5123,"count":843,"type":"SCALAR"},{"bufferView":1,"byteOffset":0,"componentType":5126,"count":138,"max":[0.00870115775614977,0.023955961689353,0.00552299711853266],"min":[-0.00065233855275,-0.00000118717696,-0.00168786139693],"type":"VEC3"},{"bufferView":2,"byteOffset":0,"componentType":5126,"count":138,"type":"VEC3"},{"bufferView":3,"byteOffset":0,"componentType":5126,"count":138,"type":"VEC2"}],"asset":{"generator":"FBX2glTF v0.13.0","version":"2.0"},"bufferViews":[{"buffer":0,"byteLength":1686,"byteOffset":0,"target":34963},{"buffer":0,"byteLength":1656,"byteOffset":1688,"target":34962},{"buffer":0,"byteLength":1656,"byteOffset":3344,"target":34962},{"buffer":0,"byteLength":1104,"byteOffset":5000,"target":34962}],"buffers":[{"byteLength":6104,"uri":"rpgpp_av_tree_dead_small_03.bin"}],"images":[{"name":"rpgpp_ag_tex_a","uri":"rpgpp_ag_tex_a.png"}],"materials":[{"alphaMode":"OPAQUE","doubleSided":false,"extras":{"fromFBX":{"isTruePBR":false,"shadingModel":"Phong"}},"name":"rpgpp_ag_mat_a","pbrMetallicRoughness":{"baseColorFactor":[1,1,1,1],"baseColorTexture":{"index":0,"texCoord":0},"metallicFactor":0.400000005960464,"roughnessFactor":0.284101665019989}}],"meshes":[{"name":"rpgpp_av_tree_dead_small_03","primitives":[{"attributes":{"NORMAL":2,"POSITION":1,"TEXCOORD_0":3},"indices":0,"material":0,"mode":4}]}],"nodes":[{"mesh":0,"name":"rpgpp_av_tree_dead_small_03","rotation":[0,0,0,1],"scale":[1,1,1],"translation":[0,0,0]}],"samplers":[{}],"scene":0,"scenes":[{"name":"Root Scene","nodes":[0]}],"textures":[{"name":"base_color_texture","sampler":0,"source":0}]}