{"accessors":[{"bufferView":0,"byteOffset":0,"componentType":5123,"count":654,"type":"SCALAR"},{"bufferView":1,"byteOffset":0,"componentType":5126,"count":105,"max":[0.00755014782771468,0.0233613159507513,0.00370015832595527],"min":[-0.00364307244308,-0.00000221489768,-0.00693366862834],"type":"VEC3"},{"bufferView":2,"byteOffset":0,"componentType":5126,"count":105,"type":"VEC3"},{"bufferView":3,"byteOffset":0,"componentType":5126,"count":105,"type":"VEC2"}],"asset":{"generator":"FBX2glTF v0.13.0","version":"2.0"},"bufferViews":[{"buffer":0,"byteLength":1308,"byteOffset":0,"target":34963},{"buffer":0,"byteLength":1260,"byteOffset":1308,"target":34962},{"buffer":0,"byteLength":1260,"byteOffset":2568,"target":34962},{"buffer":0,"byteLength":840,"byteOffset":3828,"target":34962}],"buffers":[{"byteLength":4668,"uri":"rpgpp_av_tree_dead_small_01.bin"}],"images":[{"name":"rpgpp_ag_tex_a","uri":"rpgpp_ag_tex_a.png"}],"materials":[{"alphaMode":"OPAQUE","doubleSided":false,"extras":{"fromFBX":{"isTruePBR":false,"shadingModel":"Phong"}},"name":"rpgpp_ag_mat_a","pbrMetallicRoughness":{"baseColorFactor":[1,1,1,1],"baseColorTexture":{"index":0,"texCoord":0},"metallicFactor":0.400000005960464,"roughnessFactor":0.284101665019989}}],"meshes":[{"name":"rpgpp_av_tree_dead_small_01","primitives":[{"attributes":{"NORMAL":2,"POSITION":1,"TEXCOORD_0":3},"indices":0,"material":0,"mode":4}]}],"nodes":[{"mesh":0,"name":"rpgpp_av_tree_dead_small_01","rotation":[0,0,0,1],"scale":[1,1,1],"translation":[0,0,0]}],"samplers":[{}],"scene":0,"scenes":[{"name":"Root Scene","nodes":[0]}],"textures":[{"name":"base_color_texture","sampler":0,"source":0}]}