{"accessors":[{"bufferView":0,"byteOffset":0,"componentType":5123,"count":876,"type":"SCALAR"},{"bufferView":1,"byteOffset":0,"componentType":5126,"count":148,"max":[0.195013999938965,0.12825982272625,0.0931252837181091],"min":[-0.2286880761385,0.00243788724765182,-0.08678082376719],"type":"VEC3"},{"bufferView":2,"byteOffset":0,"componentType":5126,"count":148,"type":"VEC3"},{"bufferView":3,"byteOffset":0,"componentType":5126,"count":148,"type":"VEC2"}],"asset":{"generator":"FBX2glTF v0.13.0","version":"2.0"},"bufferViews":[{"buffer":0,"byteLength":1752,"byteOffset":0,"target":34963},{"buffer":0,"byteLength":1776,"byteOffset":1752,"target":34962},{"buffer":0,"byteLength":1776,"byteOffset":3528,"target":34962},{"buffer":0,"byteLength":1184,"byteOffset":5304,"target":34962}],"buffers":[{"byteLength":6488,"uri":"rpgpp_av_cloud_03.bin"}],"materials":[{"alphaMode":"OPAQUE","doubleSided":false,"extras":{"fromFBX":{"isTruePBR":false,"shadingModel":"Phong"}},"name":"rpgpp_ne_cloud_mat_a","pbrMetallicRoughness":{"baseColorFactor":[0.800000011920929,0.800000011920929,0.800000011920929,1],"metallicFactor":0.400000005960464,"roughnessFactor":0.272165536880493}}],"meshes":[{"name":"rpgpp_av_cloud_03","primitives":[{"attributes":{"NORMAL":2,"POSITION":1,"TEXCOORD_0":3},"indices":0,"material":0,"mode":4}]}],"nodes":[{"mesh":0,"name":"rpgpp_av_cloud_03","rotation":[0,0,0,1],"scale":[1,1,1],"translation":[0,0,0]}],"samplers":[{}],"scene":0,"scenes":[{"name":"Root Scene","nodes":[0]}]}