{"accessors":[{"bufferView":0,"byteOffset":0,"componentType":5123,"count":702,"type":"SCALAR"},{"bufferView":1,"byteOffset":0,"componentType":5126,"count":153,"max":[0.0999999940395355,0.0029027359560132,0.100000008940697],"min":[-0.00000000000931,-0.01083099562675,-0.00000000953674],"type":"VEC3"},{"bufferView":2,"byteOffset":0,"componentType":5126,"count":153,"type":"VEC3"},{"bufferView":3,"byteOffset":0,"componentType":5126,"count":153,"type":"VEC2"}],"asset":{"generator":"FBX2glTF v0.13.0","version":"2.0"},"bufferViews":[{"buffer":0,"byteLength":1404,"byteOffset":0,"target":34963},{"buffer":0,"byteLength":1836,"byteOffset":1404,"target":34962},{"buffer":0,"byteLength":1836,"byteOffset":3240,"target":34962},{"buffer":0,"byteLength":1224,"byteOffset":5076,"target":34962}],"buffers":[{"byteLength":6300,"uri":"rpgpp_av_terrain_path_01_10x10m_slope_a.bin"}],"images":[{"name":"rpgpp_ag_tex_a","uri":"rpgpp_ag_tex_a.png"}],"materials":[{"alphaMode":"OPAQUE","doubleSided":false,"extras":{"fromFBX":{"isTruePBR":false,"shadingModel":"Phong"}},"name":"rpgpp_ag_mat_a","pbrMetallicRoughness":{"baseColorFactor":[1,1,1,1],"baseColorTexture":{"index":0,"texCoord":0},"metallicFactor":0.400000005960464,"roughnessFactor":0.284101665019989}}],"meshes":[{"name":"rpgpp_av_terrain_path_01_10x10m_slope_a","primitives":[{"attributes":{"NORMAL":2,"POSITION":1,"TEXCOORD_0":3},"indices":0,"material":0,"mode":4}]}],"nodes":[{"mesh":0,"name":"rpgpp_av_terrain_path_01_10x10m_slope_a","rotation":[0,0,0,1],"scale":[1,1,1],"translation":[0,0,0]}],"samplers":[{}],"scene":0,"scenes":[{"name":"Root Scene","nodes":[0]}],"textures":[{"name":"base_color_texture","sampler":0,"source":0}]}