{"accessors":[{"bufferView":0,"byteOffset":0,"componentType":5123,"count":498,"type":"SCALAR"},{"bufferView":1,"byteOffset":0,"componentType":5126,"count":99,"max":[0.100000075995922,0.00290054781362414,0.0999999865889549],"min":[-0,-0.01999999769032,-0.0000001295405],"type":"VEC3"},{"bufferView":2,"byteOffset":0,"componentType":5126,"count":99,"type":"VEC3"},{"bufferView":3,"byteOffset":0,"componentType":5126,"count":99,"type":"VEC2"}],"asset":{"generator":"FBX2glTF v0.13.0","version":"2.0"},"bufferViews":[{"buffer":0,"byteLength":996,"byteOffset":0,"target":34963},{"buffer":0,"byteLength":1188,"byteOffset":996,"target":34962},{"buffer":0,"byteLength":1188,"byteOffset":2184,"target":34962},{"buffer":0,"byteLength":792,"byteOffset":3372,"target":34962}],"buffers":[{"byteLength":4164,"uri":"rpgpp_av_terrain_hill_01e_10x10m_0-1-1-2m.bin"}],"images":[{"name":"rpgpp_ag_tex_a","uri":"rpgpp_ag_tex_a.png"}],"materials":[{"alphaMode":"OPAQUE","doubleSided":false,"extras":{"fromFBX":{"isTruePBR":false,"shadingModel":"Phong"}},"name":"rpgpp_ag_mat_a","pbrMetallicRoughness":{"baseColorFactor":[1,1,1,1],"baseColorTexture":{"index":0,"texCoord":0},"metallicFactor":0.400000005960464,"roughnessFactor":0.284101665019989}}],"meshes":[{"name":"rpgpp_av_terrain_hill_01e_10x10m_0-1-1-2m","primitives":[{"attributes":{"NORMAL":2,"POSITION":1,"TEXCOORD_0":3},"indices":0,"material":0,"mode":4}]}],"nodes":[{"mesh":0,"name":"rpgpp_av_terrain_hill_01e_10x10m_0-1-1-2m","rotation":[0,0,0,1],"scale":[1,1,1],"translation":[0,0,0]}],"samplers":[{}],"scene":0,"scenes":[{"name":"Root Scene","nodes":[0]}],"textures":[{"name":"base_color_texture","sampler":0,"source":0}]}